<?xml version="1.0" standalone="no"?>
<!DOCTYPE svg PUBLIC "-//W3C//DTD SVG 1.1//EN" "http://www.w3.org/Graphics/SVG/1.1/DTD/svg11.dtd" >
<svg xmlns="http://www.w3.org/2000/svg" xmlns:xlink="http://www.w3.org/1999/xlink" version="1.1">
<metadata>
Created by FontForge 20170731 at Thu Jun 24 14:27:59 2010
 By Aleksey,,,
Copyright (c) 2007 by Edik Ghabuzyan. All rights reserved.
</metadata>
<defs>
<font id="GHEAGrapalat-Bold" horiz-adv-x="583" >
  <font-face 
    font-family="GHEA Grapalat"
    font-weight="700"
    font-stretch="normal"
    units-per-em="1000"
    panose-1="2 0 8 3 5 0 0 2 0 3"
    ascent="750"
    descent="-250"
    x-height="500"
    cap-height="740"
    bbox="-182 -291.091 1549 1071"
    underline-thickness="50"
    underline-position="-200"
    unicode-range="U+0020-FB18"
  />
<missing-glyph horiz-adv-x="510" 
d="M5 7v707h505v-707h-505zM258 404l161 241h-323zM286 361l161 -243v485zM96 77h323l-161 240zM69 603v-485l160 243z" />
    <glyph glyph-name="glyph624" unicode="&#x548;&#x552;" horiz-adv-x="1335" 
d="M612 518v-518h-147v492q0 96 -30 129.5t-94 33.5t-94 -33.5t-30 -129.5v-492h-147v518q0 47 11.5 87t39.5 77t84 58.5t136 21.5t136 -21.5t84 -58.5t39.5 -77t11.5 -87zM902 476v-476h-147v750h147v-177h83q67 0 111 -16t63.5 -41t29.5 -55.5t16 -61.5t15.5 -56t34.5 -41
t68 -16h12v-94h-62q-61 0 -102.5 12t-61 32t-32 45.5t-15.5 52.5t-11.5 52.5t-20 45.5t-41.5 32t-76 12h-11z" />
    <glyph glyph-name="glyph673" unicode="&#x578;&#x582;" horiz-adv-x="874" 
d="M211 500v-79h1q12 34 46.5 62.5t99.5 28.5q70 0 113 -42.5t43 -118.5v-351h-142v324q0 81 -59 81q-40 0 -64 -30t-30.5 -62.5t-6.5 -68.5v-244h-142v500h141zM766 100h108v-100h-251v500h143v-400z" />
    <glyph glyph-name="f_f_j" unicode="ffj" horiz-adv-x="895" 
d="M229 500h154q-1 72 9 111q-29 17 -60.5 18t-56 -12.5t-38 -44t-8.5 -72.5zM679 146v254h-152q1 -22 1 -150v-250h-142v217v183h-152q1 -21 1 -150v-250h-142v217v183h-93v100h88q2 72 39 124.5t90.5 74.5t114 22t109.5 -26q29 37 83.5 53.5t110.5 11t95 -30.5l1 -1
l-73 -104h-5q-5 13 -16.5 20.5t-18.5 9.5t-11 2q-43 5 -70.5 -31t-12.5 -125h297v-298q0 -227 3 -269q3 -48 -8.5 -85t-30 -56.5t-43.5 -32.5t-43.5 -16.5t-34.5 -3.5q-75 0 -125 34l73 104h5q5 -13 15 -20.5t16.5 -9.5t9.5 -2h4.5t9 1.5t11 5t10.5 9.5t8 16t3.5 25t-2.5 35
q-2 10 -6.5 35t-6.5 39t-5 37.5t-4 47t-1 50.5z" />
    <glyph glyph-name="f_j" unicode="fj" horiz-adv-x="602" 
d="M386 146v254h-152q1 -21 1 -150v-250h-142v217q0 31 0.5 73t0.5 67t-1 43h-93v100h90q-3 58 9.5 103t37 72.5t40.5 39t38 23.5q21 11 59 16.5t85 -0.5t79 -26l-73 -104h-5q-5 13 -16.5 20.5t-18.5 9.5t-11 2q-43 5 -70.5 -31t-12.5 -125h297v-298q0 -227 3 -269
q3 -48 -8.5 -85t-30 -56.5t-43.5 -32.5t-43.5 -16.5t-34.5 -3.5q-75 0 -125 34l73 104h5q5 -13 15 -20.5t16.5 -9.5t9.5 -2h4.5t9 1.5t11 5t10.5 9.5t8 16t3.5 25t-2.5 35q-2 10 -6.5 35t-6.5 39t-5 37.5t-4 47t-1 50.5z" />
    <glyph glyph-name="ff" unicode="ff" horiz-adv-x="667" 
d="M606 657q-16 2 -32.5 -2.5t-34.5 -20.5t-21 -48.5t6 -85.5h143v-100h-140q1 -22 1 -150v-250h-142v217v183h-152q1 -21 1 -150v-250h-142v217v183h-93v100h88q2 72 39 124.5t90.5 74.5t114 22t109.5 -26q29 37 83.5 53.5t110.5 11t95 -30.5l-73 -104h-5q-5 13 -16.5 20.5
t-18.5 9.5t-11 2zM229 500h154q-1 72 9 111q-29 17 -61 18t-57.5 -12t-39 -44t-5.5 -73z" />
    <glyph glyph-name="fi" unicode="fi" horiz-adv-x="598" 
d="M314 656q-43 5 -70.5 -31t-12.5 -125h297v-500h-142v400h-152q1 -21 1 -150v-250h-142v217q0 31 0.5 73t0.5 67t-1 43h-93v100h90q-3 58 9.5 103t37 72.5t40.5 39t38 23.5q21 11 59 16.5t85 -0.5t79 -26l-73 -104h-5q-5 13 -16.5 20.5t-18.5 9.5t-11 2z" />
    <glyph glyph-name="fl" unicode="fl" horiz-adv-x="601" 
d="M428 701l42 54l58 -5v-750h-142v400h-152q1 -21 1 -150v-250h-142v217v183h-93v100h88q1 56 24 101t59.5 71t81 39t90 10t85.5 -20zM386 500v114q-29 15 -60 15.5t-55.5 -13t-37 -44t-4.5 -72.5h157z" />
    <glyph glyph-name="ffi" unicode="ffi" horiz-adv-x="891" 
d="M229 500h154q-1 72 9 111q-29 17 -60.5 18t-56 -12.5t-38 -44t-8.5 -72.5zM730 729l1 -1l-73 -104h-5q-5 13 -16.5 20.5t-18.5 9.5t-11 2q-43 5 -70.5 -31t-12.5 -125h297v-500h-142v400h-152q1 -22 1 -150v-250h-142v217v183h-152q1 -21 1 -150v-250h-142v217v183h-93
v100h88q2 72 39 124.5t90.5 74.5t114 22t109.5 -26q29 37 83.5 53.5t110.5 11t95 -30.5z" />
    <glyph glyph-name="ffl" unicode="ffl" horiz-adv-x="894" 
d="M721 701l42 54l58 -5v-750h-142v400h-152q1 -22 1 -150v-250h-142v217v183h-152q1 -21 1 -150v-250h-142v217v183h-93v100h88q2 72 40 124t93 74.5t117 22t111 -26.5q59 51 136.5 52.5t135.5 -45.5zM679 500v114q-31 30 -68 35t-61.5 -13.5t-35.5 -52.5t8 -83h157z
M229 500h154q-1 72 9 111q-27 16 -58 17t-56.5 -12t-39.5 -43.5t-9 -72.5z" />
    <glyph glyph-name="ft" unicode="ft" horiz-adv-x="652" 
d="M385 109v291h-151q1 -21 1 -150v-250h-142v217q0 163 -1 183h-92v100h89q-3 58 9.5 103t37.5 72.5t41 39t38 23.5q21 11 59 16.5t85 -0.5t79 -26l-73 -104h-5q-5 13 -16.5 20.5t-18.5 9.5t-11 2q-43 5 -71 -31t-13 -125h155l1 40l83 109l58 -5v-144h126v-100h-126v-226
q0 -50 23.5 -67t74.5 -17v-90h-116q-124 0 -124 109z" />
    <glyph glyph-name="uniFB13" unicode="&#x574;&#x576;" horiz-adv-x="1166" 
d="M794 331v-155q0 -81 59 -81q40 0 64 30t30.5 62.5t6.5 68.5v244h142v-500h-141v79h-1q-12 -34 -46.5 -62.5t-99.5 -28.5q-70 0 -113 42.5t-43 118.5v156q0 46 1.5 72t12 67.5t30.5 74.5q-90 -14 -127 30.5t-3 102.5q-15 13 -44 13q-58 -3 -70 -49.5t32 -129.5
q29 -53 29 -181v-305h-141v79h-1q-12 -34 -46.5 -62.5t-99.5 -28.5q-70 0 -113 42.5t-43 118.5v351h142v-324q0 -81 59 -81q40 0 64 30t30.5 62.5t6.5 68.5v34q4 107 -29 193q-44 116 10 197.5t173 81.5q49 0 95 -14t72 -38q-19 -40 -13 -69t28.5 -41t52 -16t57.5 5
q30 8 44.5 -4t12 -30t-14.5 -26q-18 -12 -25 -19.5t-19 -28t-16.5 -57.5t-4.5 -93z" />
    <glyph glyph-name="uniFB14" unicode="&#x574;&#x565;" horiz-adv-x="1166" 
d="M794 659v-159h327v-100h-327v-224q0 -81 59 -81q40 0 64 30t30.5 62.5t6.5 68.5v73h142v-329h-141v79h-1q-12 -34 -46.5 -62.5t-99.5 -28.5q-70 0 -113 42.5t-43 118.5v426q0 48 -31 70t-69 20q-36 -2 -58 -20.5t-27.5 -56t15.5 -93.5q31 -82 31 -181v-314h-141v79h-1
q-12 -34 -46.5 -62.5t-99.5 -28.5q-70 0 -113 42.5t-43 118.5v351h142v-324q0 -81 59 -81q40 0 64 30t30.5 62.5t6.5 68.5v34q0 120 -22 186q-39 116 20.5 199t182.5 87q168 5 242 -103z" />
    <glyph glyph-name="uniFB15" unicode="&#x574;&#x56b;" horiz-adv-x="1166" 
d="M794 659l-1 -238h1q12 34 46.5 62.5t99.5 28.5q70 0 113 -42.5t43 -118.5v-351h-142v324q0 81 -59 81q-40 0 -64 -30t-30.5 -62.5t-6.5 -68.5v-494h-142v825q0 45 -31.5 68.5t-68.5 21.5q-36 -2 -58 -20.5t-27.5 -56t15.5 -93.5q31 -82 31 -181v-314h-141v79h-1
q-12 -34 -46.5 -62.5t-99.5 -28.5q-70 0 -113 42.5t-43 118.5v351h142v-324q0 -81 59 -81q40 0 64 30t30.5 62.5t6.5 68.5v34q0 120 -22 186q-39 116 20.5 199t182.5 87q168 5 242 -103z" />
    <glyph glyph-name="uniFB16" unicode="&#x57e;&#x576;" horiz-adv-x="1166" 
d="M513 625h281v-449q0 -81 59 -81q40 0 64 30t30.5 62.5t6.5 68.5v244h142v-500h-141v79h-1q-12 -34 -46.5 -62.5t-99.5 -28.5q-70 0 -113 42.5t-43 118.5v376h-139v-675h181v-100h-322v329h-1q-12 -34 -47 -62.5t-100 -28.5q-70 0 -112.5 42.5t-42.5 118.5v351h142v-324
q0 -81 58 -81q40 0 64.5 30t31 62.5t6.5 68.5v269h-42q-117 0 -152 69.5t35 156.5h5l96 -38q-13 -31 -14.5 -50t10.5 -26.5t23.5 -9.5t35.5 -2h3v125h142v-125z" />
    <glyph glyph-name="uniFB17" unicode="&#x574;&#x56d;" horiz-adv-x="1433" 
d="M794 659v-159h282v-324q0 -81 53 -81q27 0 46.5 16.5t28.5 43t13 51.5t4 50v244h142v-500h-141v79h-1q-11 -33 -48 -62t-99 -29q-64 0 -102 41.5t-38 119.5v251h-140v-650h-142v825q0 45 -31.5 68.5t-68.5 21.5q-36 -2 -58 -20.5t-27.5 -56t15.5 -93.5q31 -82 31 -181
v-314h-141v79h-1q-12 -34 -46.5 -62.5t-99.5 -28.5q-70 0 -113 42.5t-43 118.5v351h142v-324q0 -81 59 -81q40 0 64 30t30.5 62.5t6.5 68.5v34q0 120 -22 186q-39 116 20.5 199t182.5 87q168 5 242 -103z" />
    <glyph glyph-name="uniFB18" unicode="&#x539;&#x545;" horiz-adv-x="1589" 
d="M670 340h-61q-7 0 -18 -2t-29.5 -10.5t-33 -22t-25.5 -40.5t-11 -62v-2q0 -111 92 -111q41 0 63.5 34t22.5 99v117zM818 340v-122q0 -97 -60.5 -163.5t-173.5 -66.5q-119 0 -181 62t-62 162v2q0 93 66 162t194 69h69q0 59 -20 102.5t-54.5 67.5t-72.5 35t-80 11
q-43 0 -80.5 -11.5t-71.5 -36.5t-54 -71.5t-20 -109.5v-432h-147v448q0 132 102.5 223t270.5 91q170 0 272.5 -88t102.5 -219v-10h394q46 0 77.5 11t45.5 30t19 37t4 38q-3 44 -38.5 72t-93.5 28q-50 0 -90 -24.5t-40 -76.5v-2h-150v3q5 83 81.5 141t193.5 60
q122 3 202.5 -47t86.5 -137q1 -21 -2 -42t-12 -45.5t-31 -44.5t-54 -31q61 -16 99.5 -64.5t38.5 -120.5q0 -98 -81.5 -170t-236.5 -72q-156 0 -234.5 63.5t-78.5 171.5v11h154v-8q0 -71 48 -104t111 -33q77 0 122 33.5t43 91.5q0 14 -2.5 26.5t-14 32t-29.5 33t-54 24
t-84 10.5h-394z" />
    <glyph glyph-name=".notdef" horiz-adv-x="510" 
d="M5 7v707h505v-707h-505zM258 404l161 241h-323zM286 361l161 -243v485zM96 77h323l-161 240zM69 603v-485l160 243z" />
    <glyph glyph-name=".null" horiz-adv-x="0" 
 />
    <glyph glyph-name="nonmarkingreturn" horiz-adv-x="333" 
 />
    <glyph glyph-name="space" unicode=" " horiz-adv-x="305" 
 />
    <glyph glyph-name="exclam" unicode="!" horiz-adv-x="300" 
d="M203 750v-1q8 0 16.5 -8t7.5 -15l-56 -524h-40l-56 525q-1 7 7.5 15t16.5 8h104zM70 70q0 33 22.5 56t55.5 23t56 -23t23 -56t-23 -55.5t-56 -22.5t-55.5 22.5t-22.5 55.5z" />
    <glyph glyph-name="quotedbl" unicode="&#x22;" horiz-adv-x="387" 
d="M53 750h93q11 0 17 -6.5t5 -16.5l-46 -240h-45l-46 240q-1 10 5 16.5t17 6.5zM241 750h93q11 0 17 -6.5t5 -16.5l-46 -240h-45l-46 240q-1 10 5 16.5t17 6.5z" />
    <glyph glyph-name="numbersign" unicode="#" horiz-adv-x="594" 
d="M230 313h117l17 129h-116zM185 3h-104l30 205h-94v105h111l19 129h-97v106h113l30 199h100l-29 -199h117l29 199h102l-29 -199h92v-106h-109l-17 -129h94v-105h-113l-28 -205h-103l30 205h-116z" />
    <glyph glyph-name="dollar" unicode="$" horiz-adv-x="579" 
d="M239 -66v88q-29 4 -45 6.5t-45 11.5t-49 21.5t-44 35.5t-43 55l107 48h10q26 -56 109 -79v171q-217 66 -196 225q8 56 56 99.5t140 56.5v83h101v-83q66 -9 119.5 -36t92.5 -88l-107 -50h-10q-37 60 -95 78v-169q124 -41 168.5 -95.5t41.5 -111.5q0 -69 -56 -117.5
t-154 -61.5v-88h-101zM397 180q2 43 -57 74v-133q54 17 57 59zM189 525q-10 -48 50 -80v131q-23 -9 -35.5 -23.5t-14.5 -27.5z" />
    <glyph glyph-name="percent" unicode="%" horiz-adv-x="705" 
d="M176 394q-64 0 -105 45t-41 132v4q0 88 41 136.5t105 48.5t105 -48.5t41 -136.5v-4q0 -87 -41 -132t-105 -45zM176 697q-14 0 -23 -6.5t-17 -35t-8 -80.5v-4q0 -38 4 -63t12 -35t15 -13t17 -3t17 3t15 13t12 35t4 63v4q0 52 -8 80.5t-17 35t-23 6.5zM530 -12
q-64 0 -105 45t-41 132v4q0 88 41 136.5t105 48.5t105 -48.5t41 -136.5v-4q0 -87 -41 -132t-105 -45zM530 291q-14 0 -23 -6.5t-17 -35t-8 -80.5v-4q0 -38 4 -63t12 -35t15 -13t17 -3t17 3t15 13t12 35t4 63v4q0 52 -8 80.5t-17 35t-23 6.5zM98 -30l408 812h101l-410 -812
h-99z" />
    <glyph glyph-name="ampersand" unicode="&#x26;" horiz-adv-x="674" 
d="M495 620q5 -63 -24 -114t-105 -100q86 -133 116 -172q36 46 59 92t36 120l5 3l74 -77q-21 -52 -31 -75.5t-33 -61.5t-53 -72l114 -154l-1 -9h-186l-43 58q-35 -32 -75 -48t-62 -18t-56 -2h-9q-83 0 -134.5 54t-56.5 124q-12 161 161 265q-48 87 -48 162v4q0 58 51.5 110
t142.5 52q63 0 108 -41t50 -100zM373 125q-41 62 -61.5 96t-39.5 69t-28 50q-36 -38 -51 -72t-15 -78q0 -39 21.5 -72.5t60.5 -36.5q51 -4 113 44zM313 488q67 48 69 113q0 9 -1.5 18t-6 23.5t-17.5 24t-32 10.5q-25 1 -38 -17.5t-15 -49.5q-3 -48 41 -122z" />
    <glyph glyph-name="quotesingle" unicode="'" horiz-adv-x="213" 
d="M50 750h114q11 0 17 -6.5t5 -16.5l-53 -240h-52l-53 240q-1 10 5 16.5t17 6.5z" />
    <glyph glyph-name="parenleft" unicode="(" horiz-adv-x="337" 
d="M189 251q0 -298 118 -482l-48 -20q-93 96 -156 227.5t-63 274.5t63 274.5t156 227.5l48 -20q-118 -184 -118 -482z" />
    <glyph glyph-name="parenright" unicode=")" horiz-adv-x="337" 
d="M148 251q0 298 -118 482l48 20q93 -96 156 -227.5t63 -274.5t-63 -274.5t-156 -227.5l-48 20q118 184 118 482z" />
    <glyph glyph-name="asterisk" unicode="*" horiz-adv-x="452" 
d="M267 559l112 -88q-14 -8 -37.5 -26t-32.5 -32l-79 121l-19 -141q-13 9 -40.5 19.5t-44.5 11.5l67 129l-134 -54q1 15 -3.5 44.5t-11.5 44.5l143 7l-112 88q14 8 37.5 26t32.5 32l79 -121l19 141q13 -9 40.5 -19.5t44.5 -11.5l-67 -129l134 54q-1 -15 3.5 -44.5
t11.5 -44.5z" />
    <glyph glyph-name="plus" unicode="+" horiz-adv-x="612" 
d="M257 292v198h94v-198h198v-94h-198v-198h-94v198h-198v94h198z" />
    <glyph glyph-name="comma" unicode="," horiz-adv-x="310" 
d="M70 61v20q0 21 18 41.5t49 24.5q37 5 69.5 -20.5t34.5 -70.5q2 -36 -12 -73.5t-34.5 -64.5t-42 -48t-37 -32t-16.5 -10l-32 33q78 76 66 123q-3 11 -19 17.5t-30 19t-14 40.5z" />
    <glyph glyph-name="hyphen" unicode="-" horiz-adv-x="338" 
d="M26 292h286v-94h-286v94z" />
    <glyph glyph-name="period" unicode="." horiz-adv-x="297" 
d="M70 70q0 33 22.5 56t55.5 23t56 -23t23 -56t-23 -55.5t-56 -22.5t-55.5 22.5t-22.5 55.5z" />
    <glyph glyph-name="slash" unicode="/" horiz-adv-x="506" 
d="M10 0l384 752h101l-386 -752h-99z" />
    <glyph glyph-name="zero" unicode="0" horiz-adv-x="618" 
d="M309 -12q-122 0 -193 94t-71 278v30q0 184 71 278t193 94t193 -94t71 -278v-30q0 -184 -71 -278t-193 -94zM309 661q-35 0 -56.5 -19.5t-35.5 -81t-14 -170.5v-30q0 -156 26.5 -214.5t79.5 -58.5t79.5 58.5t26.5 214.5v30q0 109 -14 170.5t-35.5 81t-56.5 19.5z" />
    <glyph glyph-name="one" unicode="1" horiz-adv-x="424" 
d="M226 755l58 -5v-750h-144v597q-55 -26 -110 -37l-16 66q153 59 212 129z" />
    <glyph glyph-name="two" unicode="2" horiz-adv-x="550" 
d="M500 538q9 -128 -78 -242t-224 -188l10 -4q75 0 116 1t94 7t79 19l11 -12v-119h-464l-13 116q157 86 237 182.5t81 214.5q0 39 -11 68.5t-25 44t-32.5 23t-28.5 10.5t-17 2q-94 3 -127 -103h-10l-79 80q31 56 91 90t131 34q107 0 179.5 -61t79.5 -163z" />
    <glyph glyph-name="three" unicode="3" horiz-adv-x="599" 
d="M205 352l-2 102q47 -3 80.5 4t50.5 19t26 31t10.5 31t1.5 28q0 37 -26 65.5t-71 28.5q-37 0 -72.5 -23.5t-52.5 -79.5h-10l-79 80q77 120 222 124q110 4 182.5 -53t70.5 -137q-1 -53 -31 -97.5t-104 -63.5q51 -7 87.5 -29.5t53 -52.5t23.5 -56t7 -52v-2
q0 -95 -80.5 -166.5t-216.5 -64.5q-169 0 -247 145l79 80h10q46 -122 158 -124q53 -2 91.5 30.5t38.5 87.5v2q0 49 -16 78q-44 78 -184 65z" />
    <glyph glyph-name="four" unicode="4" horiz-adv-x="609" 
d="M485 189v-189h-148v189h-316v65l336 496h128v-466h94v-95h-94zM337 284v252l-5 7l-186 -255l3 -4h188z" />
    <glyph glyph-name="five" unicode="5" horiz-adv-x="597" 
d="M63 363l52 387h381v-115l-11 -12q-26 13 -70.5 19t-80.5 7t-108 1l-10 -6l-34 -163q44 27 117 30q113 4 185.5 -63t72.5 -170v-39q0 -97 -81 -174t-214 -77q-159 0 -228 144l79 80h10q33 -125 148 -123q67 1 100.5 42.5t33.5 111.5v22q0 23 -8 46.5t-23.5 45.5t-45 34
t-67.5 10q-74 -5 -140 -58z" />
    <glyph glyph-name="six" unicode="6" horiz-adv-x="623" 
d="M370 763q62 1 117 -22t79 -57l-54 -105h-5q-47 83 -132 83q-51 -1 -88.5 -28t-56 -69t-26.5 -77t-9 -66q21 20 44.5 32.5t49.5 17.5t41.5 6t39.5 1q91 0 152 -67.5t60 -171.5q-2 -103 -77 -177t-188 -74q-135 0 -206 95t-70 241q0 54 7 104.5t28 112t55.5 107t96 78.5
t142.5 36zM314 90q50 0 84 35t34 109q0 73 -36 110.5t-80 37.5q-14 0 -31.5 -6t-38 -21t-33.5 -47t-12 -77q1 -68 37.5 -104.5t75.5 -36.5z" />
    <glyph glyph-name="seven" unicode="7" horiz-adv-x="550" 
d="M44 750h465l11 -65q-13 -27 -61 -129t-66.5 -144.5t-53.5 -123.5t-58 -149t-43 -139h-157v11l5 16q6 16 17 44t27.5 67.5t42 93t56 113t73.5 135.5t91 153l-4 5q-17 0 -80 -0.5t-95.5 -1.5t-82.5 -5.5t-87 -11.5v131z" />
    <glyph glyph-name="eight" unicode="8" horiz-adv-x="674" 
d="M336 456h2q96 2 96 108q0 38 -26.5 67.5t-70.5 29.5t-70.5 -29.5t-26.5 -67.5q0 -108 96 -108zM337 352q-39 0 -66.5 -14.5t-39.5 -32.5t-18 -42t-6.5 -34.5t0.5 -19.5v-2q0 -55 38.5 -87.5t91.5 -30.5q53 -2 91.5 30.5t38.5 87.5v2q-1 3 0 11.5t-1.5 21.5t-6 27.5
t-13.5 29.5t-23 26.5t-35.5 19t-50.5 7.5zM337 -12q-136 -7 -216.5 64.5t-80.5 166.5v2q0 26 6.5 52t22.5 56t50.5 52.5t84.5 29.5q-126 30 -128 158q-2 79 74.5 138t186.5 55q110 4 186.5 -55t74.5 -138q-1 -53 -30 -98t-98 -60q50 -7 84.5 -29.5t50.5 -52.5t22.5 -56
t6.5 -52v-2q0 -95 -80.5 -166.5t-216.5 -64.5z" />
    <glyph glyph-name="nine" unicode="9" horiz-adv-x="623" 
d="M255 -10q-62 -1 -117 22t-79 57l54 105h5q47 -83 132 -83q51 1 88.5 28t56 69t26.5 77t9 66q-28 -26 -63 -39.5t-55.5 -15.5t-53.5 -2q-92 0 -154 67.5t-61 171.5q2 103 77 177t188 74q135 0 206 -95t70 -241q0 -54 -7 -104.5t-28 -112t-55.5 -107t-96 -78.5t-142.5 -36z
M311 663q-50 0 -84 -35t-34 -109q0 -73 36 -110.5t80 -37.5q14 0 31.5 6t38 21t33.5 47t12 77q-1 68 -37.5 104.5t-75.5 36.5z" />
    <glyph glyph-name="colon" unicode=":" horiz-adv-x="297" 
d="M70 70q0 33 22.5 56t55.5 23t56 -23t23 -56t-23 -55.5t-56 -22.5t-55.5 22.5t-22.5 55.5zM70 434q0 33 22.5 56t55.5 23t56 -23t23 -56t-23 -55.5t-56 -22.5t-55.5 22.5t-22.5 55.5z" />
    <glyph glyph-name="semicolon" unicode=";" horiz-adv-x="304" 
d="M70 434q0 33 22.5 56t55.5 23t56 -23t23 -56t-23 -55.5t-56 -22.5t-55.5 22.5t-22.5 55.5zM70 61v20q0 21 18 41.5t49 24.5q37 5 69.5 -20.5t34.5 -70.5q2 -36 -12 -73.5t-34.5 -64.5t-42 -48t-37 -32t-16.5 -10l-32 33q78 76 66 123q-3 11 -19 17.5t-30 19t-14 40.5z
" />
    <glyph glyph-name="less" unicode="&#x3c;" horiz-adv-x="589" 
d="M549 88v-96l-502 219v67l502 216v-96l-384 -156z" />
    <glyph glyph-name="equal" unicode="=" horiz-adv-x="619" 
d="M566 396v-101h-517v101h517zM566 200v-100h-517v100h517z" />
    <glyph glyph-name="greater" unicode="&#x3e;" horiz-adv-x="589" 
d="M47 -8v96l384 154l-384 156v96l502 -216v-67z" />
    <glyph glyph-name="question" unicode="?" horiz-adv-x="471" 
d="M212 661q-65 0 -102 -66h-6l-51 108q69 56 172 59q77 2 134 -36t65 -114q4 -43 -8.5 -79t-34.5 -60t-48.5 -51.5t-50 -52.5t-38 -64t-12.5 -86h-85q-9 54 6.5 104t40 81.5t51.5 71.5t34 70q14 60 -13 87.5t-54 27.5zM115 70q0 33 22.5 56t55.5 23t56 -23t23 -56
t-23 -55.5t-56 -22.5t-55.5 22.5t-22.5 55.5z" />
    <glyph glyph-name="at" unicode="@" horiz-adv-x="809" 
d="M30 362q0 176 117 283t284 107q147 0 247 -86t100 -228q0 -113 -73 -200.5t-171 -87.5q-37 0 -63 21t-30 57q-53 -71 -130 -71h-4q-79 0 -113.5 75.5t-4.5 160.5q25 69 81 112.5t126 44.5q84 1 109 -60l11 49h105l-67 -269q-5 -18 1.5 -31.5t23.5 -16.5q48 -8 97 53.5
t49 165.5q0 114 -82.5 187.5t-207.5 73.5q-89 0 -168.5 -42t-130 -119.5t-50.5 -171.5q0 -147 101.5 -239t247.5 -92q92 0 162 31t127 109h55q-108 -190 -346 -190q-184 0 -293.5 105.5t-109.5 268.5zM288 307q-7 -78 47 -79q52 -1 84.5 54t40.5 125q4 34 -12.5 57.5
t-47.5 22.5q-44 -1 -74.5 -55.5t-37.5 -124.5z" />
    <glyph glyph-name="A" unicode="A" horiz-adv-x="599" 
d="M423 0l-50 144h-197l-53 -144h-103v6l269 741h20l270 -739v-8h-156zM277 418l-64 -174h125z" />
    <glyph glyph-name="B" unicode="B" horiz-adv-x="678" 
d="M516 392q61 -22 91.5 -72t30.5 -106v-9q0 -94 -72.5 -159t-207.5 -58q-18 1 -98.5 7t-109.5 5h-75v740h56q29 -1 107 5t97 7q135 7 202.5 -51.5t67.5 -149.5v-7q0 -49 -24 -93.5t-65 -58.5zM328 431q65 -2 95.5 27.5t30.5 80.5v3q0 53 -38.5 82.5t-115.5 22.5
q-60 -6 -78 -6v-210h106zM328 324h-106v-225q26 0 106 -6q47 -4 80.5 6t49.5 29.5t22.5 38.5t6.5 41v3q0 48 -34.5 81.5t-124.5 31.5z" />
    <glyph glyph-name="C" unicode="C" horiz-adv-x="690" 
d="M389 -12q-159 0 -254 106t-95 292v4q0 149 97.5 255.5t255.5 106.5q186 0 282 -155l-109 -61h-10q-26 62 -72 88.5t-93 26.5q-90 0 -144.5 -66t-54.5 -195q0 -139 50 -221t148 -80q116 2 170 123h10l106 -71q-38 -50 -78 -83t-79 -47t-67.5 -18.5t-62.5 -4.5z" />
    <glyph glyph-name="D" unicode="D" horiz-adv-x="744" 
d="M704 371v-4q0 -78 -21.5 -144.5t-66 -120t-121 -84t-177.5 -30.5q-14 0 -99.5 6t-112.5 6h-36v740h36q27 0 116 6t103 6q104 0 180 -30t118 -84.5t61.5 -120t19.5 -146.5zM292 645l-74 -6v-537l74 -7q61 -6 108.5 9t75.5 42.5t45.5 67.5t24 78t6.5 79v5q0 38 -6 74
t-23.5 75t-45.5 66.5t-75.5 43t-109.5 10.5z" />
    <glyph glyph-name="E" unicode="E" horiz-adv-x="573" 
d="M216 343v-243h335v-100h-481v740h458v-100h-312v-197h246v-100h-246z" />
    <glyph glyph-name="F" unicode="F" horiz-adv-x="550" 
d="M216 343v-343h-146v740h458v-100h-312v-197h246v-100h-246z" />
    <glyph glyph-name="G" unicode="G" horiz-adv-x="721" 
d="M389 -12q-159 0 -254 106t-95 292v4q0 96 41 178t122 133t186 51q75 2 153 -32.5t133 -122.5l-107 -61h-10q-26 62 -72.5 88.5t-94.5 26.5q-90 0 -144.5 -66t-54.5 -195q0 -140 48.5 -220t149.5 -81q93 0 142 73v121h-155v100h306v-247q-87 -92 -153.5 -120t-140.5 -28z
" />
    <glyph glyph-name="H" unicode="H" horiz-adv-x="755" 
d="M537 0v343h-319v-343h-148v740h148v-297h319v297h148v-740h-148z" />
    <glyph glyph-name="I" unicode="I" horiz-adv-x="308" 
d="M80 738h148v-738h-148v738z" />
    <glyph glyph-name="J" unicode="J" horiz-adv-x="317" 
d="M-40 -45l2 10q22 -2 39 -3.5t29.5 4t21.5 10t15 15.5t9.5 19t5.5 21.5t2.5 23.5t0.5 24v661h147v-694q0 -108 -69 -160t-175 -52z" />
    <glyph glyph-name="K" unicode="K" horiz-adv-x="640" 
d="M217 456l228 284h135v-6l-234 -291l279 -435v-8h-172l-209 344l-27 -33v-311h-142v740h142v-284z" />
    <glyph glyph-name="L" unicode="L" horiz-adv-x="573" 
d="M216 740v-640h335v-100h-481v740h146z" />
    <glyph glyph-name="M" unicode="M" horiz-adv-x="881" 
d="M682 404l-231 -404h-20l-231 404l-23 -404h-146l43 740h67l300 -537l300 537h67l43 -740h-146z" />
    <glyph glyph-name="N" unicode="N" horiz-adv-x="682" 
d="M175 0h-105v740h96l341 -465v465h105v-740h-104l-333 462v-462z" />
    <glyph glyph-name="O" unicode="O" horiz-adv-x="776" 
d="M388 651q-94 0 -145 -73.5t-51 -207.5t51 -207.5t145 -73.5t145 73.5t51 207.5t-51 207.5t-145 73.5zM388 752q86 0 155 -33.5t109.5 -88.5t62 -120t21.5 -133v-13q0 -54 -13 -106.5t-41 -101.5t-67.5 -86t-98 -59.5t-128.5 -22.5t-128.5 22.5t-98 59.5t-67.5 86
t-41 101.5t-13 106.5v13q0 68 21.5 133t62 120t109.5 88.5t155 33.5z" />
    <glyph glyph-name="P" unicode="P" horiz-adv-x="690" 
d="M222 292v-292h-147v740h92q29 -1 106.5 5t96.5 7q134 7 207 -62.5t73 -164.5v-22q0 -94 -72.5 -159t-207.5 -58q-23 1 -75.5 3t-72.5 3zM499 506v16q0 21 -8.5 42.5t-26.5 42.5t-53.5 32.5t-82.5 7.5q-80 -6 -106 -6v-244q26 0 106 -6q48 -4 83 6t53 29t26.5 39t8.5 41z
" />
    <glyph glyph-name="Q" unicode="Q" horiz-adv-x="779" 
d="M388 752q86 0 155 -33.5t109.5 -88.5t62 -120t21.5 -133v-13q0 -75 -26 -147t-75 -126q57 -65 132 6l29 -61l-2 -10q-24 -45 -72.5 -64.5t-96 -5.5t-69.5 57l-7 12q-72 -37 -161 -37q-70 0 -128.5 22.5t-98 59.5t-67.5 86t-41 101.5t-13 106.5v13q0 68 21.5 133t62 120
t109.5 88.5t155 33.5zM388 651q-94 0 -145 -73.5t-51 -207.5t51 -207.5t145 -73.5q69 0 111 35l-7 14q-14 27 -33 43t-51.5 14t-67.5 -36l-29 61l2 10q24 45 72 64.5t96 5.5t70 -57l11 -22q22 64 22 149q0 134 -51 207.5t-145 73.5z" />
    <glyph glyph-name="R" unicode="R" horiz-adv-x="737" 
d="M222 297v-297h-147v740h92q29 -1 106.5 5t96.5 7q135 7 207.5 -58t72.5 -159v-7q0 -43 -14.5 -84t-55 -78.5t-102.5 -50.5q21 -54 99 -146t149 -161v-8h-188q-164 167 -217 294q-14 0 -41.5 1.5t-57.5 1.5zM222 641v-239q6 0 100 -5q94 -4 135.5 33.5t41.5 95.5v6
q0 21 -8.5 41t-26.5 39t-53 29t-83 6q-80 -6 -106 -6z" />
    <glyph glyph-name="S" unicode="S" horiz-adv-x="579" 
d="M120 189h10q14 -38 46 -62.5t58.5 -31t49.5 -6.5q43 0 75 16.5t38 52.5q7 38 -26 78.5t-122 72.5q-70 25 -117.5 59.5t-66 69.5t-25.5 72t3 68q14 68 79 121t174 53q172 0 256 -141l-107 -61h-10q-25 51 -62.5 75.5t-73.5 25.5q-45 1 -74 -19t-36 -46q-24 -94 110 -143
q79 -29 132.5 -62.5t78.5 -67.5t33.5 -64t6.5 -64q-6 -85 -81 -141t-182 -56q-37 0 -64 3.5t-67 15.5t-76 42.5t-67 78.5z" />
    <glyph glyph-name="T" unicode="T" horiz-adv-x="587" 
d="M220 640h-198v100h543v-100h-198v-640h-147v640z" />
    <glyph glyph-name="U" unicode="U" horiz-adv-x="682" 
d="M356 95q149 0 149 183v462h107v-488q0 -48 -11.5 -90t-39.5 -83.5t-84.5 -66t-135.5 -24.5t-135.5 24.5t-84.5 66t-39.5 83.5t-11.5 90v488h147v-462q0 -99 35 -141t104 -42z" />
    <glyph glyph-name="V" unicode="V" horiz-adv-x="599" 
d="M322 324l154 416h103v-6l-274 -743h-20l-265 741v8h156z" />
    <glyph glyph-name="W" unicode="W" horiz-adv-x="940" 
d="M694 324l124 416h103v-6l-244 -743h-20l-189 587l-200 -587h-20l-228 741v8h156l109 -416l134 416h154z" />
    <glyph glyph-name="X" unicode="X" horiz-adv-x="599" 
d="M20 0v10l206 367l-191 352v11h156l118 -224l129 224h103v-9l-179 -313l217 -406v-12h-156l-144 274l-156 -274h-103z" />
    <glyph glyph-name="Y" unicode="Y" horiz-adv-x="599" 
d="M322 388l154 352h103v-6l-201 -442v-292h-147v290l-211 442v8h156z" />
    <glyph glyph-name="Z" unicode="Z" horiz-adv-x="599" 
d="M222 100h357v-100h-559v42l349 600h-336v96h528v-47z" />
    <glyph glyph-name="bracketleft" unicode="[" horiz-adv-x="352" 
d="M70 -250v1000h242v-77h-102v-846h102v-77h-242z" />
    <glyph glyph-name="backslash" unicode="\" horiz-adv-x="527" 
d="M134 752l384 -752h-99l-386 752h101z" />
    <glyph glyph-name="bracketright" unicode="]" horiz-adv-x="352" 
d="M282 750v-1000h-242v77h102v846h-102v77h242z" />
    <glyph glyph-name="asciicircum" unicode="^" horiz-adv-x="373" 
d="M135 738h112l108 -211h-87l-77 135l-77 -135h-87z" />
    <glyph glyph-name="underscore" unicode="_" horiz-adv-x="511" 
d="M511 -162h-511v94h511v-94z" />
    <glyph glyph-name="grave" unicode="`" horiz-adv-x="245" 
d="M47 806l97 1q42 0 42 -16l12 -223l-48 -11l-118 221q-5 9 0 18.5t15 9.5z" />
    <glyph glyph-name="a" unicode="a" horiz-adv-x="559" 
d="M137 341h-5l-77 102q81 65 187 69q102 4 163.5 -42.5t61.5 -144.5v-143q0 -42 10.5 -57.5t44.5 -15.5v-109h-112q-47 0 -68 13.5t-20 47.5q-22 -33 -53 -51.5t-88 -21.5q-57 -2 -102 32.5t-49 98.5q-6 96 70 152.5t222 46.5v6q0 44 -23.5 65t-60.5 21q-71 0 -101 -69z
M322 207v14q-33 4 -64.5 1t-55 -23t-25.5 -53q-1 -25 15 -39t39 -12q42 4 66.5 36.5t24.5 75.5z" />
    <glyph glyph-name="b" unicode="b" horiz-adv-x="603" 
d="M177 57l-49 -64l-58 5v750h152v-304q18 30 56 48t84 18q106 0 158.5 -74.5t52.5 -187.5q0 -103 -63.5 -182.5t-171.5 -79.5q-99 0 -161 71zM222 288v-79q0 -40 22.5 -76.5t68.5 -37.5q49 -1 74.5 38t26.5 115q-1 76 -27 117t-74 40q-46 -1 -68.5 -38.5t-22.5 -78.5z" />
    <glyph glyph-name="c" unicode="c" horiz-adv-x="496" 
d="M180 252q0 -49 14 -84t36 -50.5t41 -21.5t36 -6q68 0 123 78h5l58 -78q-82 -102 -210 -102q-69 0 -120 23t-79 62.5t-41 84t-13 94.5q0 107 72 183.5t198 76.5q103 0 171 -77l-58 -78h-5q-16 21 -38 34.5t-34 16t-18 2.5q-58 5 -97.5 -30.5t-40.5 -127.5z" />
    <glyph glyph-name="d" unicode="d" horiz-adv-x="603" 
d="M381 0v54q-18 -30 -54 -48t-81 -18q-106 0 -161 75t-55 187q0 49 14 95t40.5 83.5t70.5 60.5t99 23q86 0 127 -55v293h152v-750h-152zM381 210v79q0 41 -22.5 78t-68.5 38q-49 1 -74.5 -39t-26.5 -116q1 -76 26.5 -116t74.5 -39q46 1 68.5 37.5t22.5 77.5z" />
    <glyph glyph-name="e" unicode="e" horiz-adv-x="551" 
d="M294 90q80 -2 136 78h5l58 -78q-82 -102 -210 -102q-69 0 -120 23t-79 62.5t-41 84t-13 94.5q0 107 71 183.5t196 76.5q101 0 162.5 -67t61.5 -176q0 -15 -4.5 -33.5t-12.5 -18.5h-324q2 -37 16 -64t34 -39.5t35.5 -18t28.5 -5.5zM287 410q-13 0 -25.5 -3t-29.5 -12.5
t-29.5 -31.5t-17.5 -55h165q25 0 25 6q-2 31 -13 52t-27 29.5t-27 11.5t-21 3z" />
    <glyph glyph-name="f" unicode="f" horiz-adv-x="374" 
d="M324 656q-44 5 -76 -31.5t-17 -124.5h143v-100h-140q1 -21 1 -150v-250h-142v217q0 31 0.5 73t0.5 67t-1 43h-93v100h90q-2 47 8.5 87t23.5 63t37.5 44t35 27.5t30.5 16.5q34 18 104.5 18.5t128.5 -28.5l-73 -104h-5q-5 13 -19 20.5t-23.5 9.5t-13.5 2z" />
    <glyph glyph-name="g" unicode="g" horiz-adv-x="532" 
d="M444 616h5l73 -104q-42 -43 -94 -51q24 -19 42.5 -55.5t17.5 -74.5q-1 -67 -48 -118t-145 -66l-106 -10q0 -18 16 -24.5t65 -5.5q129 2 192 -54.5t51 -142.5q-11 -77 -79 -122.5t-182 -49.5q-104 -4 -167 34.5t-63 110.5q0 61 52 107h5l84 -71q-10 -6 -17 -18t-4 -22
q13 -47 112 -44q46 2 77.5 20t33.5 46q0 6 -1 14t-8 20.5t-19 22.5t-35.5 17.5t-54.5 7.5q-59 0 -99.5 19.5t-58.5 51t-25 58t-7 54.5l101 12q-43 17 -72 59.5t-28 93.5q1 81 63 131t150 50q15 0 25 -0.5t18 -2t12 -1.5q24 -1 43.5 5.5t31 16.5t20.5 25t12.5 25.5t7 22.5
t3.5 13zM192 325q0 -36 22 -61.5t59 -25.5t59.5 25.5t22.5 61.5q0 35 -24 61.5t-58 26.5t-57.5 -26.5t-23.5 -61.5z" />
    <glyph glyph-name="h" unicode="h" 
d="M211 750v-329h1q12 34 46.5 62.5t99.5 28.5q70 0 113 -42.5t43 -118.5v-351h-142v324q0 81 -59 81q-40 0 -64 -30t-30.5 -62.5t-6.5 -68.5v-244h-142v750h141z" />
    <glyph glyph-name="i" unicode="i" horiz-adv-x="285" 
d="M73 500v-500h142v500h-142zM61 673q0 34 24 58t58 24t58 -24t24 -58t-24 -58t-58 -24t-58 24t-24 58z" />
    <glyph glyph-name="j" unicode="j" horiz-adv-x="285" 
d="M49 -155q-3 0 -9.5 2t-16.5 9.5t-15 20.5h-5l-73 -104q50 -34 125 -34q20 0 43.5 7.5t51.5 25.5t46.5 60t18.5 101v567h-142v-354q0 -87 20 -209q7 -27 2.5 -45t-9 -27.5t-14.5 -14t-14 -5t-9 -0.5zM61 673q0 34 24 58t58 24t58 -24t24 -58t-24 -58t-58 -24t-58 24
t-24 58z" />
    <glyph glyph-name="k" unicode="k" horiz-adv-x="544" 
d="M70 0v750h142v-448l150 198h150v-8l-142 -175l159 -309v-8h-162l-95 213l-60 -87v-126h-142z" />
    <glyph glyph-name="l" unicode="l" horiz-adv-x="288" 
d="M73 0v750h142v-750h-142z" />
    <glyph glyph-name="m" unicode="m" horiz-adv-x="849" 
d="M211 500v-79h1q11 33 48 62t99 29q101 0 130 -102q13 39 51.5 70.5t100.5 31.5q63 0 101 -41.5t38 -119.5v-351h-142v324q0 81 -50 81q-27 0 -46.5 -16.5t-28.5 -43t-13 -51.5t-4 -50v-244h-142v324q0 81 -50 81q-27 0 -46.5 -16.5t-28.5 -43t-13 -51.5t-4 -50v-244h-142
v500h141z" />
    <glyph glyph-name="n" unicode="n" 
d="M211 500v-79h1q12 34 46.5 62.5t99.5 28.5q70 0 113 -42.5t43 -118.5v-351h-142v324q0 81 -59 81q-40 0 -64 -30t-30.5 -62.5t-6.5 -68.5v-244h-142v500h141z" />
    <glyph glyph-name="o" unicode="o" horiz-adv-x="574" 
d="M287 90q46 0 76.5 42.5t30.5 117.5t-30.5 117.5t-76.5 42.5t-76.5 -42.5t-30.5 -117.5t30.5 -117.5t76.5 -42.5zM287 -12q-116 0 -186.5 79t-70.5 183t70.5 183t186.5 79t186.5 -79t70.5 -183t-70.5 -183t-186.5 -79z" />
    <glyph glyph-name="p" unicode="p" horiz-adv-x="603" 
d="M222 500v-54q18 30 54 48t81 18q106 0 161 -75t55 -187q0 -49 -14 -95t-40.5 -83.5t-70.5 -60.5t-99 -23q-86 0 -127 55v-293h-152v750h152zM222 290v-79q0 -41 22.5 -78t68.5 -38q49 -1 74.5 39t26.5 116q-1 76 -26.5 116t-74.5 39q-46 -1 -68.5 -37.5t-22.5 -77.5z" />
    <glyph glyph-name="q" unicode="q" horiz-adv-x="603" 
d="M426 441l49 64l58 -5v-750h-152v304q-18 -29 -55 -47.5t-82 -18.5q-106 0 -160 75t-54 187q0 103 64 182.5t172 79.5q96 0 160 -71zM381 210v79q0 41 -22.5 78t-68.5 38q-49 1 -74.5 -39t-26.5 -116q1 -76 26.5 -116t74.5 -39q46 1 68.5 37.5t22.5 77.5z" />
    <glyph glyph-name="r" unicode="r" horiz-adv-x="477" 
d="M477 465l-97 -129h-5q-3 33 -20.5 51.5t-41.5 17.5q-29 -1 -50 -17.5t-31.5 -43t-15 -51.5t-4.5 -49v-244h-142v500h141v-79h1q12 34 47.5 62.5t100.5 28.5q73 0 117 -47z" />
    <glyph glyph-name="s" unicode="s" horiz-adv-x="439" 
d="M205 -12q-119 0 -191 51l86 113h5q10 -23 35 -40.5t44 -22.5q28 -8 49.5 -1t25.5 26q4 21 -12.5 39t-44.5 30t-59.5 30t-57.5 38.5t-38 57t-1 83.5q10 44 58.5 82t138.5 38q103 0 170 -53l-81 -107h-5q-30 49 -78 57q-26 5 -44 -2.5t-23 -19.5q-12 -28 10.5 -48.5
t62.5 -37t79.5 -38t62 -62.5t9.5 -99q-11 -48 -60.5 -81t-140.5 -33z" />
    <glyph glyph-name="t" unicode="t" horiz-adv-x="361" 
d="M94 540l83 109l58 -5v-144h126v-100h-126v-226q0 -50 23.5 -67t74.5 -17v-90h-116q-124 0 -124 109v291h-93v100h93z" />
    <glyph glyph-name="u" unicode="u" 
d="M372 0v79h-1q-12 -34 -46.5 -62.5t-99.5 -28.5q-70 0 -113 42.5t-43 118.5v351h142v-324q0 -81 59 -81q40 0 64 30t30.5 62.5t6.5 68.5v244h142v-500h-141z" />
    <glyph glyph-name="v" unicode="v" horiz-adv-x="493" 
d="M260 240l107 260h111v-8l-195 -492h-72l-196 492v8h149z" />
    <glyph glyph-name="w" unicode="w" horiz-adv-x="758" 
d="M546 240l86 260h111v-8l-173 -492h-72l-119 337l-114 -337h-72l-178 492v8h149l78 -260l82 260h148z" />
    <glyph glyph-name="x" unicode="x" horiz-adv-x="493" 
d="M232 159l-106 -159h-111v6l164 239l-150 249v6h147l88 -135l86 135h111v-6l-146 -217l163 -271v-6h-152z" />
    <glyph glyph-name="y" unicode="y" horiz-adv-x="493" 
d="M1 -228l97 114h5q13 -21 40 -17q17 2 33 36.5t23.5 68t5.5 36.5l-190 482v8h149l108 -308l95 308h111v-8l-189 -601q-20 -63 -55.5 -101.5t-76.5 -48t-81 -1.5t-75 32z" />
    <glyph glyph-name="z" unicode="z" horiz-adv-x="482" 
d="M226 99h236v-99h-442v44l224 356h-214v100h419v-44z" />
    <glyph glyph-name="braceleft" unicode="{" horiz-adv-x="403" 
d="M180 250q60 -13 79.5 -52.5t19.5 -147.5v-107q0 -62 18.5 -85t65.5 -25v-83q-92 0 -159 39.5t-67 122.5v213q0 52 -21.5 80t-71.5 45q50 17 71.5 45t21.5 80v213q0 83 67 122.5t159 39.5v-83q-47 -2 -65.5 -25t-18.5 -85v-107q0 -108 -19.5 -147.5t-79.5 -52.5z" />
    <glyph glyph-name="bar" unicode="|" horiz-adv-x="341" 
d="M120 -250v1000h101v-1000h-101z" />
    <glyph glyph-name="braceright" unicode="}" horiz-adv-x="399" 
d="M223 250q-60 13 -79.5 52.5t-19.5 147.5v107q0 62 -18.5 85t-65.5 25v83q92 0 159 -39.5t67 -122.5v-213q0 -52 21.5 -80t71.5 -45q-50 -17 -71.5 -45t-21.5 -80v-213q0 -83 -67 -122.5t-159 -39.5v83q47 2 65.5 25t18.5 85v107q0 108 19.5 147.5t79.5 52.5z" />
    <glyph glyph-name="asciitilde" unicode="~" horiz-adv-x="625" 
d="M85 174l-43 44q15 57 62 91.5t106 36.5q34 1 78.5 -13t82.5 -30t48 -18q80 -15 114 61l43 -44q-34 -120 -147 -122q-29 -1 -117 31t-114 32q-71 0 -113 -69z" />
    <glyph glyph-name="exclamdown" unicode="&#xa1;" horiz-adv-x="298" 
d="M203 -245v-1h-104q-8 0 -16.5 8t-7.5 15l56 525h40l56 -524q1 -7 -7.5 -15t-16.5 -8zM70 434q0 33 22.5 55.5t55.5 22.5t56 -22.5t23 -55.5t-23 -56t-56 -23t-55.5 23t-22.5 56z" />
    <glyph glyph-name="cent" unicode="&#xa2;" horiz-adv-x="496" 
d="M340 509l39 82h101l-56 -116q26 -16 47 -40l-58 -78h-5q-9 12 -28 29l-135 -278q33 -21 62 -21q66 0 123 81h5l58 -78q-82 -102 -205 -102q-50 0 -95 15l-48 -96h-99l70 141q-42 38 -64 92.5t-22 111.5q0 107 72 183.5t198 76.5q16 0 40 -3zM189 195l105 221
q-53 -2 -85 -41t-33 -123q0 -10 2 -20t6 -21.5t5 -15.5z" />
    <glyph glyph-name="sterling" unicode="&#xa3;" horiz-adv-x="531" 
d="M382 556h-10q-33 57 -84 55q-27 -1 -49 -21.5t-22 -64.5q0 -58 35 -141h166v-100h-151q26 -120 -54 -182v-2h288v-100h-471v96q70 37 89.5 78.5t3.5 109.5h-93v100h76q-34 85 -33 137q2 74 57.5 133t151.5 59q112 0 179 -77z" />
    <glyph glyph-name="currency" unicode="&#xa4;" horiz-adv-x="510" 
d="M360 424q-48 -35 -108.5 -35.5t-109.5 35.5l-50 -50l-35 35l50 50q-36 49 -36.5 110.5t34.5 109.5l-48 48l35 35l48 -48q50 37 112 37t110 -37l48 48l35 -35l-48 -48q37 -48 36.5 -109.5t-38.5 -110.5l50 -50l-35 -35zM156 569q0 -39 27.5 -66.5t66.5 -27.5t66.5 27.5
t27.5 66.5t-27.5 66.5t-66.5 27.5t-66.5 -27.5t-27.5 -66.5z" />
    <glyph glyph-name="yen" unicode="&#xa5;" horiz-adv-x="599" 
d="M538 183v-66h-162v-117h-147v117h-157v66h157v107h-157v67h125l-177 375v8h156l144 -352l156 352h103v-6l-173 -377h132v-67h-162v-107h162z" />
    <glyph glyph-name="brokenbar" unicode="&#xa6;" horiz-adv-x="334" 
d="M221 368h-101v382h101v-382zM221 -250h-101v382h101v-382z" />
    <glyph glyph-name="section" unicode="&#xa7;" horiz-adv-x="533" 
d="M310 160q50 26 50 83q0 68 -139 166q-23 -12 -35 -29t-13.5 -27t-1.5 -27q0 -68 139 -166zM152 477q-48 47 -54 109q-6 67 46 121.5t141 54.5q91 0 156 -43l-54 -105h-5q-44 47 -96 47q-20 0 -39.5 -13.5t-17.5 -44.5q2 -26 25.5 -48.5t102.5 -80.5q25 -19 39 -29
q40 -30 65 -61t32 -55t9.5 -47.5t-2.5 -38.5q-13 -92 -121 -151q48 -47 54 -108q6 -67 -46 -122t-141 -55q-92 0 -156 43l54 105h5q44 -47 96 -47q20 0 39.5 13.5t17.5 44.5q-2 26 -25.5 48.5t-102.5 80.5q-25 19 -39 29q-17 12 -31 25t-24 24t-18 24t-13 22t-8.5 21.5
t-5.5 19t-3 18t-1 15.5v14v11q0 38 29 85.5t92 73.5z" />
    <glyph glyph-name="dieresis" unicode="&#xa8;" horiz-adv-x="522" 
d="M49 635q0 33 22.5 56t55.5 23t56 -23t23 -56t-23 -55.5t-56 -22.5t-55.5 22.5t-22.5 55.5zM317 635q0 33 22.5 56t55.5 23t56 -23t23 -56t-23 -55.5t-56 -22.5t-55.5 22.5t-22.5 55.5z" />
    <glyph glyph-name="copyright" unicode="&#xa9;" horiz-adv-x="781" 
d="M390 684q146 0 251.5 -105t105.5 -247q0 -98 -51 -178.5t-133 -124.5t-174 -44q-152 0 -255 103.5t-103 243.5q0 76 31.5 143t82.5 112t115 71t130 26zM389 623q-124 0 -209 -85.5t-85 -205.5q0 -127 87.5 -208t206.5 -81q128 0 212 87.5t84 201.5q0 125 -90 208t-206 83
zM389 125q-91 0 -145.5 57t-54.5 158v2q0 77 55.5 136t145.5 59q105 0 159 -85l-63 -33h-6q-25 59 -92 59q-46 0 -77.5 -34t-31.5 -102q0 -74 29 -117t82 -41q65 2 95 64h6l61 -39q-67 -84 -163 -84z" />
    <glyph glyph-name="ordfeminine" unicode="&#xaa;" horiz-adv-x="415" 
d="M105 641h-4l-54 73q61 49 141 49q70 3 116.5 -31t46.5 -103v-101q0 -30 7 -41.5t31 -11.5v-81h-80q-35 0 -51.5 9.5t-15.5 32.5q-35 -48 -101 -51q-40 -2 -75 25.5t-37 72.5q-4 67 52 107.5t161 33.5v5q0 61 -60 61q-56 0 -77 -49zM242 546v7q-100 13 -104 -51
q-1 -18 11 -28t28 -8q31 2 48 25.5t17 54.5z" />
    <glyph glyph-name="guillemotleft" unicode="&#xab;" horiz-adv-x="589" 
d="M269 423l-83 -181l83 -198h-74l-155 198l155 181h74zM519 423l-83 -181l83 -198h-74l-155 198l155 181h74z" />
    <glyph glyph-name="logicalnot" unicode="&#xac;" horiz-adv-x="546" 
d="M414 191v242h-414v84h502v-326h-88z" />
    <glyph glyph-name="uni00AD" unicode="&#xad;" horiz-adv-x="608" 
d="M59 292h490v-94h-490v94z" />
    <glyph glyph-name="registered" unicode="&#xae;" horiz-adv-x="778" 
d="M390 684q146 0 251.5 -105t105.5 -247q0 -98 -51 -178.5t-133 -124.5t-174 -44q-152 0 -255 103.5t-103 243.5q0 76 31.5 143t82.5 112t115 71t130 26zM389 623q-124 0 -209 -85.5t-85 -205.5q0 -127 87.5 -208t206.5 -81q128 0 212 87.5t84 201.5q0 125 -90 208t-206 83
zM324 290v-145h-87v371h59q11 0 26 1t35 2.5t32 2.5q69 3 107 -31t38 -82v-2q0 -34 -22.5 -65.5t-68.5 -40.5q16 -40 129 -153v-3h-110q-81 82 -108 143q-6 0 -10 1t-20 1zM324 464v-121q8 0 19 -0.5t21 -0.5q25 -1 42 5.5t25 18t11 21.5t3 19v2q0 8 -3 17.5t-10 20.5
t-23.5 17.5t-40.5 4.5q-42 -4 -44 -4z" />
    <glyph glyph-name="macron" unicode="&#xaf;" horiz-adv-x="510" 
d="M510 553h-510v94h510v-94z" />
    <glyph glyph-name="degree" unicode="&#xb0;" horiz-adv-x="385" 
d="M37 674q0 64 46 110.5t108 46.5q66 0 111.5 -46t45.5 -111q0 -64 -45.5 -109t-111.5 -45q-63 0 -108.5 45.5t-45.5 108.5zM118 674q0 -31 21.5 -53t51.5 -22q33 0 54.5 21.5t21.5 53.5t-21.5 54t-54.5 22q-30 0 -51.5 -22.5t-21.5 -53.5z" />
    <glyph glyph-name="plusminus" unicode="&#xb1;" horiz-adv-x="589" 
d="M257 480v198h94v-198h198v-94h-198v-198h-94v198h-198v94h198zM549 0h-490v94h490v-94z" />
    <glyph glyph-name="twosuperior" unicode="&#xb2;" horiz-adv-x="310" 
d="M136 850q55 2 94 -32.5t39 -90.5v-1q0 -33 -17 -67t-61 -68.5t-109 -51.5l5 -3q157 0 186 14l6 -6v-79h-250l-7 88q76 41 112.5 77.5t36.5 91.5q0 22 -6.5 36.5t-16 20t-15.5 7t-12 1.5t-14 -1.5t-22.5 -12t-20.5 -28.5h-5l-44 39q44 63 121 66z" />
    <glyph glyph-name="threesuperior" unicode="&#xb3;" horiz-adv-x="382" 
d="M128 635l-1 59q92 -6 92 52q0 15 -12 28t-32 13q-48 0 -67 -42h-5l-44 39q41 64 126 66q61 1 97 -27t36 -69q0 -30 -21 -54t-64 -30q54 -2 80.5 -33t25.5 -67q-2 -49 -41.5 -83t-118.5 -34q-36 0 -75 16t-62 55l43 44h6q32 -50 91 -50q22 0 40 14t19 35v1q0 11 -2 18.5
t-10.5 22t-34.5 21.5t-66 5z" />
    <glyph glyph-name="acute" unicode="&#xb4;" horiz-adv-x="548" 
d="M270 807l97 -1q10 0 15 -9.5t0 -18.5l-118 -221l-48 11l12 223q0 16 42 16z" />
    <glyph glyph-name="mu" unicode="&#xb5;" 
d="M69 387v113h142v-324q0 -81 59 -81q40 0 64 30t30.5 62.5t6.5 68.5v244h142v-500h-141v79h-1q-12 -34 -46.5 -62.5t-99.5 -28.5q-20 0 -42 5q-7 -106 -26 -243h-142q54 235 54 637z" />
    <glyph glyph-name="paragraph" unicode="&#xb6;" horiz-adv-x="546" 
d="M278 -58v360q-105 0 -172 57.5t-67 152.5q0 48 14.5 88.5t47 76.5t93.5 56t146 20q87 0 119 -6v-805h-50v766h-83v-766h-48z" />
    <glyph glyph-name="periodcentered" unicode="&#xb7;" horiz-adv-x="368" 
d="M106 237q0 33 22.5 56t55.5 23t56 -23t23 -56t-23 -55.5t-56 -22.5t-55.5 22.5t-22.5 55.5z" />
    <glyph glyph-name="cedilla" unicode="&#xb8;" horiz-adv-x="400" 
d="M263 0l-10 -18q-13 -23 8 -58q68 -117 -121 -173l-18 43l12 6t11.5 6t10 5.5t8 6t5.5 7t2.5 8t-1.5 9.5q-3 10 -12 29t-10.5 27.5t3.5 26t21 38.5l32 37h59z" />
    <glyph glyph-name="onesuperior" unicode="&#xb9;" horiz-adv-x="253" 
d="M178 836v-371h-92v294q-28 -10 -57 -18l-9 34q127 48 145 67z" />
    <glyph glyph-name="ordmasculine" unicode="&#xba;" horiz-adv-x="355" 
d="M176 458q-64 0 -105 47t-41 135v21q0 88 41 136.5t105 48.5t105 -48.5t41 -136.5v-21q0 -88 -41 -135t-105 -47zM176 783q-14 0 -23 -6.5t-17 -35t-8 -80.5v-21q0 -50 8 -78t17 -34.5t23 -6.5t23 6.5t17 34.5t8 78v21q0 52 -8 80.5t-17 35t-23 6.5z" />
    <glyph glyph-name="guillemotright" unicode="&#xbb;" horiz-adv-x="589" 
d="M403 242l-83 181h74l155 -181l-155 -198h-74zM153 242l-83 181h74l155 -181l-155 -198h-74z" />
    <glyph glyph-name="onequarter" unicode="&#xbc;" horiz-adv-x="729" 
d="M650 103v-103h-91v103h-166v34l173 239h84v-216h49v-57h-49zM559 160v118l-3 4l-93 -120l1 -2h95zM205 751v-371h-92v294q-28 -10 -57 -18l-9 34q127 48 145 67zM112 -9l392 771h103l-394 -771h-101z" />
    <glyph glyph-name="onehalf" unicode="&#xbd;" horiz-adv-x="729" 
d="M560 385q55 2 94 -32.5t39 -90.5v-1q0 -33 -17 -67t-61 -68.5t-109 -51.5l5 -3q157 0 186 14l6 -6v-79h-250l-7 88q76 41 112.5 77.5t36.5 91.5q0 22 -6.5 36.5t-16 20t-15.5 7t-12 1.5t-14 -1.5t-22.5 -12t-20.5 -28.5h-5l-44 39q44 63 121 66zM205 751v-371h-92v294
q-28 -10 -57 -18l-9 34q127 48 145 67zM107 -9l392 771h103l-394 -771h-101z" />
    <glyph glyph-name="threequarters" unicode="&#xbe;" horiz-adv-x="731" 
d="M652 103v-103h-91v103h-166v34l173 239h84v-216h49v-57h-49zM561 160v118l-3 4l-93 -120l1 -2h95zM101 543l-1 59q92 -6 92 52q0 15 -12 28t-32 13q-48 0 -67 -42h-5l-44 39q41 64 126 66q61 1 97 -27t36 -69q0 -30 -21 -54t-64 -30q54 -2 80.5 -33t25.5 -67
q-2 -49 -41.5 -83t-118.5 -34q-36 0 -75 16t-62 55l43 44h6q32 -50 91 -50q22 0 40 14t19 35v1q0 11 -2 18.5t-10.5 22t-34.5 21.5t-66 5zM112 -9l392 771h103l-394 -771h-101z" />
    <glyph glyph-name="questiondown" unicode="&#xbf;" horiz-adv-x="480" 
d="M284 -154q65 0 102 66h6l51 -108q-69 -56 -172 -59q-77 -2 -134 36t-65 114q-5 51 13 91.5t47.5 69.5t59 59t50 74t18.5 99h85q9 -54 -6 -104t-38.5 -81.5t-50 -71.5t-33.5 -70q-14 -60 13 -87.5t54 -27.5zM381 437q0 -33 -22.5 -56t-55.5 -23t-56 23t-23 56t23 55.5
t56 22.5t55.5 -22.5t22.5 -55.5z" />
    <glyph glyph-name="Agrave" unicode="&#xc0;" horiz-adv-x="599" 
d="M423 0l-50 144h-197l-53 -144h-103v6l269 741h20l270 -739v-8h-156zM277 418l-64 -174h125zM235 1057l97 1q42 0 42 -16l12 -223l-48 -11l-118 221q-5 9 0 18.5t15 9.5z" />
    <glyph glyph-name="Aacute" unicode="&#xc1;" horiz-adv-x="599" 
d="M423 0l-50 144h-197l-53 -144h-103v6l269 741h20l270 -739v-8h-156zM277 418l-64 -174h125zM267 1058l97 -1q10 0 15 -9.5t0 -18.5l-118 -221l-48 11l12 223q0 16 42 16z" />
    <glyph glyph-name="Acircumflex" unicode="&#xc2;" horiz-adv-x="599" 
d="M423 0l-50 144h-197l-53 -144h-103v6l269 741h20l270 -739v-8h-156zM277 418l-64 -174h125zM299 893l-102 -85h-47l82 181h134l82 -181h-47z" />
    <glyph glyph-name="Atilde" unicode="&#xc3;" horiz-adv-x="599" 
d="M423 0l-50 144h-197l-53 -144h-103v6l269 741h20l270 -739v-8h-156zM277 418l-64 -174h125zM222 757h-52q-3 76 33.5 127t92.5 51q28 0 71 -24.5t69 -24.5q27 0 42 10.5t29 38.5h55q-2 -80 -39 -129t-91 -49q-40 0 -85 22.5t-65 22.5q-51 0 -60 -45z" />
    <glyph glyph-name="Adieresis" unicode="&#xc4;" horiz-adv-x="599" 
d="M423 0l-50 144h-197l-53 -144h-103v6l269 741h20l270 -739v-8h-156zM277 418l-64 -174h125zM87 886q0 33 22.5 56t55.5 23t56 -23t23 -56t-23 -55.5t-56 -22.5t-55.5 22.5t-22.5 55.5zM355 886q0 33 22.5 56t55.5 23t56 -23t23 -56t-23 -55.5t-56 -22.5t-55.5 22.5
t-22.5 55.5z" />
    <glyph glyph-name="Aring" unicode="&#xc5;" horiz-adv-x="599" 
d="M423 0l-50 144h-197l-53 -144h-103v6l269 741h20l270 -739v-8h-156zM277 418l-64 -174h125zM171 935q-1 53 37 90.5t92 37.5t90.5 -37t37.5 -91q0 -53 -38 -90t-92 -37q-52 0 -89.5 37t-37.5 90zM240 935q-1 -25 16.5 -43t41.5 -18q26 0 43 18t18 43q0 25 -17.5 42.5
t-41.5 17.5q-26 0 -43.5 -17.5t-16.5 -42.5z" />
    <glyph glyph-name="AE" unicode="&#xc6;" horiz-adv-x="927" 
d="M426 542l-174 -298h174v298zM426 0v144h-224l-79 -144h-103v6l412 734h452v-100h-312v-197h246v-100h-246v-243h335v-100h-481z" />
    <glyph glyph-name="Ccedilla" unicode="&#xc7;" horiz-adv-x="690" 
d="M389 -12q-159 0 -254 106t-95 292v4q0 149 97.5 255.5t255.5 106.5q186 0 282 -155l-109 -61h-10q-26 62 -72 88.5t-93 26.5q-90 0 -144.5 -66t-54.5 -195q0 -139 50 -221t148 -80q116 2 170 123h10l106 -71q-38 -50 -78 -83t-79 -47t-67.5 -18.5t-62.5 -4.5zM390 0
l-10 -18q-13 -23 8 -58q68 -117 -121 -173l-18 43l12 6t11.5 6t10 5.5t8 6t5.5 7t2.5 8t-1.5 9.5q-3 10 -12 29t-10.5 27.5t3.5 26t21 38.5l32 37h59z" />
    <glyph glyph-name="Egrave" unicode="&#xc8;" horiz-adv-x="573" 
d="M216 343v-243h335v-100h-481v740h458v-100h-312v-197h246v-100h-246zM222 1057l97 1q42 0 42 -16l12 -223l-48 -11l-118 221q-5 9 0 18.5t15 9.5z" />
    <glyph glyph-name="Eacute" unicode="&#xc9;" horiz-adv-x="573" 
d="M216 343v-243h335v-100h-481v740h458v-100h-312v-197h246v-100h-246zM254 1058l97 -1q10 0 15 -9.5t0 -18.5l-118 -221l-48 11l12 223q0 16 42 16z" />
    <glyph glyph-name="Ecircumflex" unicode="&#xca;" horiz-adv-x="573" 
d="M216 343v-243h335v-100h-481v740h458v-100h-312v-197h246v-100h-246zM286 893l-102 -85h-47l82 181h134l82 -181h-47z" />
    <glyph glyph-name="Edieresis" unicode="&#xcb;" horiz-adv-x="573" 
d="M216 343v-243h335v-100h-481v740h458v-100h-312v-197h246v-100h-246zM74 886q0 33 22.5 56t55.5 23t56 -23t23 -56t-23 -55.5t-56 -22.5t-55.5 22.5t-22.5 55.5zM342 886q0 33 22.5 56t55.5 23t56 -23t23 -56t-23 -55.5t-56 -22.5t-55.5 22.5t-22.5 55.5z" />
    <glyph glyph-name="Igrave" unicode="&#xcc;" horiz-adv-x="308" 
d="M80 738h148v-738h-148v738zM89 1057l97 1q42 0 42 -16l12 -223l-48 -11l-118 221q-5 9 0 18.5t15 9.5z" />
    <glyph glyph-name="Iacute" unicode="&#xcd;" horiz-adv-x="308" 
d="M80 738h148v-738h-148v738zM122 1058l97 -1q10 0 15 -9.5t0 -18.5l-118 -221l-48 11l12 223q0 16 42 16z" />
    <glyph glyph-name="Icircumflex" unicode="&#xce;" horiz-adv-x="308" 
d="M80 738h148v-738h-148v738zM154 893l-102 -85h-47l82 181h134l82 -181h-47z" />
    <glyph glyph-name="Idieresis" unicode="&#xcf;" horiz-adv-x="308" 
d="M80 738h148v-738h-148v738zM-58 886q0 33 22.5 56t55.5 23t56 -23t23 -56t-23 -55.5t-56 -22.5t-55.5 22.5t-22.5 55.5zM210 886q0 33 22.5 56t55.5 23t56 -23t23 -56t-23 -55.5t-56 -22.5t-55.5 22.5t-22.5 55.5z" />
    <glyph glyph-name="Eth" unicode="&#xd0;" horiz-adv-x="744" 
d="M5 417h70v323h31q27 0 116 6t103 6q104 0 180 -30t118 -84.5t61.5 -120t19.5 -146.5v-4q0 -78 -21.5 -144.5t-66 -120t-121 -84t-177.5 -30.5q-14 0 -99.5 6t-112.5 6h-31v357h-70v60zM292 645l-75 -6v-222h74v-60h-74v-255l75 -7q61 -6 108.5 9t75.5 42.5t45.5 67.5
t24 78t6.5 79v5q0 38 -6 74t-23.5 75t-45.5 66.5t-75.5 43t-109.5 10.5z" />
    <glyph glyph-name="Ntilde" unicode="&#xd1;" horiz-adv-x="687" 
d="M175 0h-105v740h96l341 -465v465h105v-740h-104l-333 462v-462zM211 768h-52q-3 76 33.5 127t92.5 51q29 0 72 -24.5t68 -24.5q27 0 42 10.5t29 38.5h55q-2 -80 -39 -129t-91 -49q-40 0 -85 22.5t-65 22.5q-51 0 -60 -45z" />
    <glyph glyph-name="Ograve" unicode="&#xd2;" horiz-adv-x="776" 
d="M388 651q94 0 145 -73.5t51 -207.5t-51 -207.5t-145 -73.5t-145 73.5t-51 207.5t51 207.5t145 73.5zM388 752q-86 0 -155 -33.5t-109.5 -88.5t-62 -120t-21.5 -133v-13q0 -54 13 -106.5t41 -101.5t67.5 -86t98 -59.5t128.5 -22.5t128.5 22.5t98 59.5t67.5 86t41 101.5
t13 106.5v13q0 68 -21.5 133t-62 120t-109.5 88.5t-155 33.5zM323 1057l97 1q42 0 42 -16l12 -223l-48 -11l-118 221q-5 9 0 18.5t15 9.5z" />
    <glyph glyph-name="Oacute" unicode="&#xd3;" horiz-adv-x="776" 
d="M388 651q-94 0 -145 -73.5t-51 -207.5t51 -207.5t145 -73.5t145 73.5t51 207.5t-51 207.5t-145 73.5zM388 752q86 0 155 -33.5t109.5 -88.5t62 -120t21.5 -133v-13q0 -54 -13 -106.5t-41 -101.5t-67.5 -86t-98 -59.5t-128.5 -22.5t-128.5 22.5t-98 59.5t-67.5 86
t-41 101.5t-13 106.5v13q0 68 21.5 133t62 120t109.5 88.5t155 33.5zM355 1058l97 -1q10 0 15 -9.5t0 -18.5l-118 -221l-48 11l12 223q0 16 42 16z" />
    <glyph glyph-name="Ocircumflex" unicode="&#xd4;" horiz-adv-x="776" 
d="M388 651q94 0 145 -73.5t51 -207.5t-51 -207.5t-145 -73.5t-145 73.5t-51 207.5t51 207.5t145 73.5zM388 752q-86 0 -155 -33.5t-109.5 -88.5t-62 -120t-21.5 -133v-13q0 -54 13 -106.5t41 -101.5t67.5 -86t98 -59.5t128.5 -22.5t128.5 22.5t98 59.5t67.5 86t41 101.5
t13 106.5v13q0 68 -21.5 133t-62 120t-109.5 88.5t-155 33.5zM388 893l-102 -85h-47l82 181h134l82 -181h-47z" />
    <glyph glyph-name="Otilde" unicode="&#xd5;" horiz-adv-x="776" 
d="M388 651q94 0 145 -73.5t51 -207.5t-51 -207.5t-145 -73.5t-145 73.5t-51 207.5t51 207.5t145 73.5zM388 752q-86 0 -155 -33.5t-109.5 -88.5t-62 -120t-21.5 -133v-13q0 -54 13 -106.5t41 -101.5t67.5 -86t98 -59.5t128.5 -22.5t128.5 22.5t98 59.5t67.5 86t41 101.5
t13 106.5v13q0 68 -21.5 133t-62 120t-109.5 88.5t-155 33.5zM235 781h-52q-3 76 33.5 127t92.5 51q29 0 72 -24.5t68 -24.5q27 0 42 10.5t29 38.5h55q-2 -80 -39 -129t-91 -49q-40 0 -85 22.5t-65 22.5q-51 0 -60 -45z" />
    <glyph glyph-name="Odieresis" unicode="&#xd6;" horiz-adv-x="776" 
d="M388 651q94 0 145 -73.5t51 -207.5t-51 -207.5t-145 -73.5t-145 73.5t-51 207.5t51 207.5t145 73.5zM388 752q-86 0 -155 -33.5t-109.5 -88.5t-62 -120t-21.5 -133v-13q0 -54 13 -106.5t41 -101.5t67.5 -86t98 -59.5t128.5 -22.5t128.5 22.5t98 59.5t67.5 86t41 101.5
t13 106.5v13q0 68 -21.5 133t-62 120t-109.5 88.5t-155 33.5zM175 886q0 33 22.5 56t55.5 23t56 -23t23 -56t-23 -55.5t-56 -22.5t-55.5 22.5t-22.5 55.5zM443 886q0 33 22.5 56t55.5 23t56 -23t23 -56t-23 -55.5t-56 -22.5t-55.5 22.5t-22.5 55.5z" />
    <glyph glyph-name="multiply" unicode="&#xd7;" horiz-adv-x="578" 
d="M238 245l-140 140l66 66l140 -140l140 140l66 -66l-140 -140l140 -140l-66 -66l-140 140l-140 -140l-66 66z" />
    <glyph glyph-name="Oslash" unicode="&#xd8;" horiz-adv-x="776" 
d="M336 96q22 -7 52 -7q94 0 145 73.5t51 207.5q0 176 -85 244zM305 -3l-29 -92h-63l34 110q-68 29 -116 87t-69.5 124.5t-21.5 137.5v13q0 68 21.5 133t62 120t109.5 88.5t155 33.5q45 0 84 -9l28 88h67l-34 -109q99 -44 151 -140.5t52 -204.5v-13q0 -54 -13 -106.5
t-41 -101.5t-67.5 -86t-98 -59.5t-128.5 -22.5q-38 0 -83 9zM280 123l162 520q-27 8 -54 8q-94 0 -145 -73.5t-51 -207.5q0 -179 88 -247z" />
    <glyph glyph-name="Ugrave" unicode="&#xd9;" horiz-adv-x="682" 
d="M356 95q-69 0 -104 42t-35 141v462h-147v-488q0 -48 11.5 -90t39.5 -83.5t84.5 -66t135.5 -24.5t135.5 24.5t84.5 66t39.5 83.5t11.5 90v488h-107v-462q0 -183 -149 -183zM276 1057l97 1q42 0 42 -16l12 -223l-48 -11l-118 221q-5 9 0 18.5t15 9.5z" />
    <glyph glyph-name="Uacute" unicode="&#xda;" horiz-adv-x="682" 
d="M356 95q149 0 149 183v462h107v-488q0 -48 -11.5 -90t-39.5 -83.5t-84.5 -66t-135.5 -24.5t-135.5 24.5t-84.5 66t-39.5 83.5t-11.5 90v488h147v-462q0 -99 35 -141t104 -42zM308 1058l97 -1q10 0 15 -9.5t0 -18.5l-118 -221l-48 11l12 223q0 16 42 16z" />
    <glyph glyph-name="Ucircumflex" unicode="&#xdb;" horiz-adv-x="682" 
d="M356 95q-69 0 -104 42t-35 141v462h-147v-488q0 -48 11.5 -90t39.5 -83.5t84.5 -66t135.5 -24.5t135.5 24.5t84.5 66t39.5 83.5t11.5 90v488h-107v-462q0 -183 -149 -183zM341 893l-102 -85h-47l82 181h134l82 -181h-47z" />
    <glyph glyph-name="Udieresis" unicode="&#xdc;" horiz-adv-x="682" 
d="M356 95q-69 0 -104 42t-35 141v462h-147v-488q0 -48 11.5 -90t39.5 -83.5t84.5 -66t135.5 -24.5t135.5 24.5t84.5 66t39.5 83.5t11.5 90v488h-107v-462q0 -183 -149 -183zM128 886q0 33 22.5 56t55.5 23t56 -23t23 -56t-23 -55.5t-56 -22.5t-55.5 22.5t-22.5 55.5z
M396 886q0 33 22.5 56t55.5 23t56 -23t23 -56t-23 -55.5t-56 -22.5t-55.5 22.5t-22.5 55.5z" />
    <glyph glyph-name="Yacute" unicode="&#xdd;" horiz-adv-x="635" 
d="M322 388l154 352h103v-6l-201 -442v-292h-147v290l-211 442v8h156zM285 1058l97 -1q10 0 15 -9.5t0 -18.5l-118 -221l-48 11l12 223q0 16 42 16z" />
    <glyph glyph-name="Thorn" unicode="&#xde;" horiz-adv-x="582" 
d="M75 750h146v-94q151 -1 236 -71t85 -181v-21q0 -111 -85 -181t-236 -71v-131h-146v750zM396 390v7q0 46 -18.5 78.5t-49 47.5t-55.5 21t-52 7v-314q26 0 51.5 6t56 21t49 47.5t18.5 78.5z" />
    <glyph glyph-name="germandbls" unicode="&#xdf;" horiz-adv-x="665" 
d="M304 356v99h5q130 0 130 97q0 56 -51 81q-52 26 -103 -2q-67 -39 -68 -144v-487l-147 -32v517q0 115 76 187t178 80q110 9 182.5 -42t83.5 -125q9 -61 -22 -110.5t-102 -62.5q169 -31 169 -206v-3q0 -43 -14 -81.5t-44 -71t-84.5 -49t-126.5 -8.5q-13 1 -34 6.5t-36 10.5
l-14 5l2 102q43 -19 67 -21q64 -6 99.5 26.5t36.5 79.5v1q0 16 -5 36t-20.5 50t-54.5 49t-96 18h-7z" />
    <glyph glyph-name="agrave" unicode="&#xe0;" horiz-adv-x="559" 
d="M137 341h-5l-77 102q81 65 187 69q102 4 163.5 -42.5t61.5 -144.5v-143q0 -42 10.5 -57.5t44.5 -15.5v-109h-112q-47 0 -68 13.5t-20 47.5q-22 -33 -53 -51.5t-88 -21.5q-57 -2 -102 32.5t-49 98.5q-6 96 70 152.5t222 46.5v6q0 44 -23.5 65t-60.5 21q-71 0 -101 -69z
M322 207v14q-33 4 -64.5 1t-55 -23t-25.5 -53q-1 -25 15 -39t39 -12q42 4 66.5 36.5t24.5 75.5zM216 806l97 1q42 0 42 -16l12 -223l-48 -11l-118 221q-5 9 0 18.5t15 9.5z" />
    <glyph glyph-name="aacute" unicode="&#xe1;" horiz-adv-x="559" 
d="M137 341h-5l-77 102q81 65 187 69q102 4 163.5 -42.5t61.5 -144.5v-143q0 -42 10.5 -57.5t44.5 -15.5v-109h-112q-47 0 -68 13.5t-20 47.5q-22 -33 -53 -51.5t-88 -21.5q-57 -2 -102 32.5t-49 98.5q-6 96 70 152.5t222 46.5v6q0 44 -23.5 65t-60.5 21q-71 0 -101 -69z
M322 207v14q-33 4 -64.5 1t-55 -23t-25.5 -53q-1 -25 15 -39t39 -12q42 4 66.5 36.5t24.5 75.5zM256 807l97 -1q10 0 15 -9.5t0 -18.5l-118 -221l-48 11l12 223q0 16 42 16z" />
    <glyph glyph-name="acircumflex" unicode="&#xe2;" horiz-adv-x="559" 
d="M137 341h-5l-77 102q81 65 187 69q102 4 163.5 -42.5t61.5 -144.5v-143q0 -42 10.5 -57.5t44.5 -15.5v-109h-112q-47 0 -68 13.5t-20 47.5q-22 -33 -53 -51.5t-88 -21.5q-57 -2 -102 32.5t-49 98.5q-6 96 70 152.5t222 46.5v6q0 44 -23.5 65t-60.5 21q-71 0 -101 -69z
M322 207v14q-33 4 -64.5 1t-55 -23t-25.5 -53q-1 -25 15 -39t39 -12q42 4 66.5 36.5t24.5 75.5zM279 642l-102 -85h-47l82 181h134l82 -181h-47z" />
    <glyph glyph-name="atilde" unicode="&#xe3;" horiz-adv-x="542" 
d="M137 341h-5l-77 102q81 65 187 69q102 4 163.5 -42.5t61.5 -144.5v-143q0 -42 10.5 -57.5t44.5 -15.5v-109h-112q-47 0 -68 13.5t-20 47.5q-22 -33 -53 -51.5t-88 -21.5q-57 -2 -102 32.5t-49 98.5q-6 96 70 152.5t222 46.5v6q0 44 -23.5 65t-60.5 21q-71 0 -101 -69z
M322 207v14q-33 4 -64.5 1t-55 -23t-25.5 -53q-1 -25 15 -39t39 -12q42 4 66.5 36.5t24.5 75.5zM114 544h-52q-3 76 33.5 127t92.5 51q28 0 71 -24.5t69 -24.5q27 0 42 10.5t29 38.5h55q-2 -80 -39 -129t-91 -49q-40 0 -85 22.5t-65 22.5q-51 0 -60 -45z" />
    <glyph glyph-name="adieresis" unicode="&#xe4;" horiz-adv-x="559" 
d="M137 341h-5l-77 102q81 65 187 69q102 4 163.5 -42.5t61.5 -144.5v-143q0 -42 10.5 -57.5t44.5 -15.5v-109h-112q-47 0 -68 13.5t-20 47.5q-22 -33 -53 -51.5t-88 -21.5q-57 -2 -102 32.5t-49 98.5q-6 96 70 152.5t222 46.5v6q0 44 -23.5 65t-60.5 21q-71 0 -101 -69z
M322 207v14q-33 4 -64.5 1t-55 -23t-25.5 -53q-1 -25 15 -39t39 -12q42 4 66.5 36.5t24.5 75.5zM67 635q0 33 22.5 56t55.5 23t56 -23t23 -56t-23 -55.5t-56 -22.5t-55.5 22.5t-22.5 55.5zM335 635q0 33 22.5 56t55.5 23t56 -23t23 -56t-23 -55.5t-56 -22.5t-55.5 22.5
t-22.5 55.5z" />
    <glyph glyph-name="aring" unicode="&#xe5;" horiz-adv-x="559" 
d="M137 341h-5l-77 102q81 65 187 69q102 4 163.5 -42.5t61.5 -144.5v-143q0 -42 10.5 -57.5t44.5 -15.5v-109h-112q-47 0 -68 13.5t-20 47.5q-22 -33 -53 -51.5t-88 -21.5q-57 -2 -102 32.5t-49 98.5q-6 96 70 152.5t222 46.5v6q0 44 -23.5 65t-60.5 21q-71 0 -101 -69z
M322 207v14q-33 4 -64.5 1t-55 -23t-25.5 -53q-1 -25 15 -39t39 -12q42 4 66.5 36.5t24.5 75.5zM151 684q-1 53 37 90.5t92 37.5t90.5 -37t37.5 -91q0 -53 -38 -90t-92 -37q-52 0 -89.5 37t-37.5 90zM220 684q-1 -25 16.5 -43t41.5 -18q26 0 43 18t18 43q0 25 -17.5 42.5
t-41.5 17.5q-26 0 -43.5 -17.5t-16.5 -42.5z" />
    <glyph glyph-name="ae" unicode="&#xe6;" horiz-adv-x="835" 
d="M411 451q69 61 170 61q103 0 165 -67t62 -176q0 -15 -4.5 -33.5t-12.5 -18.5h-324q2 -37 16 -63.5t34 -38t35.5 -16t28.5 -4.5q76 0 136 73h5l58 -78q-82 -102 -210 -102q-118 0 -181 68q-92 -73 -208 -68q-59 3 -103.5 37t-47.5 97q-5 94 70 145t222 41v16q0 43 -24 62
t-60 19q-10 0 -21.5 -2.5t-26.5 -9t-28.5 -21t-21.5 -35.5h-5l-80 106q81 65 187 69q107 4 169 -61zM575 405q-10 0 -21 -2.5t-29.5 -10.5t-32.5 -29.5t-19 -54.5h162q25 0 25 6q-2 30 -13.5 50.5t-28 28t-26 10t-17.5 2.5zM322 207v4q-18 3 -42.5 1t-46.5 -7t-38.5 -20
t-17.5 -39q-1 -25 15 -39t39 -12q42 4 66.5 36.5t24.5 75.5z" />
    <glyph glyph-name="ccedilla" unicode="&#xe7;" horiz-adv-x="496" 
d="M180 252q0 -49 14 -84t36 -50.5t41 -21.5t36 -6q68 0 123 78h5l58 -78q-82 -102 -210 -102q-69 0 -120 23t-79 62.5t-41 84t-13 94.5q0 107 72 183.5t198 76.5q103 0 171 -77l-58 -78h-5q-16 21 -38 34.5t-34 16t-18 2.5q-58 5 -97.5 -30.5t-40.5 -127.5zM295 -10
l-10 -18q-13 -23 8 -58q68 -117 -121 -173l-18 43l12 6t11.5 6t10 5.5t8 6t5.5 7t2.5 8t-1.5 9.5q-3 10 -12 29t-10.5 27.5t3.5 26t21 38.5l32 37h59z" />
    <glyph glyph-name="egrave" unicode="&#xe8;" horiz-adv-x="551" 
d="M294 90q-13 0 -28.5 5.5t-35.5 18t-34 39.5t-16 64h324q8 0 12.5 18.5t4.5 33.5q0 109 -61.5 176t-162.5 67q-125 0 -196 -76.5t-71 -183.5q0 -50 13 -94.5t41 -84t79 -62.5t120 -23q128 0 210 102l-58 78h-5q-56 -80 -136 -78zM287 410q10 0 21 -3t27 -11.5t27 -29.5
t13 -52q0 -6 -25 -6h-165q5 33 17.5 55t29.5 31.5t29.5 12.5t25.5 3zM212 806l97 1q42 0 42 -16l12 -223l-48 -11l-118 221q-5 9 0 18.5t15 9.5z" />
    <glyph glyph-name="eacute" unicode="&#xe9;" horiz-adv-x="551" 
d="M294 90q80 -2 136 78h5l58 -78q-82 -102 -210 -102q-69 0 -120 23t-79 62.5t-41 84t-13 94.5q0 107 71 183.5t196 76.5q101 0 162.5 -67t61.5 -176q0 -15 -4.5 -33.5t-12.5 -18.5h-324q2 -37 16 -64t34 -39.5t35.5 -18t28.5 -5.5zM287 410q-13 0 -25.5 -3t-29.5 -12.5
t-29.5 -31.5t-17.5 -55h165q25 0 25 6q-2 31 -13 52t-27 29.5t-27 11.5t-21 3zM252 807l97 -1q10 0 15 -9.5t0 -18.5l-118 -221l-48 11l12 223q0 16 42 16z" />
    <glyph glyph-name="ecircumflex" unicode="&#xea;" horiz-adv-x="551" 
d="M294 90q-13 0 -28.5 5.5t-35.5 18t-34 39.5t-16 64h324q8 0 12.5 18.5t4.5 33.5q0 109 -61.5 176t-162.5 67q-125 0 -196 -76.5t-71 -183.5q0 -50 13 -94.5t41 -84t79 -62.5t120 -23q128 0 210 102l-58 78h-5q-56 -80 -136 -78zM287 410q10 0 21 -3t27 -11.5t27 -29.5
t13 -52q0 -6 -25 -6h-165q5 33 17.5 55t29.5 31.5t29.5 12.5t25.5 3zM276 642l-102 -85h-47l82 181h134l82 -181h-47z" />
    <glyph glyph-name="edieresis" unicode="&#xeb;" horiz-adv-x="551" 
d="M294 90q-13 0 -28.5 5.5t-35.5 18t-34 39.5t-16 64h324q8 0 12.5 18.5t4.5 33.5q0 109 -61.5 176t-162.5 67q-125 0 -196 -76.5t-71 -183.5q0 -50 13 -94.5t41 -84t79 -62.5t120 -23q128 0 210 102l-58 78h-5q-56 -80 -136 -78zM287 410q10 0 21 -3t27 -11.5t27 -29.5
t13 -52q0 -6 -25 -6h-165q5 33 17.5 55t29.5 31.5t29.5 12.5t25.5 3zM63 635q0 33 22.5 56t55.5 23t56 -23t23 -56t-23 -55.5t-56 -22.5t-55.5 22.5t-22.5 55.5zM331 635q0 33 22.5 56t55.5 23t56 -23t23 -56t-23 -55.5t-56 -22.5t-55.5 22.5t-22.5 55.5z" />
    <glyph glyph-name="igrave" unicode="&#xec;" horiz-adv-x="285" 
d="M73 500v-500h142v500h-142zM79 806l97 1q42 0 42 -16l12 -223l-48 -11l-118 221q-5 9 0 18.5t15 9.5z" />
    <glyph glyph-name="iacute" unicode="&#xed;" horiz-adv-x="285" 
d="M73 0v500h142v-500h-142zM119 807l97 -1q10 0 15 -9.5t0 -18.5l-118 -221l-48 11l12 223q0 16 42 16z" />
    <glyph glyph-name="icircumflex" unicode="&#xee;" horiz-adv-x="285" 
d="M73 500v-500h142v500h-142zM143 642l-102 -85h-47l82 181h134l82 -181h-47z" />
    <glyph glyph-name="idieresis" unicode="&#xef;" horiz-adv-x="285" 
d="M73 500v-500h142v500h-142zM-70 635q0 33 22.5 56t55.5 23t56 -23t23 -56t-23 -55.5t-56 -22.5t-55.5 22.5t-22.5 55.5zM198 635q0 33 22.5 56t55.5 23t56 -23t23 -56t-23 -55.5t-56 -22.5t-55.5 22.5t-22.5 55.5z" />
    <glyph glyph-name="eth" unicode="&#xf0;" horiz-adv-x="564" 
d="M171 557l-42 -44l-76 60l42 45q-34 25 -68 49l81 91q18 -8 72 -48l43 48l81 -58l-45 -49q91 -73 150 -151h155v-100h-97q41 -68 41 -167q0 -61 -21.5 -109.5t-56.5 -76.5t-76 -42.5t-83 -14.5q-103 1 -172 73.5t-69 180.5q0 97 58 168t153 78q-32 35 -70 67zM307 400
q-59 0 -95.5 -39t-35.5 -123q1 -78 26.5 -114t62.5 -38q43 -2 72 28.5t28 84.5q-1 135 -58 201z" />
    <glyph glyph-name="ntilde" unicode="&#xf1;" 
d="M211 500v-79h1q12 34 46.5 62.5t99.5 28.5q70 0 113 -42.5t43 -118.5v-351h-142v324q0 81 -59 81q-40 0 -64 -30t-30.5 -62.5t-6.5 -68.5v-244h-142v500h141zM154 546h-52q-3 76 33.5 127t92.5 51q28 0 71 -24.5t69 -24.5q27 0 42 10.5t29 38.5h55q-2 -80 -39 -129
t-91 -49q-40 0 -85 22.5t-65 22.5q-51 0 -60 -45z" />
    <glyph glyph-name="ograve" unicode="&#xf2;" horiz-adv-x="574" 
d="M287 90q46 0 76.5 42.5t30.5 117.5t-30.5 117.5t-76.5 42.5t-76.5 -42.5t-30.5 -117.5t30.5 -117.5t76.5 -42.5zM287 -12q-116 0 -186.5 79t-70.5 183t70.5 183t186.5 79t186.5 -79t70.5 -183t-70.5 -183t-186.5 -79zM224 806l97 1q42 0 42 -16l12 -223l-48 -11l-118 221
q-5 9 0 18.5t15 9.5z" />
    <glyph glyph-name="oacute" unicode="&#xf3;" horiz-adv-x="574" 
d="M287 90q46 0 76.5 42.5t30.5 117.5t-30.5 117.5t-76.5 42.5t-76.5 -42.5t-30.5 -117.5t30.5 -117.5t76.5 -42.5zM287 -12q-116 0 -186.5 79t-70.5 183t70.5 183t186.5 79t186.5 -79t70.5 -183t-70.5 -183t-186.5 -79zM263 807l97 -1q10 0 15 -9.5t0 -18.5l-118 -221
l-48 11l12 223q0 16 42 16z" />
    <glyph glyph-name="ocircumflex" unicode="&#xf4;" horiz-adv-x="574" 
d="M287 90q46 0 76.5 42.5t30.5 117.5t-30.5 117.5t-76.5 42.5t-76.5 -42.5t-30.5 -117.5t30.5 -117.5t76.5 -42.5zM287 -12q-116 0 -186.5 79t-70.5 183t70.5 183t186.5 79t186.5 -79t70.5 -183t-70.5 -183t-186.5 -79zM287 642l-102 -85h-47l82 181h134l82 -181h-47z" />
    <glyph glyph-name="otilde" unicode="&#xf5;" horiz-adv-x="574" 
d="M287 90q46 0 76.5 42.5t30.5 117.5t-30.5 117.5t-76.5 42.5t-76.5 -42.5t-30.5 -117.5t30.5 -117.5t76.5 -42.5zM287 -12q-116 0 -186.5 79t-70.5 183t70.5 183t186.5 79t186.5 -79t70.5 -183t-70.5 -183t-186.5 -79zM143 546h-52q-3 76 33.5 127t92.5 51q29 0 72 -24.5
t68 -24.5q27 0 42 10.5t29 38.5h55q-2 -80 -39 -129t-91 -49q-40 0 -85 22.5t-65 22.5q-51 0 -60 -45z" />
    <glyph glyph-name="odieresis" unicode="&#xf6;" horiz-adv-x="574" 
d="M287 90q46 0 76.5 42.5t30.5 117.5t-30.5 117.5t-76.5 42.5t-76.5 -42.5t-30.5 -117.5t30.5 -117.5t76.5 -42.5zM287 -12q-116 0 -186.5 79t-70.5 183t70.5 183t186.5 79t186.5 -79t70.5 -183t-70.5 -183t-186.5 -79zM74 635q0 33 22.5 56t55.5 23t56 -23t23 -56
t-23 -55.5t-56 -22.5t-55.5 22.5t-22.5 55.5zM342 635q0 33 22.5 56t55.5 23t56 -23t23 -56t-23 -55.5t-56 -22.5t-55.5 22.5t-22.5 55.5z" />
    <glyph glyph-name="divide" unicode="&#xf7;" horiz-adv-x="608" 
d="M59 292h490v-94h-490v94zM227 70q0 33 22.5 56t55.5 23t56 -23t23 -56t-23 -55.5t-56 -22.5t-55.5 22.5t-22.5 55.5zM227 434q0 33 22.5 56t55.5 23t56 -23t23 -56t-23 -55.5t-56 -22.5t-55.5 22.5t-22.5 55.5z" />
    <glyph glyph-name="oslash" unicode="&#xf8;" horiz-adv-x="574" 
d="M438 579l-36 -93q66 -33 104 -98t38 -138q0 -104 -70.5 -183t-186.5 -79q-36 0 -74 10l-27 -71h-54l34 89q-64 34 -100 98t-36 136q0 104 70.5 183t186.5 79q32 0 64 -8l29 75h58zM287 90q46 0 76.5 42.5t30.5 117.5q0 79 -35 124l-107 -277q15 -7 35 -7zM180 250
q0 -75 30 -118l104 274q-18 4 -27 4q-46 0 -76.5 -42.5t-30.5 -117.5z" />
    <glyph glyph-name="ugrave" unicode="&#xf9;" 
d="M372 0v79h-1q-12 -34 -46.5 -62.5t-99.5 -28.5q-70 0 -113 42.5t-43 118.5v351h142v-324q0 -81 59 -81q40 0 64 30t30.5 62.5t6.5 68.5v244h142v-500h-141zM228 806l97 1q42 0 42 -16l12 -223l-48 -11l-118 221q-5 9 0 18.5t15 9.5z" />
    <glyph glyph-name="uacute" unicode="&#xfa;" 
d="M372 0v79h-1q-12 -34 -46.5 -62.5t-99.5 -28.5q-70 0 -113 42.5t-43 118.5v351h142v-324q0 -81 59 -81q40 0 64 30t30.5 62.5t6.5 68.5v244h142v-500h-141zM268 807l97 -1q10 0 15 -9.5t0 -18.5l-118 -221l-48 11l12 223q0 16 42 16z" />
    <glyph glyph-name="ucircumflex" unicode="&#xfb;" 
d="M372 0v79h-1q-12 -34 -46.5 -62.5t-99.5 -28.5q-70 0 -113 42.5t-43 118.5v351h142v-324q0 -81 59 -81q40 0 64 30t30.5 62.5t6.5 68.5v244h142v-500h-141zM291 642l-102 -85h-47l82 181h134l82 -181h-47z" />
    <glyph glyph-name="udieresis" unicode="&#xfc;" 
d="M372 0v79h-1q-12 -34 -46.5 -62.5t-99.5 -28.5q-70 0 -113 42.5t-43 118.5v351h142v-324q0 -81 59 -81q40 0 64 30t30.5 62.5t6.5 68.5v244h142v-500h-141zM79 635q0 33 22.5 56t55.5 23t56 -23t23 -56t-23 -55.5t-56 -22.5t-55.5 22.5t-22.5 55.5zM347 635q0 33 22.5 56
t55.5 23t56 -23t23 -56t-23 -55.5t-56 -22.5t-55.5 22.5t-22.5 55.5z" />
    <glyph glyph-name="yacute" unicode="&#xfd;" horiz-adv-x="493" 
d="M1 -228l97 114h5q13 -21 40 -17q17 2 33 36.5t23.5 68t5.5 36.5l-190 482v8h149l108 -308l95 308h111v-8l-189 -601q-20 -63 -55.5 -101.5t-76.5 -48t-81 -1.5t-75 32zM223 807l97 -1q10 0 15 -9.5t0 -18.5l-118 -221l-48 11l12 223q0 16 42 16z" />
    <glyph glyph-name="thorn" unicode="&#xfe;" horiz-adv-x="580" 
d="M222 750v-304q40 66 124 66q105 0 154.5 -74t49.5 -188q0 -67 -23 -124.5t-75.5 -97.5t-124.5 -40q-64 0 -105 55v-293h-152v1000h152zM222 290v-79q0 -42 19 -78.5t61 -37.5q47 -1 67.5 37.5t21.5 117.5q-1 77 -23 116.5t-66 38.5q-42 -1 -61 -37t-19 -78z" />
    <glyph glyph-name="ydieresis" unicode="&#xff;" horiz-adv-x="493" 
d="M98 -114l-97 -114q35 -24 75 -32t81 1.5t76.5 48t55.5 101.5l189 601v8h-111l-95 -308l-108 308h-149v-8l190 -482q2 -3 -5.5 -36.5t-23.5 -68t-33 -36.5q-27 -4 -40 17h-5zM34 635q0 33 22.5 56t55.5 23t56 -23t23 -56t-23 -55.5t-56 -22.5t-55.5 22.5t-22.5 55.5z
M302 635q0 33 22.5 56t55.5 23t56 -23t23 -56t-23 -55.5t-56 -22.5t-55.5 22.5t-22.5 55.5z" />
    <glyph glyph-name="Amacron" unicode="&#x100;" horiz-adv-x="599" 
d="M423 0l-50 144h-197l-53 -144h-103v6l269 741h20l270 -739v-8h-156zM277 418l-64 -174h125zM554 804h-510v94h510v-94z" />
    <glyph glyph-name="amacron" unicode="&#x101;" horiz-adv-x="552" 
d="M137 341h-5l-77 102q81 65 187 69q102 4 163.5 -42.5t61.5 -144.5v-143q0 -42 10.5 -57.5t44.5 -15.5v-109h-112q-47 0 -68 13.5t-20 47.5q-22 -33 -53 -51.5t-88 -21.5q-57 -2 -102 32.5t-49 98.5q-6 96 70 152.5t222 46.5v6q0 44 -23.5 65t-60.5 21q-71 0 -101 -69z
M322 207v14q-33 4 -64.5 1t-55 -23t-25.5 -53q-1 -25 15 -39t39 -12q42 4 66.5 36.5t24.5 75.5zM519 554h-491v93h491v-93z" />
    <glyph glyph-name="Abreve" unicode="&#x102;" horiz-adv-x="599" 
d="M423 0l-50 144h-197l-53 -144h-103v6l269 741h20l270 -739v-8h-156zM277 418l-64 -174h125zM300 915q31 0 57 20t34 62h75q-4 -190 -166 -190t-166 190h75q8 -42 34 -62t57 -20z" />
    <glyph glyph-name="abreve" unicode="&#x103;" horiz-adv-x="559" 
d="M137 341h-5l-77 102q81 65 187 69q102 4 163.5 -42.5t61.5 -144.5v-143q0 -42 10.5 -57.5t44.5 -15.5v-109h-112q-47 0 -68 13.5t-20 47.5q-22 -33 -53 -51.5t-88 -21.5q-57 -2 -102 32.5t-49 98.5q-6 96 70 152.5t222 46.5v6q0 44 -23.5 65t-60.5 21q-71 0 -101 -69z
M322 207v14q-33 4 -64.5 1t-55 -23t-25.5 -53q-1 -25 15 -39t39 -12q42 4 66.5 36.5t24.5 75.5zM281 664q31 0 57 20t34 62h75q-4 -190 -166 -190t-166 190h75q8 -42 34 -62t57 -20z" />
    <glyph glyph-name="Aogonek" unicode="&#x104;" horiz-adv-x="599" 
d="M423 0l-50 144h-197l-53 -144h-103v6l269 741h20l270 -739v-8h-156zM277 418l-64 -174h125zM595 -184q-55 -22 -100 -22q-40 0 -62.5 22.5t-23.5 53.5q-1 51 62 132h71q-24 -51 -26 -80q-3 -48 40 -48q26 0 49 10z" />
    <glyph glyph-name="aogonek" unicode="&#x105;" horiz-adv-x="559" 
d="M137 341h-5l-77 102q81 65 187 69q102 4 163.5 -42.5t61.5 -144.5v-143q0 -42 10.5 -57.5t44.5 -15.5v-109h-112q-47 0 -68 13.5t-20 47.5q-22 -33 -53 -51.5t-88 -21.5q-57 -2 -102 32.5t-49 98.5q-6 96 70 152.5t222 46.5v6q0 44 -23.5 65t-60.5 21q-71 0 -101 -69z
M322 207v14q-33 4 -64.5 1t-55 -23t-25.5 -53q-1 -25 15 -39t39 -12q42 4 66.5 36.5t24.5 75.5zM538 -184q-55 -22 -100 -22q-40 0 -62.5 22.5t-23.5 53.5q-1 51 62 132h71q-24 -51 -26 -80q-3 -48 40 -48q26 0 49 10z" />
    <glyph glyph-name="Cacute" unicode="&#x106;" horiz-adv-x="690" 
d="M389 -12q-159 0 -254 106t-95 292v4q0 149 97.5 255.5t255.5 106.5q186 0 282 -155l-109 -61h-10q-26 62 -72 88.5t-93 26.5q-90 0 -144.5 -66t-54.5 -195q0 -139 50 -221t148 -80q116 2 170 123h10l106 -71q-38 -50 -78 -83t-79 -47t-67.5 -18.5t-62.5 -4.5zM312 1058
l97 -1q10 0 15 -9.5t0 -18.5l-118 -221l-48 11l12 223q0 16 42 16z" />
    <glyph glyph-name="cacute" unicode="&#x107;" horiz-adv-x="496" 
d="M180 252q0 -49 14 -84t36 -50.5t41 -21.5t36 -6q68 0 123 78h5l58 -78q-82 -102 -210 -102q-69 0 -120 23t-79 62.5t-41 84t-13 94.5q0 107 72 183.5t198 76.5q103 0 171 -77l-58 -78h-5q-16 21 -38 34.5t-34 16t-18 2.5q-58 5 -97.5 -30.5t-40.5 -127.5zM224 807l97 -1
q10 0 15 -9.5t0 -18.5l-118 -221l-48 11l12 223q0 16 42 16z" />
    <glyph glyph-name="Ccircumflex" unicode="&#x108;" horiz-adv-x="690" 
d="M389 -12q-159 0 -254 106t-95 292v4q0 149 97.5 255.5t255.5 106.5q186 0 282 -155l-109 -61h-10q-26 62 -72 88.5t-93 26.5q-90 0 -144.5 -66t-54.5 -195q0 -139 50 -221t148 -80q116 2 170 123h10l106 -71q-38 -50 -78 -83t-79 -47t-67.5 -18.5t-62.5 -4.5zM345 893
l-102 -85h-47l82 181h134l82 -181h-47z" />
    <glyph glyph-name="ccircumflex" unicode="&#x109;" horiz-adv-x="496" 
d="M180 252q0 -49 14 -84t36 -50.5t41 -21.5t36 -6q68 0 123 78h5l58 -78q-82 -102 -210 -102q-69 0 -120 23t-79 62.5t-41 84t-13 94.5q0 107 72 183.5t198 76.5q103 0 171 -77l-58 -78h-5q-16 21 -38 34.5t-34 16t-18 2.5q-58 5 -97.5 -30.5t-40.5 -127.5zM248 642
l-102 -85h-47l82 181h134l82 -181h-47z" />
    <glyph glyph-name="Cdotaccent" unicode="&#x10a;" horiz-adv-x="690" 
d="M389 -12q-159 0 -254 106t-95 292v4q0 149 97.5 255.5t255.5 106.5q186 0 282 -155l-109 -61h-10q-26 62 -72 88.5t-93 26.5q-90 0 -144.5 -66t-54.5 -195q0 -139 50 -221t148 -80q116 2 170 123h10l106 -71q-38 -50 -78 -83t-79 -47t-67.5 -18.5t-62.5 -4.5zM263 935
q0 33 22.5 56t55.5 23t56 -23t23 -56t-23 -55.5t-56 -22.5t-55.5 22.5t-22.5 55.5z" />
    <glyph glyph-name="cdotaccent" unicode="&#x10b;" horiz-adv-x="496" 
d="M180 252q0 -49 14 -84t36 -50.5t41 -21.5t36 -6q68 0 123 78h5l58 -78q-82 -102 -210 -102q-69 0 -120 23t-79 62.5t-41 84t-13 94.5q0 107 72 183.5t198 76.5q103 0 171 -77l-58 -78h-5q-16 21 -38 34.5t-34 16t-18 2.5q-58 5 -97.5 -30.5t-40.5 -127.5zM166 684
q0 33 22.5 56t55.5 23t56 -23t23 -56t-23 -55.5t-56 -22.5t-55.5 22.5t-22.5 55.5z" />
    <glyph glyph-name="Ccaron" unicode="&#x10c;" horiz-adv-x="690" 
d="M389 -12q-159 0 -254 106t-95 292v4q0 149 97.5 255.5t255.5 106.5q186 0 282 -155l-109 -61h-10q-26 62 -72 88.5t-93 26.5q-90 0 -144.5 -66t-54.5 -195q0 -139 50 -221t148 -80q116 2 170 123h10l106 -71q-38 -50 -78 -83t-79 -47t-67.5 -18.5t-62.5 -4.5zM248 989
l97 -92l97 92h78l-118 -181h-114l-117 181h77z" />
    <glyph glyph-name="ccaron" unicode="&#x10d;" horiz-adv-x="496" 
d="M180 252q0 -49 14 -84t36 -50.5t41 -21.5t36 -6q68 0 123 78h5l58 -78q-82 -102 -210 -102q-69 0 -120 23t-79 62.5t-41 84t-13 94.5q0 107 72 183.5t198 76.5q103 0 171 -77l-58 -78h-5q-16 21 -38 34.5t-34 16t-18 2.5q-58 5 -97.5 -30.5t-40.5 -127.5zM151 738l97 -92
l97 92h78l-118 -181h-114l-117 181h77z" />
    <glyph glyph-name="Dcaron" unicode="&#x10e;" horiz-adv-x="744" 
d="M704 371v-4q0 -78 -21.5 -144.5t-66 -120t-121 -84t-177.5 -30.5q-14 0 -99.5 6t-112.5 6h-36v740h36q27 0 116 6t103 6q104 0 180 -30t118 -84.5t61.5 -120t19.5 -146.5zM292 645l-74 -6v-537l74 -7q61 -6 108.5 9t75.5 42.5t45.5 67.5t24 78t6.5 79v5q0 38 -6 74
t-23.5 75t-45.5 66.5t-75.5 43t-109.5 10.5zM256 989l97 -92l97 92h78l-118 -181h-114l-117 181h77z" />
    <glyph glyph-name="dcaron" unicode="&#x10f;" horiz-adv-x="819" 
d="M381 0v54q-18 -30 -54 -48t-81 -18q-106 0 -161 75t-55 187q0 49 14 95t40.5 83.5t70.5 60.5t99 23q86 0 127 -55v293h152v-750h-152zM381 210v79q0 41 -22.5 78t-68.5 38q-49 1 -74.5 -39t-26.5 -116q1 -76 26.5 -116t74.5 -39q46 1 68.5 37.5t22.5 77.5zM609 676v20
q0 21 17 41.5t48 24.5q37 5 67 -20t31 -71q0 -35 -12.5 -70t-31 -60t-37.5 -44.5t-32 -29.5t-14 -9l-29 27q36 35 51 59.5t9 50.5q-3 11 -20 18.5t-32 21t-15 41.5z" />
    <glyph glyph-name="Dcroat" unicode="&#x110;" horiz-adv-x="744" 
d="M704 371v-4q0 -78 -21.5 -144.5t-66 -120t-121 -84t-177.5 -30.5q-14 0 -99.5 6t-112.5 6h-36v740h36q27 0 116 6t103 6q104 0 180 -30t118 -84.5t61.5 -120t19.5 -146.5zM292 645l-74 -6v-537l74 -7q61 -6 108.5 9t75.5 42.5t45.5 67.5t24 78t6.5 79v5q0 38 -6 74
t-23.5 75t-45.5 66.5t-75.5 43t-109.5 10.5zM626 804h-510v94h510v-94z" />
    <glyph glyph-name="dcroat" unicode="&#x111;" horiz-adv-x="603" 
d="M287 673h94v77h152v-77h70v-94h-70v-579h-152v54q-18 -30 -54 -48t-81 -18q-106 0 -161 75t-55 187q0 49 14 95t40.5 83.5t70.5 60.5t99 23q86 0 127 -55v122h-94v94zM381 210v79q0 41 -22.5 78t-68.5 38q-49 1 -74.5 -39t-26.5 -116q1 -76 26.5 -116t74.5 -39
q46 1 68.5 37.5t22.5 77.5z" />
    <glyph glyph-name="Emacron" unicode="&#x112;" horiz-adv-x="573" 
d="M216 343v-243h335v-100h-481v740h458v-100h-312v-197h246v-100h-246zM541 804h-510v94h510v-94z" />
    <glyph glyph-name="emacron" unicode="&#x113;" horiz-adv-x="551" 
d="M294 90q-13 0 -28.5 5.5t-35.5 18t-34 39.5t-16 64h324q8 0 12.5 18.5t4.5 33.5q0 109 -61.5 176t-162.5 67q-125 0 -196 -76.5t-71 -183.5q0 -50 13 -94.5t41 -84t79 -62.5t120 -23q128 0 210 102l-58 78h-5q-56 -80 -136 -78zM287 410q10 0 21 -3t27 -11.5t27 -29.5
t13 -52q0 -6 -25 -6h-165q5 33 17.5 55t29.5 31.5t29.5 12.5t25.5 3zM511 560h-482v87h482v-87z" />
    <glyph glyph-name="Ebreve" unicode="&#x114;" horiz-adv-x="573" 
d="M216 343v-243h335v-100h-481v740h458v-100h-312v-197h246v-100h-246zM287 915q31 0 57 20t34 62h75q-4 -190 -166 -190t-166 190h75q8 -42 34 -62t57 -20z" />
    <glyph glyph-name="ebreve" unicode="&#x115;" horiz-adv-x="551" 
d="M294 90q80 -2 136 78h5l58 -78q-82 -102 -210 -102q-69 0 -120 23t-79 62.5t-41 84t-13 94.5q0 107 71 183.5t196 76.5q101 0 162.5 -67t61.5 -176q0 -15 -4.5 -33.5t-12.5 -18.5h-324q2 -37 16 -64t34 -39.5t35.5 -18t28.5 -5.5zM287 410q-13 0 -25.5 -3t-29.5 -12.5
t-29.5 -31.5t-17.5 -55h165q25 0 25 6q-2 31 -13 52t-27 29.5t-27 11.5t-21 3zM277 664q31 0 57 20t34 62h75q-4 -190 -166 -190t-166 190h75q8 -42 34 -62t57 -20z" />
    <glyph glyph-name="Edotaccent" unicode="&#x116;" horiz-adv-x="573" 
d="M216 343v-243h335v-100h-481v740h458v-100h-312v-197h246v-100h-246zM204 935q0 33 22.5 56t55.5 23t56 -23t23 -56t-23 -55.5t-56 -22.5t-55.5 22.5t-22.5 55.5z" />
    <glyph glyph-name="edotaccent" unicode="&#x117;" horiz-adv-x="551" 
d="M294 90q-13 0 -28.5 5.5t-35.5 18t-34 39.5t-16 64h324q8 0 12.5 18.5t4.5 33.5q0 109 -61.5 176t-162.5 67q-125 0 -196 -76.5t-71 -183.5q0 -50 13 -94.5t41 -84t79 -62.5t120 -23q128 0 210 102l-58 78h-5q-56 -80 -136 -78zM287 410q10 0 21 -3t27 -11.5t27 -29.5
t13 -52q0 -6 -25 -6h-165q5 33 17.5 55t29.5 31.5t29.5 12.5t25.5 3zM194 684q0 33 22.5 56t55.5 23t56 -23t23 -56t-23 -55.5t-56 -22.5t-55.5 22.5t-22.5 55.5z" />
    <glyph glyph-name="Eogonek" unicode="&#x118;" horiz-adv-x="573" 
d="M216 343v-243h335v-100h-481v740h458v-100h-312v-197h246v-100h-246zM541 -185q-55 -22 -100 -22q-40 0 -62.5 22.5t-23.5 53.5q-1 51 62 132h71q-24 -51 -26 -80q-3 -48 40 -48q26 0 49 10z" />
    <glyph glyph-name="eogonek" unicode="&#x119;" horiz-adv-x="551" 
d="M294 90q80 -2 136 78h5l58 -78q-82 -102 -210 -102q-69 0 -120 23t-79 62.5t-41 84t-13 94.5q0 107 71 183.5t196 76.5q101 0 162.5 -67t61.5 -176q0 -15 -4.5 -33.5t-12.5 -18.5h-324q2 -37 16 -64t34 -39.5t35.5 -18t28.5 -5.5zM287 410q-13 0 -25.5 -3t-29.5 -12.5
t-29.5 -31.5t-17.5 -55h165q25 0 25 6q-2 31 -13 52t-27 29.5t-27 11.5t-21 3zM425 -184q-55 -22 -100 -22q-40 0 -62.5 22.5t-23.5 53.5q-1 51 62 132h71q-24 -51 -26 -80q-3 -48 40 -48q26 0 49 10z" />
    <glyph glyph-name="Ecaron" unicode="&#x11a;" horiz-adv-x="573" 
d="M216 343v-243h335v-100h-481v740h458v-100h-312v-197h246v-100h-246zM189 989l97 -92l97 92h78l-118 -181h-114l-117 181h77z" />
    <glyph glyph-name="ecaron" unicode="&#x11b;" horiz-adv-x="551" 
d="M294 90q-13 0 -28.5 5.5t-35.5 18t-34 39.5t-16 64h324q8 0 12.5 18.5t4.5 33.5q0 109 -61.5 176t-162.5 67q-125 0 -196 -76.5t-71 -183.5q0 -50 13 -94.5t41 -84t79 -62.5t120 -23q128 0 210 102l-58 78h-5q-56 -80 -136 -78zM287 410q10 0 21 -3t27 -11.5t27 -29.5
t13 -52q0 -6 -25 -6h-165q5 33 17.5 55t29.5 31.5t29.5 12.5t25.5 3zM179 738l97 -92l97 92h78l-118 -181h-114l-117 181h77z" />
    <glyph glyph-name="Gcircumflex" unicode="&#x11c;" horiz-adv-x="721" 
d="M389 -12q-159 0 -254 106t-95 292v4q0 96 41 178t122 133t186 51q75 2 153 -32.5t133 -122.5l-107 -61h-10q-26 62 -72.5 88.5t-94.5 26.5q-90 0 -144.5 -66t-54.5 -195q0 -140 48.5 -220t149.5 -81q93 0 142 73v121h-155v100h306v-247q-87 -92 -153.5 -120t-140.5 -28z
M360 893l-102 -85h-47l82 181h134l82 -181h-47z" />
    <glyph glyph-name="gcircumflex" unicode="&#x11d;" horiz-adv-x="532" 
d="M444 616h5l73 -104q-42 -43 -94 -51q24 -19 42.5 -55.5t17.5 -74.5q-1 -67 -48 -118t-145 -66l-106 -10q0 -18 16 -24.5t65 -5.5q129 2 192 -54.5t51 -142.5q-11 -77 -79 -122.5t-182 -49.5q-104 -4 -167 34.5t-63 110.5q0 61 52 107h5l84 -71q-10 -6 -17 -18t-4 -22
q13 -47 112 -44q46 2 77.5 20t33.5 46q0 6 -1 14t-8 20.5t-19 22.5t-35.5 17.5t-54.5 7.5q-59 0 -99.5 19.5t-58.5 51t-25 58t-7 54.5l101 12q-43 17 -72 59.5t-28 93.5q1 81 63 131t150 50q15 0 25 -0.5t18 -2t12 -1.5q24 -1 43.5 5.5t31 16.5t20.5 25t12.5 25.5t7 22.5
t3.5 13zM192 325q0 -36 22 -61.5t59 -25.5t59.5 25.5t22.5 61.5q0 35 -24 61.5t-58 26.5t-57.5 -26.5t-23.5 -61.5zM266 642l-102 -85h-47l82 181h134l82 -181h-47z" />
    <glyph glyph-name="Gbreve" unicode="&#x11e;" horiz-adv-x="721" 
d="M389 -12q-159 0 -254 106t-95 292v4q0 96 41 178t122 133t186 51q75 2 153 -32.5t133 -122.5l-107 -61h-10q-26 62 -72.5 88.5t-94.5 26.5q-90 0 -144.5 -66t-54.5 -195q0 -140 48.5 -220t149.5 -81q93 0 142 73v121h-155v100h306v-247q-87 -92 -153.5 -120t-140.5 -28z
M361 915q31 0 57 20t34 62h75q-4 -190 -166 -190t-166 190h75q8 -42 34 -62t57 -20z" />
    <glyph glyph-name="gbreve" unicode="&#x11f;" horiz-adv-x="532" 
d="M444 616h5l73 -104q-42 -43 -94 -51q24 -19 42.5 -55.5t17.5 -74.5q-1 -67 -48 -118t-145 -66l-106 -10q0 -18 16 -24.5t65 -5.5q129 2 192 -54.5t51 -142.5q-11 -77 -79 -122.5t-182 -49.5q-104 -4 -167 34.5t-63 110.5q0 61 52 107h5l84 -71q-10 -6 -17 -18t-4 -22
q13 -47 112 -44q46 2 77.5 20t33.5 46q0 6 -1 14t-8 20.5t-19 22.5t-35.5 17.5t-54.5 7.5q-59 0 -99.5 19.5t-58.5 51t-25 58t-7 54.5l101 12q-43 17 -72 59.5t-28 93.5q1 81 63 131t150 50q15 0 25 -0.5t18 -2t12 -1.5q24 -1 43.5 5.5t31 16.5t20.5 25t12.5 25.5t7 22.5
t3.5 13zM192 325q0 -36 22 -61.5t59 -25.5t59.5 25.5t22.5 61.5q0 35 -24 61.5t-58 26.5t-57.5 -26.5t-23.5 -61.5zM267 664q31 0 57 20t34 62h75q-4 -190 -166 -190t-166 190h75q8 -42 34 -62t57 -20z" />
    <glyph glyph-name="Gdotaccent" unicode="&#x120;" horiz-adv-x="721" 
d="M389 -12q-159 0 -254 106t-95 292v4q0 96 41 178t122 133t186 51q75 2 153 -32.5t133 -122.5l-107 -61h-10q-26 62 -72.5 88.5t-94.5 26.5q-90 0 -144.5 -66t-54.5 -195q0 -140 48.5 -220t149.5 -81q93 0 142 73v121h-155v100h306v-247q-87 -92 -153.5 -120t-140.5 -28z
M278 935q0 33 22.5 56t55.5 23t56 -23t23 -56t-23 -55.5t-56 -22.5t-55.5 22.5t-22.5 55.5z" />
    <glyph glyph-name="gdotaccent" unicode="&#x121;" horiz-adv-x="532" 
d="M444 616h5l73 -104q-42 -43 -94 -51q24 -19 42.5 -55.5t17.5 -74.5q-1 -67 -48 -118t-145 -66l-106 -10q0 -18 16 -24.5t65 -5.5q129 2 192 -54.5t51 -142.5q-11 -77 -79 -122.5t-182 -49.5q-104 -4 -167 34.5t-63 110.5q0 61 52 107h5l84 -71q-10 -6 -17 -18t-4 -22
q13 -47 112 -44q46 2 77.5 20t33.5 46q0 6 -1 14t-8 20.5t-19 22.5t-35.5 17.5t-54.5 7.5q-59 0 -99.5 19.5t-58.5 51t-25 58t-7 54.5l101 12q-43 17 -72 59.5t-28 93.5q1 81 63 131t150 50q15 0 25 -0.5t18 -2t12 -1.5q24 -1 43.5 5.5t31 16.5t20.5 25t12.5 25.5t7 22.5
t3.5 13zM192 325q0 -36 22 -61.5t59 -25.5t59.5 25.5t22.5 61.5q0 35 -24 61.5t-58 26.5t-57.5 -26.5t-23.5 -61.5zM184 684q0 33 22.5 56t55.5 23t56 -23t23 -56t-23 -55.5t-56 -22.5t-55.5 22.5t-22.5 55.5z" />
    <glyph glyph-name="Gcommaaccent" unicode="&#x122;" horiz-adv-x="721" 
d="M389 -12q-159 0 -254 106t-95 292v4q0 96 41 178t122 133t186 51q75 2 153 -32.5t133 -122.5l-107 -61h-10q-26 62 -72.5 88.5t-94.5 26.5q-90 0 -144.5 -66t-54.5 -195q0 -140 48.5 -220t149.5 -81q93 0 142 73v121h-155v100h306v-247q-87 -92 -153.5 -120t-140.5 -28z
M209 -151l2 73q161 -58 229 51l72 -104q-39 -45 -99 -57.5t-111.5 0t-92.5 37.5z" />
    <glyph glyph-name="gcommaaccent" unicode="&#x123;" horiz-adv-x="532" 
d="M444 616h5l73 -104q-42 -43 -94 -51q24 -19 42.5 -55.5t17.5 -74.5q-1 -67 -48 -118t-145 -66l-106 -10q0 -18 16 -24.5t65 -5.5q129 2 192 -54.5t51 -142.5q-11 -77 -79 -122.5t-182 -49.5q-104 -4 -167 34.5t-63 110.5q0 61 52 107h5l84 -71q-10 -6 -17 -18t-4 -22
q13 -47 112 -44q46 2 77.5 20t33.5 46q0 6 -1 14t-8 20.5t-19 22.5t-35.5 17.5t-54.5 7.5q-59 0 -99.5 19.5t-58.5 51t-25 58t-7 54.5l101 12q-43 17 -72 59.5t-28 93.5q1 81 63 131t150 50q15 0 25 -0.5t18 -2t12 -1.5q24 -1 43.5 5.5t31 16.5t20.5 25t12.5 25.5t7 22.5
t3.5 13zM192 325q0 -36 22 -61.5t59 -25.5t59.5 25.5t22.5 61.5q0 35 -24 61.5t-58 26.5t-57.5 -26.5t-23.5 -61.5zM348 794v-20q0 -21 -17 -41.5t-48 -24.5q-37 -5 -67 20t-31 71q0 35 12.5 70t31 60t37.5 44.5t32 29.5t14 9l29 -27q-36 -35 -51 -59.5t-9 -50.5
q3 -11 20 -18.5t32 -21t15 -41.5z" />
    <glyph glyph-name="Hcircumflex" unicode="&#x124;" horiz-adv-x="775" 
d="M537 343v-343h148v740h-148v-297h-319v297h-148v-740h148v343h319zM387 893l-102 -85h-47l82 181h134l82 -181h-47z" />
    <glyph glyph-name="hcircumflex" unicode="&#x125;" 
d="M211 750v-329h1q12 34 46.5 62.5t99.5 28.5q70 0 113 -42.5t43 -118.5v-351h-142v324q0 81 -59 81q-40 0 -64 -30t-30.5 -62.5t-6.5 -68.5v-244h-142v750h141zM147 854l-102 -85h-47l82 181h134l82 -181h-47z" />
    <glyph glyph-name="Hbar" unicode="&#x126;" horiz-adv-x="755" 
d="M537 740h148v-100h70v-105h-70v-535h-148v322h-319v-322h-148v535h-71v105h71v100h148v-100h319v100zM537 535h-319v-113h319v113z" />
    <glyph glyph-name="hbar" unicode="&#x127;" 
d="M372 553h-161v-132h1q12 34 46.5 62.5t99.5 28.5q70 0 113 -42.5t43 -118.5v-351h-142v324q0 81 -59 81q-40 0 -64 -30t-30.5 -62.5t-6.5 -68.5v-244h-142v553h-70v94h70v103h141v-103h161v-94z" />
    <glyph glyph-name="Itilde" unicode="&#x128;" horiz-adv-x="308" 
d="M80 738h148v-738h-148v738zM42 774h-41q-2 75 26.5 125.5t72.5 50.5q22 0 55.5 -24.5t53.5 -24.5q21 0 33 10.5t23 38.5h43q-1 -79 -30.5 -127.5t-71.5 -48.5q-31 0 -66.5 22t-50.5 22q-41 0 -47 -44z" />
    <glyph glyph-name="itilde" unicode="&#x129;" horiz-adv-x="285" 
d="M73 500v-500h142v500h-142zM40 517h-38q-2 70 24 118t67 48q20 0 51.5 -23t49.5 -23q19 0 30 10t21 36h40q-1 -75 -28 -120.5t-66 -45.5q-29 0 -61 21t-47 21q-38 0 -43 -42z" />
    <glyph glyph-name="Imacron" unicode="&#x12a;" horiz-adv-x="308" 
d="M80 738h148v-738h-148v738zM308 819h-308v79h308v-79z" />
    <glyph glyph-name="imacron" unicode="&#x12b;" horiz-adv-x="285" 
d="M73 500v-500h142v500h-142zM285 556h-285v91h285v-91z" />
    <glyph glyph-name="Ibreve" unicode="&#x12c;" horiz-adv-x="308" 
d="M80 738h148v-738h-148v738zM155 916q29 0 53 20t31 61h70q-4 -186 -154 -186q-152 0 -154 186h69q7 -41 31.5 -61t53.5 -20z" />
    <glyph glyph-name="ibreve" unicode="&#x12d;" horiz-adv-x="285" 
d="M73 0v500h142v-500h-142zM144 666q28 0 51.5 20t30.5 63h67q-4 -193 -149 -193t-149 193h67q7 -43 31 -63t51 -20z" />
    <glyph glyph-name="Iogonek" unicode="&#x12e;" horiz-adv-x="283" 
d="M80 738h148v-738h-148v738zM204 -184q-55 -22 -100 -22q-40 0 -62.5 22.5t-23.5 53.5q-1 51 62 132h71q-24 -51 -26 -80q-3 -48 40 -48q26 0 49 10z" />
    <glyph glyph-name="iogonek" unicode="&#x12f;" horiz-adv-x="285" 
d="M73 500v-500h142v500h-142zM61 673q0 34 24 58t58 24t58 -24t24 -58t-24 -58t-58 -24t-58 24t-24 58zM241 -184q-55 -22 -100 -22q-40 0 -62.5 22.5t-23.5 53.5q-1 51 62 132h71q-24 -51 -26 -80q-3 -48 40 -48q26 0 49 10z" />
    <glyph glyph-name="Idotaccent" unicode="&#x130;" horiz-adv-x="308" 
d="M80 738h148v-738h-148v738zM72 889q0 33 22.5 56t55.5 23t56 -23t23 -56t-23 -55.5t-56 -22.5t-55.5 22.5t-22.5 55.5z" />
    <glyph glyph-name="dotlessi" unicode="&#x131;" horiz-adv-x="285" 
d="M73 500v-500h142v500h-142zM64 683q0 33 22.5 56t55.5 23t56 -23t23 -56t-23 -55.5t-56 -22.5t-55.5 22.5t-22.5 55.5z" />
    <glyph glyph-name="IJ" unicode="&#x132;" horiz-adv-x="625" 
d="M80 738h148v-738h-148v738zM268 -45l2 10q22 -2 39 -3.5t29.5 4t21.5 10t15 15.5t9.5 19t5.5 21.5t2.5 23.5t0.5 24v661h147v-694q0 -108 -69 -160t-175 -52z" />
    <glyph glyph-name="ij" unicode="&#x133;" horiz-adv-x="570" 
d="M73 500v-500h142v500h-142zM64 683q0 33 22.5 56t55.5 23t56 -23t23 -56t-23 -55.5t-56 -22.5t-55.5 22.5t-22.5 55.5zM337 -155q-3 0 -9.5 2t-16.5 9.5t-15 20.5h-5l-73 -104q50 -34 125 -34q16 0 34.5 3.5t43.5 16.5t43.5 32.5t30 56.5t8.5 85q-3 42 -3 269v298h-142
v-354q0 -27 1 -50.5t4 -47t5 -37.5t6.5 -39t6.5 -35q7 -27 2.5 -45t-9 -27.5t-14.5 -14t-14 -5t-9 -0.5zM349 683q0 33 22.5 56t55.5 23t56 -23t23 -56t-23 -55.5t-56 -22.5t-55.5 22.5t-22.5 55.5z" />
    <glyph glyph-name="Jcircumflex" unicode="&#x134;" horiz-adv-x="317" 
d="M-40 -45l2 10q22 -2 39 -3.5t29.5 4t21.5 10t15 15.5t9.5 19t5.5 21.5t2.5 23.5t0.5 24v661h147v-694q0 -108 -69 -160t-175 -52zM159 893l-102 -85h-47l82 181h134l82 -181h-47z" />
    <glyph glyph-name="jcircumflex" unicode="&#x135;" horiz-adv-x="285" 
d="M49 -155q-3 0 -9.5 2t-16.5 9.5t-15 20.5h-5l-73 -104q50 -34 125 -34q20 0 43.5 7.5t51.5 25.5t46.5 60t18.5 101v567h-142v-354q0 -87 20 -209q7 -27 2.5 -45t-9 -27.5t-14.5 -14t-14 -5t-9 -0.5zM61 673q0 34 24 58t58 24t58 -24t24 -58t-24 -58t-58 -24t-58 24
t-24 58zM143 642l-102 -85h-47l82 181h134l82 -181h-47z" />
    <glyph glyph-name="Kcommaaccent" unicode="&#x136;" horiz-adv-x="630" 
d="M217 456l228 284h135v-6l-234 -291l279 -435v-8h-172l-209 344l-27 -33v-311h-142v740h142v-284zM163 -151l2 73q161 -58 229 51l72 -104q-39 -45 -99 -57.5t-111.5 0t-92.5 37.5z" />
    <glyph glyph-name="kcommaaccent" unicode="&#x137;" horiz-adv-x="544" 
d="M70 0v750h142v-448l150 198h150v-8l-142 -175l159 -309v-8h-162l-95 213l-60 -87v-126h-142zM121 -151l2 73q161 -58 229 51l72 -104q-39 -45 -99 -57.5t-111.5 0t-92.5 37.5z" />
    <glyph glyph-name="kgreenlandic" unicode="&#x138;" horiz-adv-x="544" 
d="M70 0v750h142v-448l150 198h150v-8l-142 -175l159 -309v-8h-162l-95 213l-60 -87v-126h-142z" />
    <glyph glyph-name="Lacute" unicode="&#x139;" horiz-adv-x="573" 
d="M216 740v-640h335v-100h-481v740h146zM254 1058l97 -1q10 0 15 -9.5t0 -18.5l-118 -221l-48 11l12 223q0 16 42 16z" />
    <glyph glyph-name="lacute" unicode="&#x13a;" horiz-adv-x="288" 
d="M73 0v750h142v-750h-142zM117 1039l97 -1q10 0 15 -9.5t0 -18.5l-118 -221l-48 11l12 223q0 16 42 16z" />
    <glyph glyph-name="Lcommaaccent" unicode="&#x13b;" horiz-adv-x="573" 
d="M216 740v-640h335v-100h-481v740h146zM135 -151l2 73q161 -58 229 51l72 -104q-39 -45 -99 -57.5t-111.5 0t-92.5 37.5z" />
    <glyph glyph-name="lcommaaccent" unicode="&#x13c;" horiz-adv-x="288" 
d="M73 0v750h142v-750h-142zM-7 -151l2 73q161 -58 229 51l72 -104q-39 -45 -99 -57.5t-111.5 0t-92.5 37.5z" />
    <glyph glyph-name="Lcaron" unicode="&#x13d;" horiz-adv-x="573" 
d="M216 740v-640h335v-100h-481v740h146zM281 659v20q0 21 17 41.5t48 24.5q37 5 67 -20t31 -71q0 -35 -12.5 -70t-31 -60t-37.5 -44.5t-32 -29.5t-14 -9l-29 27q36 35 51 59.5t9 50.5q-3 11 -20 18.5t-32 21t-15 41.5z" />
    <glyph glyph-name="lcaron" unicode="&#x13e;" horiz-adv-x="566" 
d="M73 750v-750h142v750h-142zM362 676v20q0 21 17 41.5t48 24.5q37 5 67 -20t31 -71q0 -35 -12.5 -70t-31 -60t-37.5 -44.5t-32 -29.5t-14 -9l-29 27q36 35 51 59.5t9 50.5q-3 11 -20 18.5t-32 21t-15 41.5z" />
    <glyph glyph-name="Ldot" unicode="&#x13f;" horiz-adv-x="573" 
d="M216 740v-640h335v-100h-481v740h146zM278 385q0 33 22.5 56t55.5 23t56 -23t23 -56t-23 -55.5t-56 -22.5t-55.5 22.5t-22.5 55.5z" />
    <glyph glyph-name="ldot" unicode="&#x140;" horiz-adv-x="472" 
d="M73 0v750h142v-750h-142zM278 385q0 33 22.5 56t55.5 23t56 -23t23 -56t-23 -55.5t-56 -22.5t-55.5 22.5t-22.5 55.5z" />
    <glyph glyph-name="Lslash" unicode="&#x141;" horiz-adv-x="573" 
d="M70 0v268l-70 -37v68l70 37v404h146v-327l140 74v-67l-140 -75v-245h335v-100h-481z" />
    <glyph glyph-name="lslash" unicode="&#x142;" horiz-adv-x="312" 
d="M73 271l-46 -23l-27 54l73 37v411h142v-338l66 34l27 -53l-93 -48v-345h-142v271z" />
    <glyph glyph-name="Nacute" unicode="&#x143;" horiz-adv-x="687" 
d="M175 0h-105v740h96l341 -465v465h105v-740h-104l-333 462v-462zM311 1058l97 -1q10 0 15 -9.5t0 -18.5l-118 -221l-48 11l12 223q0 16 42 16z" />
    <glyph glyph-name="nacute" unicode="&#x144;" 
d="M211 500v-79h1q12 34 46.5 62.5t99.5 28.5q70 0 113 -42.5t43 -118.5v-351h-142v324q0 81 -59 81q-40 0 -64 -30t-30.5 -62.5t-6.5 -68.5v-244h-142v500h141zM268 807l97 -1q10 0 15 -9.5t0 -18.5l-118 -221l-48 11l12 223q0 16 42 16z" />
    <glyph glyph-name="Ncommaaccent" unicode="&#x145;" horiz-adv-x="687" 
d="M175 0h-105v740h96l341 -465v465h105v-740h-104l-333 462v-462zM192 -151l2 73q161 -58 229 51l72 -104q-39 -45 -99 -57.5t-111.5 0t-92.5 37.5z" />
    <glyph glyph-name="ncommaaccent" unicode="&#x146;" 
d="M211 500v-79h1q12 34 46.5 62.5t99.5 28.5q70 0 113 -42.5t43 -118.5v-351h-142v324q0 81 -59 81q-40 0 -64 -30t-30.5 -62.5t-6.5 -68.5v-244h-142v500h141zM140 -151l2 73q161 -58 229 51l72 -104q-39 -45 -99 -57.5t-111.5 0t-92.5 37.5z" />
    <glyph glyph-name="Ncaron" unicode="&#x147;" horiz-adv-x="687" 
d="M175 0h-105v740h96l341 -465v465h105v-740h-104l-333 462v-462zM246 989l97 -92l97 92h78l-118 -181h-114l-117 181h77z" />
    <glyph glyph-name="ncaron" unicode="&#x148;" 
d="M211 500v-79h1q12 34 46.5 62.5t99.5 28.5q70 0 113 -42.5t43 -118.5v-351h-142v324q0 81 -59 81q-40 0 -64 -30t-30.5 -62.5t-6.5 -68.5v-244h-142v500h141zM194 738l97 -92l97 92h78l-118 -181h-114l-117 181h77z" />
    <glyph glyph-name="napostrophe" unicode="&#x149;" 
d="M211 500v-79h1q12 34 46.5 62.5t99.5 28.5q70 0 113 -42.5t43 -118.5v-351h-142v324q0 81 -59 81q-40 0 -64 -30t-30.5 -62.5t-6.5 -68.5v-244h-142v500h141zM144 -163l2 73q161 -58 229 51l72 -104q-39 -45 -99 -57.5t-111.5 0t-92.5 37.5z" />
    <glyph glyph-name="Eng" unicode="&#x14a;" horiz-adv-x="682" 
d="M207 332v-332h-137v390q0 222 -24 360h134q15 -102 17 -135q8 57 69 102t142 45q34 0 68 -13.5t65.5 -39.5t51 -71.5t19.5 -102.5v-483q0 -109 -77.5 -176t-211.5 -63q-67 2 -126 40l37 89q43 -32 98 -32q56 0 99.5 36.5t43.5 101.5v457q0 76 -28 115t-71 41
q-29 1 -57.5 -15.5t-54 -52.5t-41.5 -103.5t-16 -157.5z" />
    <glyph glyph-name="eng" unicode="&#x14b;" horiz-adv-x="589" 
d="M519 351v-299q0 -116 -55 -179.5t-184 -59.5q-53 1 -113 40l37 89q43 -32 85 -32q49 0 68 33t19 105l1 276q0 81 -59 81q-40 0 -65.5 -30t-33 -63t-7.5 -68v-244h-142v140q0 251 -19 360h144q4 -6 16 -79h2q11 33 47.5 62t102.5 29q70 0 113 -42.5t43 -118.5z" />
    <glyph glyph-name="Omacron" unicode="&#x14c;" horiz-adv-x="776" 
d="M388 651q94 0 145 -73.5t51 -207.5t-51 -207.5t-145 -73.5t-145 73.5t-51 207.5t51 207.5t145 73.5zM388 752q-86 0 -155 -33.5t-109.5 -88.5t-62 -120t-21.5 -133v-13q0 -54 13 -106.5t41 -101.5t67.5 -86t98 -59.5t128.5 -22.5t128.5 22.5t98 59.5t67.5 86t41 101.5
t13 106.5v13q0 68 -21.5 133t-62 120t-109.5 88.5t-155 33.5zM642 804h-510v94h510v-94z" />
    <glyph glyph-name="omacron" unicode="&#x14d;" horiz-adv-x="574" 
d="M287 90q46 0 76.5 42.5t30.5 117.5t-30.5 117.5t-76.5 42.5t-76.5 -42.5t-30.5 -117.5t30.5 -117.5t76.5 -42.5zM287 -12q-116 0 -186.5 79t-70.5 183t70.5 183t186.5 79t186.5 -79t70.5 -183t-70.5 -183t-186.5 -79zM541 553h-510v94h510v-94z" />
    <glyph glyph-name="Obreve" unicode="&#x14e;" horiz-adv-x="776" 
d="M388 651q-94 0 -145 -73.5t-51 -207.5t51 -207.5t145 -73.5t145 73.5t51 207.5t-51 207.5t-145 73.5zM388 752q86 0 155 -33.5t109.5 -88.5t62 -120t21.5 -133v-13q0 -54 -13 -106.5t-41 -101.5t-67.5 -86t-98 -59.5t-128.5 -22.5t-128.5 22.5t-98 59.5t-67.5 86
t-41 101.5t-13 106.5v13q0 68 21.5 133t62 120t109.5 88.5t155 33.5zM389 915q31 0 57 20t34 62h75q-4 -190 -166 -190t-166 190h75q8 -42 34 -62t57 -20z" />
    <glyph glyph-name="obreve" unicode="&#x14f;" horiz-adv-x="574" 
d="M287 90q46 0 76.5 42.5t30.5 117.5t-30.5 117.5t-76.5 42.5t-76.5 -42.5t-30.5 -117.5t30.5 -117.5t76.5 -42.5zM287 -12q-116 0 -186.5 79t-70.5 183t70.5 183t186.5 79t186.5 -79t70.5 -183t-70.5 -183t-186.5 -79zM288 664q31 0 57 20t34 62h75q-4 -190 -166 -190
t-166 190h75q8 -42 34 -62t57 -20z" />
    <glyph glyph-name="Ohungarumlaut" unicode="&#x150;" horiz-adv-x="776" 
d="M388 651q94 0 145 -73.5t51 -207.5t-51 -207.5t-145 -73.5t-145 73.5t-51 207.5t51 207.5t145 73.5zM388 752q-86 0 -155 -33.5t-109.5 -88.5t-62 -120t-21.5 -133v-13q0 -54 13 -106.5t41 -101.5t67.5 -86t98 -59.5t128.5 -22.5t128.5 22.5t98 59.5t67.5 86t41 101.5
t13 106.5v13q0 68 -21.5 133t-62 120t-109.5 88.5t-155 33.5zM246 1071h117q11 0 17.5 -6.5t4.5 -16.5l-56 -240h-49l-56 240q-2 10 4.5 16.5t17.5 6.5zM465 1071h117q11 0 17.5 -6.5t4.5 -16.5l-56 -240h-49l-56 240q-2 10 4.5 16.5t17.5 6.5z" />
    <glyph glyph-name="ohungarumlaut" unicode="&#x151;" horiz-adv-x="574" 
d="M287 90q46 0 76.5 42.5t30.5 117.5t-30.5 117.5t-76.5 42.5t-76.5 -42.5t-30.5 -117.5t30.5 -117.5t76.5 -42.5zM287 -12q-116 0 -186.5 79t-70.5 183t70.5 183t186.5 79t186.5 -79t70.5 -183t-70.5 -183t-186.5 -79zM145 820h117q11 0 17.5 -6.5t4.5 -16.5l-56 -240h-49
l-56 240q-2 10 4.5 16.5t17.5 6.5zM364 820h117q11 0 17.5 -6.5t4.5 -16.5l-56 -240h-49l-56 240q-2 10 4.5 16.5t17.5 6.5z" />
    <glyph glyph-name="OE" unicode="&#x152;" horiz-adv-x="1069" 
d="M704 343v-243h335v-100h-366q-27 0 -112.5 -6t-99.5 -6q-101 0 -177.5 30t-121 83.5t-66 119.5t-21.5 144q0 62 13 117.5t42.5 105.5t73.5 86t110 57t147 21q14 0 99.5 -6t112.5 -6h343v-100h-312v-197h246v-100h-246zM227 376q0 -51 11 -97.5t34 -89t66 -68.5t99 -26
t88.5 48t32.5 123v208q0 75 -32.5 123t-88.5 48q-46 0 -82.5 -17t-60 -44t-39 -62.5t-22 -71.5t-6.5 -74z" />
    <glyph glyph-name="oe" unicode="&#x153;" horiz-adv-x="913" 
d="M468 438q74 74 194 74q101 0 162.5 -67t61.5 -176q0 -15 -4.5 -33.5t-12.5 -18.5h-324q2 -37 16 -64t34 -39.5t35.5 -18t28.5 -5.5q80 -2 136 78h5l58 -78q-82 -102 -210 -102q-119 0 -185 69q-71 -69 -176 -69q-116 0 -186.5 79t-70.5 183t70.5 183t186.5 79
q109 0 181 -74zM550 308h165q25 0 25 6q-2 31 -13 52t-27 29.5t-27 11.5t-21 3q-13 0 -25.5 -3t-29.5 -12.5t-29.5 -31.5t-17.5 -55zM394 250q0 75 -30.5 117.5t-76.5 42.5t-76.5 -42.5t-30.5 -117.5t30.5 -117.5t76.5 -42.5t76.5 42.5t30.5 117.5z" />
    <glyph glyph-name="Racute" unicode="&#x154;" horiz-adv-x="747" 
d="M222 297v-297h-147v740h92q29 -1 106.5 5t96.5 7q135 7 207.5 -58t72.5 -159v-7q0 -43 -14.5 -84t-55 -78.5t-102.5 -50.5q21 -54 99 -146t149 -161v-8h-188q-164 167 -217 294q-14 0 -41.5 1.5t-57.5 1.5zM222 641v-239q6 0 100 -5q94 -4 135.5 33.5t41.5 95.5v6
q0 21 -8.5 41t-26.5 39t-53 29t-83 6q-80 -6 -106 -6zM341 1058l97 -1q10 0 15 -9.5t0 -18.5l-118 -221l-48 11l12 223q0 16 42 16z" />
    <glyph glyph-name="racute" unicode="&#x155;" horiz-adv-x="477" 
d="M477 465l-97 -129h-5q-3 33 -20.5 51.5t-41.5 17.5q-29 -1 -50 -17.5t-31.5 -43t-15 -51.5t-4.5 -49v-244h-142v500h141v-79h1q12 34 47.5 62.5t100.5 28.5q73 0 117 -47zM215 807l97 -1q10 0 15 -9.5t0 -18.5l-118 -221l-48 11l12 223q0 16 42 16z" />
    <glyph glyph-name="Rcommaaccent" unicode="&#x156;" horiz-adv-x="747" 
d="M222 297v-297h-147v740h92q29 -1 106.5 5t96.5 7q135 7 207.5 -58t72.5 -159v-7q0 -43 -14.5 -84t-55 -78.5t-102.5 -50.5q21 -54 99 -146t149 -161v-8h-188q-164 167 -217 294q-14 0 -41.5 1.5t-57.5 1.5zM222 641v-239q6 0 100 -5q94 -4 135.5 33.5t41.5 95.5v6
q0 21 -8.5 41t-26.5 39t-53 29t-83 6q-80 -6 -106 -6zM222 -151l2 73q161 -58 229 51l72 -104q-39 -45 -99 -57.5t-111.5 0t-92.5 37.5z" />
    <glyph glyph-name="rcommaaccent" unicode="&#x157;" horiz-adv-x="477" 
d="M477 465l-97 -129h-5q-3 33 -20.5 51.5t-41.5 17.5q-29 -1 -50 -17.5t-31.5 -43t-15 -51.5t-4.5 -49v-244h-142v500h141v-79h1q12 34 47.5 62.5t100.5 28.5q73 0 117 -47zM87 -151l2 73q161 -58 229 51l72 -104q-39 -45 -99 -57.5t-111.5 0t-92.5 37.5z" />
    <glyph glyph-name="Rcaron" unicode="&#x158;" horiz-adv-x="747" 
d="M222 297v-297h-147v740h92q29 -1 106.5 5t96.5 7q135 7 207.5 -58t72.5 -159v-7q0 -43 -14.5 -84t-55 -78.5t-102.5 -50.5q21 -54 99 -146t149 -161v-8h-188q-164 167 -217 294q-14 0 -41.5 1.5t-57.5 1.5zM222 641v-239q6 0 100 -5q94 -4 135.5 33.5t41.5 95.5v6
q0 21 -8.5 41t-26.5 39t-53 29t-83 6q-80 -6 -106 -6zM276 989l97 -92l97 92h78l-118 -181h-114l-117 181h77z" />
    <glyph glyph-name="rcaron" unicode="&#x159;" horiz-adv-x="477" 
d="M380 336l97 129q-44 47 -117 47q-65 0 -100.5 -28.5t-47.5 -62.5h-1v79h-141v-500h142v244q0 24 4.5 49t15 51.5t31.5 43t50 17.5q24 1 41.5 -17.5t20.5 -51.5h5zM142 738l97 -92l97 92h78l-118 -181h-114l-117 181h77z" />
    <glyph glyph-name="Sacute" unicode="&#x15a;" horiz-adv-x="579" 
d="M120 189h10q14 -38 46 -62.5t58.5 -31t49.5 -6.5q43 0 75 16.5t38 52.5q7 38 -26 78.5t-122 72.5q-70 25 -117.5 59.5t-66 69.5t-25.5 72t3 68q14 68 79 121t174 53q172 0 256 -141l-107 -61h-10q-25 51 -62.5 75.5t-73.5 25.5q-45 1 -74 -19t-36 -46q-24 -94 110 -143
q79 -29 132.5 -62.5t78.5 -67.5t33.5 -64t6.5 -64q-6 -85 -81 -141t-182 -56q-37 0 -64 3.5t-67 15.5t-76 42.5t-67 78.5zM257 1058l97 -1q10 0 15 -9.5t0 -18.5l-118 -221l-48 11l12 223q0 16 42 16z" />
    <glyph glyph-name="sacute" unicode="&#x15b;" horiz-adv-x="439" 
d="M205 -12q-119 0 -191 51l86 113h5q10 -23 35 -40.5t44 -22.5q28 -8 49.5 -1t25.5 26q4 21 -12.5 39t-44.5 30t-59.5 30t-57.5 38.5t-38 57t-1 83.5q10 44 58.5 82t138.5 38q103 0 170 -53l-81 -107h-5q-30 49 -78 57q-26 5 -44 -2.5t-23 -19.5q-12 -28 10.5 -48.5
t62.5 -37t79.5 -38t62 -62.5t9.5 -99q-11 -48 -60.5 -81t-140.5 -33zM196 807l97 -1q10 0 15 -9.5t0 -18.5l-118 -221l-48 11l12 223q0 16 42 16z" />
    <glyph glyph-name="Scircumflex" unicode="&#x15c;" horiz-adv-x="579" 
d="M120 189h10q14 -38 46 -62.5t58.5 -31t49.5 -6.5q43 0 75 16.5t38 52.5q7 38 -26 78.5t-122 72.5q-70 25 -117.5 59.5t-66 69.5t-25.5 72t3 68q14 68 79 121t174 53q172 0 256 -141l-107 -61h-10q-25 51 -62.5 75.5t-73.5 25.5q-45 1 -74 -19t-36 -46q-24 -94 110 -143
q79 -29 132.5 -62.5t78.5 -67.5t33.5 -64t6.5 -64q-6 -85 -81 -141t-182 -56q-37 0 -64 3.5t-67 15.5t-76 42.5t-67 78.5zM289 893l-102 -85h-47l82 181h134l82 -181h-47z" />
    <glyph glyph-name="scircumflex" unicode="&#x15d;" horiz-adv-x="439" 
d="M205 -12q-119 0 -191 51l86 113h5q10 -23 35 -40.5t44 -22.5q28 -8 49.5 -1t25.5 26q4 21 -12.5 39t-44.5 30t-59.5 30t-57.5 38.5t-38 57t-1 83.5q10 44 58.5 82t138.5 38q103 0 170 -53l-81 -107h-5q-30 49 -78 57q-26 5 -44 -2.5t-23 -19.5q-12 -28 10.5 -48.5
t62.5 -37t79.5 -38t62 -62.5t9.5 -99q-11 -48 -60.5 -81t-140.5 -33zM220 642l-102 -85h-47l82 181h134l82 -181h-47z" />
    <glyph glyph-name="Scedilla" unicode="&#x15e;" horiz-adv-x="579" 
d="M120 189h10q14 -38 46 -62.5t58.5 -31t49.5 -6.5q43 0 75 16.5t38 52.5q7 38 -26 78.5t-122 72.5q-70 25 -117.5 59.5t-66 69.5t-25.5 72t3 68q14 68 79 121t174 53q172 0 256 -141l-107 -61h-10q-25 51 -62.5 75.5t-73.5 25.5q-45 1 -74 -19t-36 -46q-24 -94 110 -143
q79 -29 132.5 -62.5t78.5 -67.5t33.5 -64t6.5 -64q-6 -85 -81 -141t-182 -56q-37 0 -64 3.5t-67 15.5t-76 42.5t-67 78.5zM334 0l-10 -18q-13 -23 8 -58q68 -117 -121 -173l-18 43l12 6t11.5 6t10 5.5t8 6t5.5 7t2.5 8t-1.5 9.5q-3 10 -12 29t-10.5 27.5t3.5 26t21 38.5
l32 37h59z" />
    <glyph glyph-name="scedilla" unicode="&#x15f;" horiz-adv-x="439" 
d="M205 -12q-119 0 -191 51l86 113h5q10 -23 35 -40.5t44 -22.5q28 -8 49.5 -1t25.5 26q4 21 -12.5 39t-44.5 30t-59.5 30t-57.5 38.5t-38 57t-1 83.5q10 44 58.5 82t138.5 38q103 0 170 -53l-81 -107h-5q-30 49 -78 57q-26 5 -44 -2.5t-23 -19.5q-12 -28 10.5 -48.5
t62.5 -37t79.5 -38t62 -62.5t9.5 -99q-11 -48 -60.5 -81t-140.5 -33zM267 0l-10 -18q-13 -23 8 -58q68 -117 -121 -173l-18 43l12 6t11.5 6t10 5.5t8 6t5.5 7t2.5 8t-1.5 9.5q-3 10 -12 29t-10.5 27.5t3.5 26t21 38.5l32 37h59z" />
    <glyph glyph-name="Scaron" unicode="&#x160;" horiz-adv-x="579" 
d="M120 189h10q14 -38 46 -62.5t58.5 -31t49.5 -6.5q43 0 75 16.5t38 52.5q7 38 -26 78.5t-122 72.5q-70 25 -117.5 59.5t-66 69.5t-25.5 72t3 68q14 68 79 121t174 53q172 0 256 -141l-107 -61h-10q-25 51 -62.5 75.5t-73.5 25.5q-45 1 -74 -19t-36 -46q-24 -94 110 -143
q79 -29 132.5 -62.5t78.5 -67.5t33.5 -64t6.5 -64q-6 -85 -81 -141t-182 -56q-37 0 -64 3.5t-67 15.5t-76 42.5t-67 78.5zM192 989l97 -92l97 92h78l-118 -181h-114l-117 181h77z" />
    <glyph glyph-name="scaron" unicode="&#x161;" horiz-adv-x="439" 
d="M205 -12q-119 0 -191 51l86 113h5q10 -23 35 -40.5t44 -22.5q28 -8 49.5 -1t25.5 26q4 21 -12.5 39t-44.5 30t-59.5 30t-57.5 38.5t-38 57t-1 83.5q10 44 58.5 82t138.5 38q103 0 170 -53l-81 -107h-5q-30 49 -78 57q-26 5 -44 -2.5t-23 -19.5q-12 -28 10.5 -48.5
t62.5 -37t79.5 -38t62 -62.5t9.5 -99q-11 -48 -60.5 -81t-140.5 -33zM123 738l97 -92l97 92h78l-118 -181h-114l-117 181h77z" />
    <glyph glyph-name="Tcommaaccent" unicode="&#x162;" horiz-adv-x="587" 
d="M220 640h-198v100h543v-100h-198v-640h-147v640zM142 -151l2 73q161 -58 229 51l72 -104q-39 -45 -99 -57.5t-111.5 0t-92.5 37.5z" />
    <glyph glyph-name="tcommaaccent" unicode="&#x163;" horiz-adv-x="361" 
d="M94 540l83 109l58 -5v-144h126v-100h-126v-226q0 -50 23.5 -67t74.5 -17v-90h-116q-124 0 -124 109v291h-93v100h93zM29 -151l2 73q161 -58 229 51l72 -104q-39 -45 -99 -57.5t-111.5 0t-92.5 37.5z" />
    <glyph glyph-name="Tcaron" unicode="&#x164;" horiz-adv-x="587" 
d="M220 640h-198v100h543v-100h-198v-640h-147v640zM196 989l97 -92l97 92h78l-118 -181h-114l-117 181h77z" />
    <glyph glyph-name="tcaron" unicode="&#x165;" horiz-adv-x="646" 
d="M94 540l83 109l58 -5v-144h126v-100h-126v-226q0 -50 23.5 -67t74.5 -17v-90h-116q-124 0 -124 109v291h-93v100h93zM442 676v20q0 21 17 41.5t48 24.5q37 5 67 -20t31 -71q0 -35 -12.5 -70t-31 -60t-37.5 -44.5t-32 -29.5t-14 -9l-29 27q36 35 51 59.5t9 50.5
q-3 11 -20 18.5t-32 21t-15 41.5z" />
    <glyph glyph-name="Tbar" unicode="&#x166;" horiz-adv-x="587" 
d="M528 253h-161v-253h-147v253h-162v94h162v293h-198v100h543v-100h-198v-293h161v-94z" />
    <glyph glyph-name="tbar" unicode="&#x167;" horiz-adv-x="361" 
d="M235 400v-93h126v-94h-126v-39q0 -50 23.5 -67t74.5 -17v-90h-116q-124 0 -124 109v104h-93v94h93v93h-93v100h93l1 40l83 109l58 -5v-144h126v-100h-126z" />
    <glyph glyph-name="Utilde" unicode="&#x168;" horiz-adv-x="682" 
d="M356 95q-69 0 -104 42t-35 141v462h-147v-488q0 -48 11.5 -90t39.5 -83.5t84.5 -66t135.5 -24.5t135.5 24.5t84.5 66t39.5 83.5t11.5 90v488h-107v-462q0 -183 -149 -183zM219 775h-52q-3 76 33.5 127t92.5 51q29 0 72 -24.5t68 -24.5q27 0 42 10.5t29 38.5h55
q-2 -80 -39 -129t-91 -49q-40 0 -85 22.5t-65 22.5q-51 0 -60 -45z" />
    <glyph glyph-name="utilde" unicode="&#x169;" 
d="M372 0v79h-1q-12 -34 -46.5 -62.5t-99.5 -28.5q-70 0 -113 42.5t-43 118.5v351h142v-324q0 -81 59 -81q40 0 64 30t30.5 62.5t6.5 68.5v244h142v-500h-141zM154 534h-52q-3 76 33.5 127t92.5 51q28 0 71 -24.5t69 -24.5q27 0 42 10.5t29 38.5h55q-2 -80 -39 -129t-91 -49
q-40 0 -85 22.5t-65 22.5q-51 0 -60 -45z" />
    <glyph glyph-name="Umacron" unicode="&#x16a;" horiz-adv-x="682" 
d="M356 95q-69 0 -104 42t-35 141v462h-147v-488q0 -48 11.5 -90t39.5 -83.5t84.5 -66t135.5 -24.5t135.5 24.5t84.5 66t39.5 83.5t11.5 90v488h-107v-462q0 -183 -149 -183zM595 804h-510v94h510v-94z" />
    <glyph glyph-name="umacron" unicode="&#x16b;" 
d="M372 0v79h-1q-12 -34 -46.5 -62.5t-99.5 -28.5q-70 0 -113 42.5t-43 118.5v351h142v-324q0 -81 59 -81q40 0 64 30t30.5 62.5t6.5 68.5v244h142v-500h-141zM546 553h-510v94h510v-94z" />
    <glyph glyph-name="Ubreve" unicode="&#x16c;" horiz-adv-x="682" 
d="M356 95q149 0 149 183v462h107v-488q0 -48 -11.5 -90t-39.5 -83.5t-84.5 -66t-135.5 -24.5t-135.5 24.5t-84.5 66t-39.5 83.5t-11.5 90v488h147v-462q0 -99 35 -141t104 -42zM342 915q31 0 57 20t34 62h75q-4 -190 -166 -190t-166 190h75q8 -42 34 -62t57 -20z" />
    <glyph glyph-name="ubreve" unicode="&#x16d;" 
d="M372 0v79h-1q-12 -34 -46.5 -62.5t-99.5 -28.5q-70 0 -113 42.5t-43 118.5v351h142v-324q0 -81 59 -81q40 0 64 30t30.5 62.5t6.5 68.5v244h142v-500h-141zM292 664q31 0 57 20t34 62h75q-4 -190 -166 -190t-166 190h75q8 -42 34 -62t57 -20z" />
    <glyph glyph-name="Uring" unicode="&#x16e;" horiz-adv-x="682" 
d="M356 95q-69 0 -104 42t-35 141v462h-147v-488q0 -48 11.5 -90t39.5 -83.5t84.5 -66t135.5 -24.5t135.5 24.5t84.5 66t39.5 83.5t11.5 90v488h-107v-462q0 -183 -149 -183zM213 935q-1 53 37 90.5t92 37.5t90.5 -37t37.5 -91q0 -53 -38 -90t-92 -37q-52 0 -89.5 37
t-37.5 90zM282 935q-1 -25 16.5 -43t41.5 -18q26 0 43 18t18 43q0 25 -17.5 42.5t-41.5 17.5q-26 0 -43.5 -17.5t-16.5 -42.5z" />
    <glyph glyph-name="uring" unicode="&#x16f;" 
d="M372 0v79h-1q-12 -34 -46.5 -62.5t-99.5 -28.5q-70 0 -113 42.5t-43 118.5v351h142v-324q0 -81 59 -81q40 0 64 30t30.5 62.5t6.5 68.5v244h142v-500h-141zM163 684q-1 53 37 90.5t92 37.5t90.5 -37t37.5 -91q0 -53 -38 -90t-92 -37q-52 0 -89.5 37t-37.5 90zM232 684
q-1 -25 16.5 -43t41.5 -18q26 0 43 18t18 43q0 25 -17.5 42.5t-41.5 17.5q-26 0 -43.5 -17.5t-16.5 -42.5z" />
    <glyph glyph-name="Uhungarumlaut" unicode="&#x170;" horiz-adv-x="682" 
d="M356 95q-69 0 -104 42t-35 141v462h-147v-488q0 -48 11.5 -90t39.5 -83.5t84.5 -66t135.5 -24.5t135.5 24.5t84.5 66t39.5 83.5t11.5 90v488h-107v-462q0 -183 -149 -183zM199 1071h117q11 0 17.5 -6.5t4.5 -16.5l-56 -240h-49l-56 240q-2 10 4.5 16.5t17.5 6.5z
M418 1071h117q11 0 17.5 -6.5t4.5 -16.5l-56 -240h-49l-56 240q-2 10 4.5 16.5t17.5 6.5z" />
    <glyph glyph-name="uhungarumlaut" unicode="&#x171;" 
d="M372 0v79h-1q-12 -34 -46.5 -62.5t-99.5 -28.5q-70 0 -113 42.5t-43 118.5v351h142v-324q0 -81 59 -81q40 0 64 30t30.5 62.5t6.5 68.5v244h142v-500h-141zM123 820h117q11 0 17.5 -6.5t4.5 -16.5l-56 -240h-49l-56 240q-2 10 4.5 16.5t17.5 6.5zM342 820h117
q11 0 17.5 -6.5t4.5 -16.5l-56 -240h-49l-56 240q-2 10 4.5 16.5t17.5 6.5z" />
    <glyph glyph-name="Uogonek" unicode="&#x172;" horiz-adv-x="682" 
d="M356 95q149 0 149 183v462h107v-488q0 -48 -11.5 -90t-39.5 -83.5t-84.5 -66t-135.5 -24.5t-135.5 24.5t-84.5 66t-39.5 83.5t-11.5 90v488h147v-462q0 -99 35 -141t104 -42zM566 -185q-55 -22 -100 -22q-40 0 -62.5 22.5t-23.5 53.5q-1 51 62 132h71q-24 -51 -26 -80
q-3 -48 40 -48q26 0 49 10z" />
    <glyph glyph-name="uogonek" unicode="&#x173;" 
d="M372 0v79h-1q-12 -34 -46.5 -62.5t-99.5 -28.5q-70 0 -113 42.5t-43 118.5v351h142v-324q0 -81 59 -81q40 0 64 30t30.5 62.5t6.5 68.5v244h142v-500h-141zM529 -184q-55 -22 -100 -22q-40 0 -62.5 22.5t-23.5 53.5q-1 51 62 132h71q-24 -51 -26 -80q-3 -48 40 -48
q26 0 49 10z" />
    <glyph glyph-name="Wcircumflex" unicode="&#x174;" horiz-adv-x="940" 
d="M694 324l124 416h103v-6l-244 -743h-20l-189 587l-200 -587h-20l-228 741v8h156l109 -416l134 416h154zM470 893l-102 -85h-47l82 181h134l82 -181h-47z" />
    <glyph glyph-name="wcircumflex" unicode="&#x175;" horiz-adv-x="758" 
d="M546 240l86 260h111v-8l-173 -492h-72l-119 337l-114 -337h-72l-178 492v8h149l78 -260l82 260h148zM379 642l-102 -85h-47l82 181h134l82 -181h-47z" />
    <glyph glyph-name="Ydieresis" unicode="&#x178;" horiz-adv-x="599" 
d="M322 388l154 352h103v-6l-201 -442v-292h-147v290l-211 442v8h156zM87 886q0 33 22.5 56t55.5 23t56 -23t23 -56t-23 -55.5t-56 -22.5t-55.5 22.5t-22.5 55.5zM355 886q0 33 22.5 56t55.5 23t56 -23t23 -56t-23 -55.5t-56 -22.5t-55.5 22.5t-22.5 55.5z" />
    <glyph glyph-name="Zacute" unicode="&#x179;" horiz-adv-x="579" 
d="M222 100h357v-100h-559v42l349 600h-336v96h528v-47zM257 1058l97 -1q10 0 15 -9.5t0 -18.5l-118 -221l-48 11l12 223q0 16 42 16z" />
    <glyph glyph-name="zacute" unicode="&#x17a;" horiz-adv-x="482" 
d="M226 99h236v-99h-442v44l224 356h-214v100h419v-44zM217 807l97 -1q10 0 15 -9.5t0 -18.5l-118 -221l-48 11l12 223q0 16 42 16z" />
    <glyph glyph-name="Zdotaccent" unicode="&#x17b;" horiz-adv-x="579" 
d="M222 100h357v-100h-559v42l349 600h-336v96h528v-47zM207 935q0 33 22.5 56t55.5 23t56 -23t23 -56t-23 -55.5t-56 -22.5t-55.5 22.5t-22.5 55.5z" />
    <glyph glyph-name="zdotaccent" unicode="&#x17c;" horiz-adv-x="482" 
d="M226 99h236v-99h-442v44l224 356h-214v100h419v-44zM159 684q0 33 22.5 56t55.5 23t56 -23t23 -56t-23 -55.5t-56 -22.5t-55.5 22.5t-22.5 55.5z" />
    <glyph glyph-name="Zcaron" unicode="&#x17d;" horiz-adv-x="599" 
d="M222 100h357v-100h-559v42l349 600h-336v96h528v-47zM202 989l97 -92l97 92h78l-118 -181h-114l-117 181h77z" />
    <glyph glyph-name="zcaron" unicode="&#x17e;" horiz-adv-x="482" 
d="M226 99h236v-99h-442v44l224 356h-214v100h419v-44zM144 738l97 -92l97 92h78l-118 -181h-114l-117 181h77z" />
    <glyph glyph-name="florin" unicode="&#x192;" horiz-adv-x="460" 
d="M233 250l-12 -48q-18 -73 -67 -269q-48 -194 -212 -194q-83 0 -124 34l99 104h5q2 -13 10 -20.5t14 -9.5t9 -2q5 0 8.5 0.5t14.5 5t19 13t16.5 27.5t12.5 46q19 127 39 209l18 71q10 40 25.5 100.5t20.5 82.5h-93l25 100h90q12 58 35 103t54.5 72.5t50.5 39t44 23.5
q23 11 62.5 16.5t85 -0.5t72.5 -26l-98 -104h-5q-3 13 -12.5 20.5t-16 9.5t-10.5 2q-41 5 -78 -31t-43 -125h143l-25 -100h-140q-8 -38 -37 -150z" />
    <glyph glyph-name="AEacute" unicode="&#x1fc;" horiz-adv-x="927" 
d="M426 542l-174 -298h174v298zM426 0v144h-224l-79 -144h-103v6l412 734h452v-100h-312v-197h246v-100h-246v-243h335v-100h-481zM492 1060l97 -1q10 0 15 -9.5t0 -18.5l-118 -221l-48 11l12 223q0 16 42 16z" />
    <glyph glyph-name="aeacute" unicode="&#x1fd;" horiz-adv-x="1110" 
d="M411 451q69 61 170 61q103 0 165 -67t62 -176q0 -15 -4.5 -33.5t-12.5 -18.5h-324q2 -37 16 -63.5t34 -38t35.5 -16t28.5 -4.5q76 0 136 73h5l58 -78q-82 -102 -210 -102q-118 0 -181 68q-92 -73 -208 -68q-59 3 -103.5 37t-47.5 97q-5 94 70 145t222 41v16q0 43 -24 62
t-60 19q-10 0 -21.5 -2.5t-26.5 -9t-28.5 -21t-21.5 -35.5h-5l-80 106q81 65 187 69q107 4 169 -61zM575 405q-10 0 -21 -2.5t-29.5 -10.5t-32.5 -29.5t-19 -54.5h162q25 0 25 6q-2 30 -13.5 50.5t-28 28t-26 10t-17.5 2.5zM322 207v4q-18 3 -42.5 1t-46.5 -7t-38.5 -20
t-17.5 -39q-1 -25 15 -39t39 -12q42 4 66.5 36.5t24.5 75.5zM531 807l97 -1q10 0 15 -9.5t0 -18.5l-118 -221l-48 11l12 223q0 16 42 16z" />
    <glyph glyph-name="Oslashacute" unicode="&#x1fe;" horiz-adv-x="776" 
d="M496 736l45 93h117l-68 -140q71 -53 108.5 -137.5t37.5 -174.5v-13q0 -54 -13 -106.5t-41 -101.5t-67.5 -86t-98 -59.5t-128.5 -22.5q-69 0 -127 22l-50 -105h-114l75 156q-65 54 -98.5 135.5t-33.5 167.5v13q0 68 21.5 133t62 120t109.5 88.5t155 33.5q57 0 108 -16z
M388 89q94 0 145 73.5t51 207.5q0 132 -49 205l-227 -469q36 -17 80 -17zM388 651q-94 0 -145 -73.5t-51 -207.5q0 -117 38 -187l220 458q-32 10 -62 10zM355 1060l97 -1q10 0 15 -9.5t0 -18.5l-118 -221l-48 11l12 223q0 16 42 16z" />
    <glyph glyph-name="oslashacute" unicode="&#x1ff;" horiz-adv-x="574" 
d="M191 171l141 226q-20 13 -45 13q-46 0 -76.5 -42.5t-30.5 -117.5q0 -44 11 -79zM530 555l-69 -110q83 -78 83 -195q0 -104 -70.5 -183t-186.5 -79q-53 0 -101 19l-36 -57h-97l63 101q-86 78 -86 199q0 104 70.5 183t186.5 79q54 0 104 -21l40 64h99zM263 807l97 -1
q10 0 15 -9.5t0 -18.5l-118 -221l-48 11l12 223q0 16 42 16zM384 323l-139 -222q20 -11 42 -11q46 0 76.5 42.5t30.5 117.5q0 38 -10 73z" />
    <glyph glyph-name="Scommaaccent" unicode="&#x218;" horiz-adv-x="579" 
d="M120 189h10q14 -38 46 -62.5t58.5 -31t49.5 -6.5q43 0 75 16.5t38 52.5q7 38 -26 78.5t-122 72.5q-70 25 -117.5 59.5t-66 69.5t-25.5 72t3 68q14 68 79 121t174 53q172 0 256 -141l-107 -61h-10q-25 51 -62.5 75.5t-73.5 25.5q-45 1 -74 -19t-36 -46q-24 -94 110 -143
q79 -29 132.5 -62.5t78.5 -67.5t33.5 -64t6.5 -64q-6 -85 -81 -141t-182 -56q-37 0 -64 3.5t-67 15.5t-76 42.5t-67 78.5zM153 -151l2 73q161 -58 229 51l72 -104q-39 -45 -99 -57.5t-111.5 0t-92.5 37.5z" />
    <glyph glyph-name="scommaaccent" unicode="&#x219;" horiz-adv-x="439" 
d="M205 -12q-119 0 -191 51l86 113h5q10 -23 35 -40.5t44 -22.5q28 -8 49.5 -1t25.5 26q4 21 -12.5 39t-44.5 30t-59.5 30t-57.5 38.5t-38 57t-1 83.5q10 44 58.5 82t138.5 38q103 0 170 -53l-81 -107h-5q-30 49 -78 57q-26 5 -44 -2.5t-23 -19.5q-12 -28 10.5 -48.5
t62.5 -37t79.5 -38t62 -62.5t9.5 -99q-11 -48 -60.5 -81t-140.5 -33zM68 -151l2 73q161 -58 229 51l72 -104q-39 -45 -99 -57.5t-111.5 0t-92.5 37.5z" />
    <glyph glyph-name="circumflex" unicode="&#x2c6;" horiz-adv-x="556" 
d="M278 642l-102 -85h-47l82 181h134l82 -181h-47z" />
    <glyph glyph-name="caron" unicode="&#x2c7;" horiz-adv-x="554" 
d="M180 738l97 -92l97 92h78l-118 -181h-114l-117 181h77z" />
    <glyph glyph-name="breve" unicode="&#x2d8;" horiz-adv-x="558" 
d="M282 664q31 0 57 20t34 62h75q-4 -190 -166 -190t-166 190h75q8 -42 34 -62t57 -20z" />
    <glyph glyph-name="dotaccent" unicode="&#x2d9;" horiz-adv-x="554" 
d="M198 684q0 33 22.5 56t55.5 23t56 -23t23 -56t-23 -55.5t-56 -22.5t-55.5 22.5t-22.5 55.5z" />
    <glyph glyph-name="ring" unicode="&#x2da;" horiz-adv-x="554" 
d="M149 684q-1 53 37 90.5t92 37.5t90.5 -37t37.5 -91q0 -53 -38 -90t-92 -37q-52 0 -89.5 37t-37.5 90zM218 684q-1 -25 16.5 -43t41.5 -18q26 0 43 18t18 43q0 25 -17.5 42.5t-41.5 17.5q-26 0 -43.5 -17.5t-16.5 -42.5z" />
    <glyph glyph-name="ogonek" unicode="&#x2db;" horiz-adv-x="400" 
d="M312 -184q-55 -22 -100 -22q-40 0 -62.5 22.5t-23.5 53.5q-1 51 62 132h71q-24 -51 -26 -80q-3 -48 40 -48q26 0 49 10z" />
    <glyph glyph-name="tilde" unicode="&#x2dc;" horiz-adv-x="392" 
d="M52 506h-52q-3 76 33.5 127t92.5 51q28 0 71 -24.5t69 -24.5q27 0 42 10.5t29 38.5h55q-2 -80 -39 -129t-91 -49q-40 0 -85 22.5t-65 22.5q-51 0 -60 -45z" />
    <glyph glyph-name="hungarumlaut" unicode="&#x2dd;" horiz-adv-x="610" 
d="M135 820h117q11 0 17.5 -6.5t4.5 -16.5l-56 -240h-49l-56 240q-2 10 4.5 16.5t17.5 6.5zM354 820h117q11 0 17.5 -6.5t4.5 -16.5l-56 -240h-49l-56 240q-2 10 4.5 16.5t17.5 6.5z" />
    <glyph glyph-name="commaaccent.001" unicode="&#x326;" horiz-adv-x="554" 
d="M211 754v10q0 17 12 29.5t27 15.5q36 6 63 -16t26 -67q0 -28 -11 -56t-26.5 -47.5t-31 -35t-26.5 -23t-12 -7.5l-21 8q67 65 59 117q-2 12 -12 19t-20 9.5t-18.5 13.5t-8.5 30z" />
    <glyph glyph-name="uni037E" unicode="&#x37e;" horiz-adv-x="311" 
d="M70 434q0 33 22.5 56t55.5 23t56 -23t23 -56t-23 -55.5t-56 -22.5t-55.5 22.5t-22.5 55.5zM69 61v20q0 21 18 41.5t49 24.5q37 5 67 -20t32 -71q2 -36 -11.5 -72t-33 -61t-40.5 -44.5t-35.5 -29.5t-15.5 -9l-29 27q26 26 39 40t23 35t6 38q-3 11 -20.5 18.5t-33 21
t-15.5 41.5z" />
    <glyph glyph-name="tonos" unicode="&#x384;" horiz-adv-x="287" 
d="M131 812h97q10 0 15 -9.5t0 -18.5l-133 -241l-48 11l27 242q1 16 42 16z" />
    <glyph glyph-name="dieresistonos" unicode="&#x385;" horiz-adv-x="629" 
d="M311 807l97 -1q10 0 15 -9.5t0 -18.5l-125 -221l-33 11l19 223q0 16 27 16zM77 658q0 33 22.5 56t55.5 23t56 -23t23 -56t-23 -55.5t-56 -22.5t-55.5 22.5t-22.5 55.5zM405 658q0 33 22.5 56t55.5 23t56 -23t23 -56t-23 -55.5t-56 -22.5t-55.5 22.5t-22.5 55.5z" />
    <glyph glyph-name="Alphatonos" unicode="&#x386;" horiz-adv-x="599" 
d="M32 744h114q11 0 17 -6.5t5 -16.5l-53 -240h-52l-53 240q-1 10 5 16.5t17 6.5zM423 0l-50 144h-197l-53 -144h-103v6l269 741h20l270 -739v-8h-156zM277 418l-64 -174h125z" />
    <glyph glyph-name="anoteleia" unicode="&#x387;" horiz-adv-x="296" 
d="M68 279q0 33 22.5 56t55.5 23t56 -23t23 -56t-23 -55.5t-56 -22.5t-55.5 22.5t-22.5 55.5z" />
    <glyph glyph-name="Epsilontonos" unicode="&#x388;" horiz-adv-x="740" 
d="M48 741h114q11 0 17 -6.5t5 -16.5l-53 -240h-52l-53 240q-1 10 5 16.5t17 6.5zM380 343v-243h335v-100h-481v740h458v-100h-312v-197h246v-100h-246z" />
    <glyph glyph-name="Etatonos" unicode="&#x389;" horiz-adv-x="906" 
d="M45 742h114q11 0 17 -6.5t5 -16.5l-53 -240h-52l-53 240q-1 10 5 16.5t17 6.5zM688 343v-343h148v740h-148v-297h-319v297h-148v-740h148v343h319z" />
    <glyph glyph-name="Iotatonos" unicode="&#x38a;" horiz-adv-x="449" 
d="M50 739h114q11 0 17 -6.5t5 -16.5l-53 -240h-52l-53 240q-1 10 5 16.5t17 6.5zM231 738h148v-738h-148v738z" />
    <glyph glyph-name="Omicrontonos" unicode="&#x38c;" horiz-adv-x="884" 
d="M33 747h114q11 0 17 -6.5t5 -16.5l-53 -240h-52l-53 240q-1 10 5 16.5t17 6.5zM496 651q-94 0 -145 -73.5t-51 -207.5t51 -207.5t145 -73.5t145 73.5t51 207.5t-51 207.5t-145 73.5zM496 752q86 0 155 -33.5t109.5 -88.5t62 -120t21.5 -133v-13q0 -54 -13 -106.5
t-41 -101.5t-67.5 -86t-98 -59.5t-128.5 -22.5t-128.5 22.5t-98 59.5t-67.5 86t-41 101.5t-13 106.5v13q0 68 21.5 133t62 120t109.5 88.5t155 33.5z" />
    <glyph glyph-name="Upsilontonos" unicode="&#x38e;" horiz-adv-x="608" 
d="M302 402h4q30 288 233 338l49 -127v-6q-63 -16 -107 -63t-65.5 -114.5t-30 -132t-8.5 -136.5v-161h-147v161q0 72 -8.5 136.5t-29.5 132t-65 114.5t-107 63v6l49 127q61 -13 105 -46t69.5 -82.5t38.5 -98.5t20 -111zM284 1003l97 -1q10 0 15 -9.5t0 -18.5l-118 -221
l-48 11l12 223q0 16 42 16z" />
    <glyph glyph-name="Omegatonos" unicode="&#x38f;" horiz-adv-x="900" 
d="M33 747h114q11 0 17 -6.5t5 -16.5l-53 -240h-52l-53 240q-1 10 5 16.5t17 6.5zM512 651q-95 0 -145.5 -71.5t-50.5 -204.5q2 -83 32 -161t91 -114v-100h-275v100h108q-108 92 -108 282q0 68 21 132t62 118t110 87t155 33t155 -33t110 -87t62 -118t21 -132
q0 -86 -27.5 -161t-80.5 -121h108v-100h-275v100q61 36 91 114t32 161q0 133 -50.5 204.5t-145.5 71.5z" />
    <glyph glyph-name="iotadieresistonos" unicode="&#x390;" horiz-adv-x="397" 
d="M270 500v-317q0 -52 17.5 -68t70.5 -16v-99h-118q-50 0 -81 29t-31 75v396h142zM234 807l97 -1q10 0 15 -9.5t0 -18.5l-125 -221l-33 11l19 223q0 16 27 16zM0 658q0 33 22.5 56t55.5 23t56 -23t23 -56t-23 -55.5t-56 -22.5t-55.5 22.5t-22.5 55.5zM328 658q0 33 22.5 56
t55.5 23t56 -23t23 -56t-23 -55.5t-56 -22.5t-55.5 22.5t-22.5 55.5z" />
    <glyph glyph-name="Alpha" unicode="&#x391;" horiz-adv-x="599" 
d="M423 0l-50 144h-197l-53 -144h-103v6l269 741h20l270 -739v-8h-156zM277 418l-64 -174h125z" />
    <glyph glyph-name="Beta" unicode="&#x392;" horiz-adv-x="678" 
d="M516 392q61 -22 91.5 -72t30.5 -106v-9q0 -94 -72.5 -159t-207.5 -58q-18 1 -98.5 7t-109.5 5h-75v740h56q29 -1 107 5t97 7q135 7 202.5 -51.5t67.5 -149.5v-7q0 -49 -24 -93.5t-65 -58.5zM328 431q65 -2 95.5 27.5t30.5 80.5v3q0 53 -38.5 82.5t-115.5 22.5
q-60 -6 -78 -6v-210h106zM328 324h-106v-225q26 0 106 -6q47 -4 80.5 6t49.5 29.5t22.5 38.5t6.5 41v3q0 48 -34.5 81.5t-124.5 31.5z" />
    <glyph glyph-name="Gamma" unicode="&#x393;" horiz-adv-x="513" 
d="M221 0h-146v740h418v-100h-272v-640z" />
    <glyph glyph-name="Delta" unicode="&#x394;" horiz-adv-x="600" 
d="M580 0h-559v6l274 743h20l265 -741v-8zM278 416l-115 -311h224z" />
    <glyph glyph-name="Delta" unicode="&#x2206;" horiz-adv-x="600" 
d="M580 0h-559v6l274 743h20l265 -741v-8zM278 416l-115 -311h224z" />
    <glyph glyph-name="Epsilon" unicode="&#x395;" horiz-adv-x="573" 
d="M216 343v-243h335v-100h-481v740h458v-100h-312v-197h246v-100h-246z" />
    <glyph glyph-name="Zeta" unicode="&#x396;" horiz-adv-x="579" 
d="M222 100h357v-100h-559v42l349 600h-336v96h528v-47z" />
    <glyph glyph-name="Eta" unicode="&#x397;" horiz-adv-x="755" 
d="M537 0v343h-319v-343h-148v740h148v-297h319v297h148v-740h-148z" />
    <glyph glyph-name="Theta" unicode="&#x398;" horiz-adv-x="779" 
d="M240 417h298v-99h-298v99zM388 651q-94 0 -145 -73.5t-51 -207.5t51 -207.5t145 -73.5t145 73.5t51 207.5t-51 207.5t-145 73.5zM388 752q86 0 155 -33.5t109.5 -88.5t62 -120t21.5 -133v-13q0 -54 -13 -106.5t-41 -101.5t-67.5 -86t-98 -59.5t-128.5 -22.5t-128.5 22.5
t-98 59.5t-67.5 86t-41 101.5t-13 106.5v13q0 68 21.5 133t62 120t109.5 88.5t155 33.5z" />
    <glyph glyph-name="Iota" unicode="&#x399;" horiz-adv-x="308" 
d="M80 738h148v-738h-148v738z" />
    <glyph glyph-name="Kappa" unicode="&#x39a;" horiz-adv-x="632" 
d="M373 455h3q8 0 21 -2t37 -11t43 -25t33.5 -48t14.5 -75v-130q0 -38 18.5 -51t58.5 -13v-100q-125 -6 -175.5 24.5t-49.5 104.5v91q0 44 -9 71t-31 40t-45.5 16.5t-64.5 3.5h-10v-351h-147v740h147v-285q17 0 19 3l203 282h140v-6z" />
    <glyph glyph-name="Lambda" unicode="&#x39b;" horiz-adv-x="599" 
d="M277 416l-154 -416h-103v6l274 743h20l265 -741v-8h-156z" />
    <glyph glyph-name="Mu" unicode="&#x39c;" horiz-adv-x="881" 
d="M682 404l-231 -404h-20l-231 404l-23 -404h-146l43 740h67l300 -537l300 537h67l43 -740h-146z" />
    <glyph glyph-name="Nu" unicode="&#x39d;" horiz-adv-x="682" 
d="M175 0h-105v740h96l341 -465v465h105v-740h-104l-333 462v-462z" />
    <glyph glyph-name="Xi" unicode="&#x39e;" horiz-adv-x="582" 
d="M41 740h500v-120h-500v120zM91 432h400v-99h-400v99zM30 121h522v-121h-522v121z" />
    <glyph glyph-name="Omicron" unicode="&#x39f;" horiz-adv-x="779" 
d="M388 651q-94 0 -145 -73.5t-51 -207.5t51 -207.5t145 -73.5t145 73.5t51 207.5t-51 207.5t-145 73.5zM388 752q86 0 155 -33.5t109.5 -88.5t62 -120t21.5 -133v-13q0 -54 -13 -106.5t-41 -101.5t-67.5 -86t-98 -59.5t-128.5 -22.5t-128.5 22.5t-98 59.5t-67.5 86
t-41 101.5t-13 106.5v13q0 68 21.5 133t62 120t109.5 88.5t155 33.5z" />
    <glyph glyph-name="Pi" unicode="&#x3a0;" horiz-adv-x="682" 
d="M70 740h542v-740h-148v640h-246v-640h-148v740z" />
    <glyph glyph-name="Rho" unicode="&#x3a1;" horiz-adv-x="690" 
d="M222 292v-292h-147v740h92q29 -1 106.5 5t96.5 7q134 7 207 -62.5t73 -164.5v-22q0 -94 -72.5 -159t-207.5 -58q-23 1 -75.5 3t-72.5 3zM499 506v16q0 21 -8.5 42.5t-26.5 42.5t-53.5 32.5t-82.5 7.5q-80 -6 -106 -6v-244q26 0 106 -6q48 -4 83 6t53 29t26.5 39t8.5 41z
" />
    <glyph glyph-name="Sigma" unicode="&#x3a3;" horiz-adv-x="582" 
d="M227 640l243 -256l-277 -244h359v-140h-522v127l260 237l-260 269v107h522v-100h-325z" />
    <glyph glyph-name="Tau" unicode="&#x3a4;" horiz-adv-x="587" 
d="M220 640h-198v100h543v-100h-198v-640h-147v640z" />
    <glyph glyph-name="Upsilon" unicode="&#x3a5;" horiz-adv-x="608" 
d="M302 402h4q30 288 233 338l49 -127v-6q-63 -16 -107 -63t-65.5 -114.5t-30 -132t-8.5 -136.5v-161h-147v161q0 72 -8.5 136.5t-29.5 132t-65 114.5t-107 63v6l49 127q61 -13 105 -46t69.5 -82.5t38.5 -98.5t20 -111z" />
    <glyph glyph-name="Phi" unicode="&#x3a6;" horiz-adv-x="940" 
d="M541 154v-154h-146v154q-63 -26 -116 -25q-108 2 -172.5 65.5t-67.5 182.5q-3 108 67.5 178t172.5 70q60 0 116 -25v140h146v-140q56 25 116 25q102 0 172.5 -70t67.5 -178q-3 -119 -67.5 -182.5t-172.5 -65.5q-53 -1 -116 25zM541 492v-229q57 -34 106 -29q44 4 73 38.5
t31 104.5q2 69 -28.5 103.5t-75.5 39.5q-47 5 -106 -28zM395 263v229q-59 33 -106 28q-45 -5 -75.5 -39.5t-28.5 -103.5q2 -70 31 -104.5t73 -38.5q49 -5 106 29z" />
    <glyph glyph-name="Chi" unicode="&#x3a7;" horiz-adv-x="633" 
d="M20 0v10l206 367l-191 352v11h156l118 -224l129 224h103v-9l-179 -313l217 -406v-12h-156l-144 274l-156 -274h-103z" />
    <glyph glyph-name="Psi" unicode="&#x3a8;" horiz-adv-x="872" 
d="M510 256v-256h-148v256q-52 2 -101 17t-93 43t-71 76.5t-27 111.5v236h148v-187q0 -101 34 -145.5t110 -48.5v381h148v-381q76 4 110 48.5t34 145.5v187h148v-236q0 -63 -27 -111.5t-71 -76.5t-93 -43t-101 -17z" />
    <glyph glyph-name="Iotadieresis" unicode="&#x3aa;" horiz-adv-x="428" 
d="M139 738h148v-738h-148v738zM1 886q0 33 22.5 56t55.5 23t56 -23t23 -56t-23 -55.5t-56 -22.5t-55.5 22.5t-22.5 55.5zM269 886q0 33 22.5 56t55.5 23t56 -23t23 -56t-23 -55.5t-56 -22.5t-55.5 22.5t-22.5 55.5z" />
    <glyph glyph-name="Upsilondieresis" unicode="&#x3ab;" horiz-adv-x="608" 
d="M306 402h-4q-7 62 -20 111t-38.5 98.5t-69.5 82.5t-105 46l-49 -127v-6q63 -16 107 -63t65 -114.5t29.5 -132t8.5 -136.5v-161h147v161q0 72 8.5 136.5t30 132t65.5 114.5t107 63v6l-49 127q-203 -50 -233 -338zM119 879q0 33 22.5 56t55.5 23t56 -23t23 -56t-23 -55.5
t-56 -22.5t-55.5 22.5t-22.5 55.5zM387 879q0 33 22.5 56t55.5 23t56 -23t23 -56t-23 -55.5t-56 -22.5t-55.5 22.5t-22.5 55.5z" />
    <glyph glyph-name="alphatonos" unicode="&#x3ac;" horiz-adv-x="722" 
d="M404 258q4 73 -22.5 110.5t-71.5 41.5t-80.5 -25.5t-48.5 -101.5q-15 -83 8.5 -141t83.5 -57q50 1 80 29.5t39 62t12 81.5zM621 500l-20 -71q-41 -148 -47 -182q-17 -110 45 -138q25 -11 65 -11v-98h-58q-37 0 -61.5 2.5t-52.5 10.5t-46 26.5t-26 48.5q-22 -48 -74 -74
t-109 -26q-53 0 -94 19t-62.5 49.5t-35.5 69.5t-14 79t4 78q36 229 252 229q112 0 165 -84l19 72h150zM335 807l97 -1q10 0 15 -9.5t0 -18.5l-118 -221l-48 11l12 223q0 16 42 16z" />
    <glyph glyph-name="epsilontonos" unicode="&#x3ad;" horiz-adv-x="455" 
d="M340 348h-5q-24 62 -88 62q-26 0 -44 -13.5t-18 -31.5t15 -32.5t50 -14.5v-98q-49 0 -69 -18.5t-18 -48.5t25.5 -46.5t64.5 -16.5q28 0 60 18t49 48h5l73 -104q-76 -64 -206 -64q-99 0 -158 42t-65 111q-4 50 26 89t94 48q-46 8 -69 40.5t-21 70.5q4 55 55.5 89t126.5 34
q114 0 190 -60zM220 807l97 -1q10 0 15 -9.5t0 -18.5l-118 -221l-48 11l12 223q0 16 42 16z" />
    <glyph glyph-name="etatonos" unicode="&#x3ae;" horiz-adv-x="585" 
d="M548 -250h-142q-34 120 -34 301v273q0 81 -59 81q-40 0 -64 -30t-30.5 -62.5t-6.5 -68.5v-244h-142v500h141v-79h1q12 34 46.5 62.5t99.5 28.5q70 0 113 -42.5t43 -118.5v-314q0 -160 34 -287zM242 807l97 -1q10 0 15 -9.5t0 -18.5l-118 -221l-48 11l12 223q0 16 42 16z
" />
    <glyph glyph-name="iotatonos" unicode="&#x3af;" horiz-adv-x="288" 
d="M227 500v-317q0 -52 17.5 -68t70.5 -16v-99h-118q-50 0 -81 29t-31 75v396h142zM119 807l97 -1q10 0 15 -9.5t0 -18.5l-118 -221l-48 11l12 223q0 16 42 16z" />
    <glyph glyph-name="upsilondieresistonos" unicode="&#x3b0;" horiz-adv-x="524" 
d="M334 500h137q14 -22 28.5 -82t13.5 -115q-2 -86 -29 -155t-86 -114.5t-141 -45.5q-83 0 -135 50.5t-52 146.5v124q0 37 -2 67t-5.5 50.5t-6 31.5t-7.5 25t-6 17h139q9 -13 19.5 -50t10.5 -87v-157q0 -116 63 -116q46 0 69.5 47t27.5 150q4 119 -38 213zM265 807l97 -1
q10 0 15 -9.5t0 -18.5l-125 -221l-33 11l19 223q0 16 27 16zM31 658q0 33 22.5 56t55.5 23t56 -23t23 -56t-23 -55.5t-56 -22.5t-55.5 22.5t-22.5 55.5zM359 658q0 33 22.5 56t55.5 23t56 -23t23 -56t-23 -55.5t-56 -22.5t-55.5 22.5t-22.5 55.5z" />
    <glyph glyph-name="alpha" unicode="&#x3b1;" horiz-adv-x="689" 
d="M404 258q4 73 -22.5 110.5t-71.5 41.5t-80.5 -25.5t-48.5 -101.5q-15 -83 8.5 -141t83.5 -57q50 1 80 29.5t39 62t12 81.5zM621 500l-20 -71q-41 -148 -47 -182q-17 -110 45 -138q25 -11 65 -11v-98h-58q-37 0 -61.5 2.5t-52.5 10.5t-46 26.5t-26 48.5q-22 -48 -74 -74
t-109 -26q-53 0 -94 19t-62.5 49.5t-35.5 69.5t-14 79t4 78q36 229 252 229q112 0 165 -84l19 72h150z" />
    <glyph glyph-name="beta" unicode="&#x3b2;" horiz-adv-x="587" 
d="M212 20v-12q0 -82 -3.5 -133t-7.5 -71.5t-13 -53.5h-142q24 89 24 287v486q0 103 64 170t159 69q101 2 155 -49t56 -123q2 -49 -21.5 -98.5t-78.5 -73.5q57 -12 93.5 -48.5t48 -72.5t11.5 -73v-3q0 -44 -13 -83.5t-41 -75.5t-81 -54.5t-125 -12.5q-17 1 -46.5 10
t-38.5 15zM359 576q9 61 -30 89q-34 25 -70 -2q-47 -34 -47 -132v-410q14 -19 55 -28q50 -11 97.5 22t47.5 101v1q4 60 -32.5 112.5t-107.5 52.5h-6v57q18 0 33 6.5t24.5 17.5t16 23t10 28t5.5 26t3 22.5t1 13.5z" />
    <glyph glyph-name="gamma" unicode="&#x3b3;" horiz-adv-x="521" 
d="M310 -250h-142q5 140 -11 292q-10 97 -57 248t-80 210h154q67 -133 113 -358h4q29 39 64.5 145.5t32.5 212.5h101q8 -113 -35 -254t-138 -255q-5 -7 -5 -24q1 -8 0 -104.5t-1 -112.5z" />
    <glyph glyph-name="delta" unicode="&#x3b4;" horiz-adv-x="503" 
d="M423 657h-4q-29 -11 -118 -11h-25q5 -6 15 -17q43 -49 66 -78t54.5 -79t46 -104.5t14.5 -115.5q0 -131 -68 -197t-154 -65q-101 1 -161 72t-59 182q1 105 54 175.5t131 89.5q-13 16 -157 189q-14 14 -6.5 34.5t36.5 18.5l100 -8q24 -6 133.5 -3.5t163.5 22.5zM280 415
q-42 0 -75 -43t-32 -134q3 -146 76 -148q34 -1 55.5 35t20.5 101q-3 136 -45 189z" />
    <glyph glyph-name="epsilon" unicode="&#x3b5;" horiz-adv-x="455" 
d="M340 348h-5q-24 62 -88 62q-26 0 -44 -13.5t-18 -31.5t15 -32.5t50 -14.5v-98q-49 0 -69 -18.5t-18 -48.5t25.5 -46.5t64.5 -16.5q28 0 60 18t49 48h5l73 -104q-76 -64 -206 -64q-99 0 -158 42t-65 111q-4 50 26 89t94 48q-46 8 -69 40.5t-21 70.5q4 55 55.5 89t126.5 34
q114 0 190 -60z" />
    <glyph glyph-name="zeta" unicode="&#x3b6;" horiz-adv-x="493" 
d="M180 247q3 -37 16 -64.5t34 -44t44.5 -26.5t54.5 -14.5t57 -6t58 -1.5h13q9 0 9 -14q0 -41 -22 -111t-46 -109l-88 18q11 18 21.5 54t11.5 60q-137 0 -221 61t-92 178q-7 104 48.5 213t177.5 210v3h-48q-130 0 -167 5l54 105h5q37 -11 122 -11h144q39 0 54 -16.5t8 -38
t-27 -41.5q-236 -236 -221 -409z" />
    <glyph glyph-name="eta" unicode="&#x3b7;" 
d="M548 -250h-142q-34 120 -34 301v273q0 81 -59 81q-40 0 -64 -30t-30.5 -62.5t-6.5 -68.5v-244h-142v500h141v-79h1q12 34 46.5 62.5t99.5 28.5q70 0 113 -42.5t43 -118.5v-314q0 -160 34 -287z" />
    <glyph glyph-name="theta" unicode="&#x3b8;" horiz-adv-x="558" 
d="M279 -12q-60 0 -105 22.5t-70 56t-40 80t-19.5 85.5t-4.5 82v122q0 43 4.5 82t19.5 85.5t40 80t70 56t105 22.5t105 -22.5t70 -56t40 -80t19.5 -85.5t4.5 -82v-122q0 -43 -4.5 -82t-19.5 -85.5t-40 -80t-70 -56t-105 -22.5zM375 424v2q0 51 -2.5 86t-11 77.5t-29.5 65
t-53 22.5t-53 -22.5t-29.5 -65t-11 -77.5t-2.5 -86v-2h192zM375 324v2h-192v-2q0 -51 2.5 -86t11 -77.5t29.5 -65t53 -22.5t53 22.5t29.5 65t11 77.5t2.5 86z" />
    <glyph glyph-name="iota" unicode="&#x3b9;" horiz-adv-x="315" 
d="M227 500v-317q0 -52 17.5 -68t70.5 -16v-99h-118q-50 0 -81 29t-31 75v396h142z" />
    <glyph glyph-name="kappa" unicode="&#x3ba;" horiz-adv-x="534" 
d="M368 309q23 -1 45 -10.5t42 -38t20 -72.5v-28q0 -38 8.5 -49t30.5 -11v-100q-95 0 -135.5 23.5t-40.5 85.5v10q0 61 -13 79.5t-68 18.5h-45v-217h-142v500h142v-183h4q8 0 15 10l121 173h154v-8z" />
    <glyph glyph-name="lambda" unicode="&#x3bb;" horiz-adv-x="493" 
d="M97 614l-97 114q35 24 75 32t81 -1.5t76.5 -48t55.5 -101.5l189 -601v-8h-111l-95 308l-108 -308h-149v8l190 482q2 3 -5.5 36.5t-23.5 68t-33 36.5q-27 4 -40 -17h-5z" />
    <glyph glyph-name="uni03BC" unicode="&#x3bc;" 
d="M69 387v113h142v-324q0 -81 59 -81q40 0 64 30t30.5 62.5t6.5 68.5v244h142v-500h-141v79h-1q-12 -34 -46.5 -62.5t-99.5 -28.5q-20 0 -42 5q-7 -106 -26 -243h-142q54 235 54 637z" />
    <glyph glyph-name="nu" unicode="&#x3bd;" horiz-adv-x="481" 
d="M344 500h101q5 -26 2.5 -58.5t-3 -54.5t-8.5 -52t-13 -49t-16.5 -47.5t-20 -47t-23 -46.5t-25 -47t-26 -48t-26.5 -50h-90q-14 149 -64.5 283t-116.5 217h151q28 -19 69.5 -112.5t51.5 -156.5q11 20 24.5 55t26.5 98.5t6 115.5z" />
    <glyph glyph-name="xi" unicode="&#x3be;" horiz-adv-x="487" 
d="M180 261q0 -33 10 -59.5t24.5 -44t39 -30.5t46 -19.5t53 -10.5t53 -5t51.5 -2q9 0 9 -14q0 -41 -22 -111t-46 -109l-88 18q11 18 21.5 54t11.5 60q-139 0 -226 67t-87 193q0 77 52.5 138t131.5 77v3q-17 0 -39 6.5t-46.5 20.5t-41 42.5t-16.5 65.5q0 68 58 114.5
t145 46.5q98 0 163 -43l-54 -105h-5q-46 49 -99 47q-32 -1 -51 -18.5t-19 -44.5q0 -77 124 -83h30v-92h-7q-49 0 -85.5 -17t-55 -43.5t-27 -52t-8.5 -49.5z" />
    <glyph glyph-name="omicron" unicode="&#x3bf;" horiz-adv-x="574" 
d="M287 90q46 0 76.5 42.5t30.5 117.5t-30.5 117.5t-76.5 42.5t-76.5 -42.5t-30.5 -117.5t30.5 -117.5t76.5 -42.5zM287 -12q-116 0 -186.5 79t-70.5 183t70.5 183t186.5 79t186.5 -79t70.5 -183t-70.5 -183t-186.5 -79z" />
    <glyph glyph-name="pi" unicode="&#x3c0;" horiz-adv-x="711" 
d="M145 321v79q-58 0 -86 -30h-5l-54 105q9 3 24.5 8t22.5 7.5t21 5t30 3.5t39 1h437q50 0 78 30h5l54 -105q-48 -25 -138 -25v-99q0 -201 27 -301h-142q-27 95 -27 325v75h-147v-55q0 -84 -9 -154t-17 -101.5t-25 -89.5h-142q56 148 54 321z" />
    <glyph glyph-name="rho" unicode="&#x3c1;" horiz-adv-x="631" 
d="M212 48q0 -188 24 -277h-142q-24 85 -24 301v168q0 64 20.5 114t50.5 79t68.5 47.5t70 25t59.5 6.5q127 0 194.5 -76t67.5 -184q0 -49 -13 -93.5t-40.5 -84t-79 -63t-120.5 -23.5q-90 0 -136 60zM212 240v-15q-1 -50 25 -90.5t79 -43.5q67 -4 102 36.5t36 123.5
q1 84 -31 122.5t-97 34.5q-44 -3 -71 -32t-35 -62.5t-8 -73.5z" />
    <glyph glyph-name="uni03C2" unicode="&#x3c2;" horiz-adv-x="492" 
d="M180 264q0 -39 12 -68.5t35 -47.5t48 -30t60 -17.5t61 -7.5t61 -3q9 0 9 -14q0 -41 -22 -111t-46 -109l-88 18q11 18 21.5 54t11.5 60q-139 0 -226 68t-87 195q0 107 69.5 184t194.5 77q109 0 177 -77l-58 -78h-5q-30 41 -90 53q-55 6 -96.5 -30t-41.5 -116z" />
    <glyph glyph-name="sigma" unicode="&#x3c3;" horiz-adv-x="617" 
d="M269 500h210q50 0 78 30h5l54 -105q-28 -14 -54 -19.5t-81 -5.5h-49q48 -60 52 -162q3 -61 -16.5 -110t-52.5 -78.5t-71 -44.5t-77 -15q-103 1 -170 73t-67 181q0 101 65.5 178.5t173.5 77.5zM296 399q-46 2 -85 -39t-38 -122q2 -137 81 -148q35 -5 62 23t27 91
q0 62 -13.5 117.5t-33.5 77.5z" />
    <glyph glyph-name="tau" unicode="&#x3c4;" horiz-adv-x="500" 
d="M166 500h196q51 0 79 30h5l54 -105q-28 -14 -54.5 -19.5t-81.5 -5.5h-34v-217q0 -52 17.5 -68t70.5 -16v-99h-124q-48 0 -77 22t-29 65v313h-46q-55 0 -83 -30h-5l-54 105q47 25 166 25z" />
    <glyph glyph-name="upsilon" unicode="&#x3c5;" horiz-adv-x="544" 
d="M334 500h137q14 -22 28.5 -82t13.5 -115q-2 -86 -29 -155t-86 -114.5t-141 -45.5q-83 0 -135 50.5t-52 146.5v124q0 37 -2 67t-5.5 50.5t-6 31.5t-7.5 25t-6 17h139q9 -13 19.5 -50t10.5 -87v-157q0 -116 63 -116q46 0 69.5 47t27.5 150q4 119 -38 213z" />
    <glyph glyph-name="phi" unicode="&#x3c6;" horiz-adv-x="765" 
d="M200 513l73 -47q-36 -30 -65 -88t-26 -128q2 -66 38 -114.5t91 -50.5v231q0 93 57.5 144.5t140.5 51.5q94 0 160 -63.5t66 -189.5q0 -63 -24 -114t-64 -83t-89 -50.5t-104 -23.5v-238h-143v238q-48 3 -95 19t-90 45.5t-69.5 80.5t-26.5 116q0 94 54 164.5t116 99.5z
M454 349v-265q65 5 98.5 51t34.5 122q1 93 -15 127t-58 36q-18 1 -39 -16.5t-21 -54.5z" />
    <glyph glyph-name="chi" unicode="&#x3c7;" horiz-adv-x="448" 
d="M230 0l-105 -233h-110v9l163 350l-149 365v9h146l87 -198l85 198h111v-9l-145 -318l162 -397v-9h-151z" />
    <glyph glyph-name="psi" unicode="&#x3c8;" horiz-adv-x="834" 
d="M358 -250v239q-58 0 -108 14t-91 43t-65 80t-24 119v125q0 25 -3 47.5t-6 35t-8 27.5t-6 20h138q28 -44 28 -113v-132q0 -53 11 -87.5t33.5 -51t44.5 -23t56 -8.5v665h141v-665q155 7 151 228q0 19 -1.5 36.5t-4.5 32.5t-6 27.5t-7.5 24t-7.5 19t-8.5 16.5t-7.5 13
t-6.5 10.5t-5.5 7.5h146q57 -88 59 -203q2 -128 -76.5 -214t-224.5 -94v-239h-141z" />
    <glyph glyph-name="omega" unicode="&#x3c9;" horiz-adv-x="771" 
d="M394 70q-33 -49 -75 -65t-97 -16q-80 0 -136 64.5t-56 193.5q0 76 31.5 146t71.5 107h143v-2q-46 -45 -74 -114t-28 -135q0 -92 20 -124.5t56 -34.5q33 -1 52 29.5t19 79.5v163h143v-163q0 -49 19 -79.5t52 -29.5q36 2 56 34.5t20 124.5q0 66 -28 135t-74 114v2h143
q40 -37 71.5 -107t31.5 -146q0 -129 -56 -193.5t-136 -64.5q-55 0 -95.5 15.5t-73.5 65.5z" />
    <glyph glyph-name="iotadieresis" unicode="&#x3ca;" horiz-adv-x="374" 
d="M270 500v-317q0 -52 17.5 -68t70.5 -16v-99h-118q-50 0 -81 29t-31 75v396h142zM2 635q0 33 22.5 56t55.5 23t56 -23t23 -56t-23 -55.5t-56 -22.5t-55.5 22.5t-22.5 55.5zM270 635q0 33 22.5 56t55.5 23t56 -23t23 -56t-23 -55.5t-56 -22.5t-55.5 22.5t-22.5 55.5z" />
    <glyph glyph-name="upsilondieresis" unicode="&#x3cb;" horiz-adv-x="524" 
d="M334 500h137q14 -22 28.5 -82t13.5 -115q-2 -86 -29 -155t-86 -114.5t-141 -45.5q-83 0 -135 50.5t-52 146.5v124q0 37 -2 67t-5.5 50.5t-6 31.5t-7.5 25t-6 17h139q9 -13 19.5 -50t10.5 -87v-157q0 -116 63 -116q46 0 69.5 47t27.5 150q4 119 -38 213zM77 635
q0 33 22.5 56t55.5 23t56 -23t23 -56t-23 -55.5t-56 -22.5t-55.5 22.5t-22.5 55.5zM345 635q0 33 22.5 56t55.5 23t56 -23t23 -56t-23 -55.5t-56 -22.5t-55.5 22.5t-22.5 55.5z" />
    <glyph glyph-name="omicrontonos" unicode="&#x3cc;" horiz-adv-x="574" 
d="M287 90q46 0 76.5 42.5t30.5 117.5t-30.5 117.5t-76.5 42.5t-76.5 -42.5t-30.5 -117.5t30.5 -117.5t76.5 -42.5zM287 -12q-116 0 -186.5 79t-70.5 183t70.5 183t186.5 79t186.5 -79t70.5 -183t-70.5 -183t-186.5 -79zM252 787l97 -1q10 0 15 -9.5t0 -18.5l-118 -221
l-48 11l12 223q0 16 42 16z" />
    <glyph glyph-name="upsilontonos" unicode="&#x3cd;" horiz-adv-x="544" 
d="M334 500h137q14 -22 28.5 -82t13.5 -115q-2 -86 -29 -155t-86 -114.5t-141 -45.5q-83 0 -135 50.5t-52 146.5v124q0 37 -2 67t-5.5 50.5t-6 31.5t-7.5 25t-6 17h139q9 -13 19.5 -50t10.5 -87v-157q0 -116 63 -116q46 0 69.5 47t27.5 150q4 119 -38 213zM246 790l97 -1
q10 0 15 -9.5t0 -18.5l-118 -221l-48 11l12 223q0 16 42 16z" />
    <glyph glyph-name="omegatonos" unicode="&#x3ce;" horiz-adv-x="785" 
d="M394 70q-33 -49 -75 -65t-97 -16q-80 0 -136 64.5t-56 193.5q0 76 31.5 146t71.5 107h143v-2q-46 -45 -74 -114t-28 -135q0 -92 20 -124.5t56 -34.5q33 -1 52 29.5t19 79.5v163h143v-163q0 -49 19 -79.5t52 -29.5q36 2 56 34.5t20 124.5q0 66 -28 135t-74 114v2h143
q40 -37 71.5 -107t31.5 -146q0 -129 -56 -193.5t-136 -64.5q-55 0 -95.5 15.5t-73.5 65.5zM362 782l97 -1q10 0 15 -9.5t0 -18.5l-118 -221l-48 11l12 223q0 16 42 16z" />
    <glyph glyph-name="afii10023" unicode="&#x401;" horiz-adv-x="576" 
d="M216 343v-243h335v-100h-481v740h458v-100h-312v-197h246v-100h-246zM94 886q0 33 22.5 56t55.5 23t56 -23t23 -56t-23 -55.5t-56 -22.5t-55.5 22.5t-22.5 55.5zM362 886q0 33 22.5 56t55.5 23t56 -23t23 -56t-23 -55.5t-56 -22.5t-55.5 22.5t-22.5 55.5z" />
    <glyph glyph-name="afii10051" unicode="&#x402;" horiz-adv-x="738" 
d="M240 640h-220v100h587v-100h-220v-179q58 52 137 51q73 -1 128.5 -50.5t54.5 -151.5q-2 -194 -121 -371h-157q106 170 126 327q9 67 -14 106t-74 33q-23 -3 -38 -16t-23.5 -43t-11 -44.5t-6.5 -56.5q-1 -2 -1 -3.5v-3.5v-238h-147v640z" />
    <glyph glyph-name="afii10052" unicode="&#x403;" horiz-adv-x="508" 
d="M221 0h-146v740h418v-100h-272v-640zM229 1064l97 -1q10 0 15 -9.5t0 -18.5l-118 -221l-48 11l12 223q0 16 42 16z" />
    <glyph glyph-name="afii10053" unicode="&#x404;" horiz-adv-x="698" 
d="M402 -12q-158 0 -253.5 106t-95.5 292v4q0 150 92 256t249 106q78 0 159 -34t135 -121l-109 -61h-10q-26 62 -72.5 88.5t-94.5 26.5q-82 0 -134.5 -56.5t-60.5 -167.5h271v-100h-270q11 -112 61 -176t134 -62q113 2 170 123h10l106 -71q-37 -52 -76 -85.5t-78 -47
t-68 -17.5t-65 -3z" />
    <glyph glyph-name="afii10054" unicode="&#x405;" horiz-adv-x="579" 
d="M120 189h10q14 -38 46 -62.5t58.5 -31t49.5 -6.5q43 0 75 16.5t38 52.5q7 38 -26 78.5t-122 72.5q-70 25 -117.5 59.5t-66 69.5t-25.5 72t3 68q14 68 79 121t174 53q172 0 256 -141l-107 -61h-10q-25 51 -62.5 75.5t-73.5 25.5q-45 1 -74 -19t-36 -46q-24 -94 110 -143
q79 -29 132.5 -62.5t78.5 -67.5t33.5 -64t6.5 -64q-6 -85 -81 -141t-182 -56q-37 0 -64 3.5t-67 15.5t-76 42.5t-67 78.5z" />
    <glyph glyph-name="afii10055" unicode="&#x406;" horiz-adv-x="308" 
d="M80 738h148v-738h-148v738z" />
    <glyph glyph-name="afii10056" unicode="&#x407;" horiz-adv-x="424" 
d="M137 738h148v-738h-148v738zM-1 886q0 33 22.5 56t55.5 23t56 -23t23 -56t-23 -55.5t-56 -22.5t-55.5 22.5t-22.5 55.5zM267 886q0 33 22.5 56t55.5 23t56 -23t23 -56t-23 -55.5t-56 -22.5t-55.5 22.5t-22.5 55.5z" />
    <glyph glyph-name="afii10057" unicode="&#x408;" horiz-adv-x="317" 
d="M-40 -45l2 10q22 -2 39 -3.5t29.5 4t21.5 10t15 15.5t9.5 19t5.5 21.5t2.5 23.5t0.5 24v661h147v-694q0 -108 -69 -160t-175 -52z" />
    <glyph glyph-name="afii10058" unicode="&#x409;" horiz-adv-x="1039" 
d="M516 0h-93v641h-176v-353q0 -156 -58.5 -222t-168.5 -66v100q100 0 100 218v422h451v-292q20 1 72.5 3t75.5 3q135 7 207.5 -58t72.5 -159v-22q0 -95 -73 -164.5t-207 -62.5q-19 1 -96.5 7t-106.5 5zM848 218v16q0 21 -8.5 41t-26.5 39t-53 29t-83 6q-80 -6 -106 -6v-244
q26 0 106 -6q47 -4 82.5 7.5t53.5 32.5t26.5 42.5t8.5 42.5z" />
    <glyph glyph-name="afii10059" unicode="&#x40a;" horiz-adv-x="1153" 
d="M962 218v16q0 21 -8.5 41t-26.5 39t-53 29t-83 6q-80 -6 -106 -6v-244q26 0 106 -6q47 -4 82.5 7.5t53.5 32.5t26.5 42.5t8.5 42.5zM630 0h-93v343h-319v-343h-148v740h148v-297h319v297h148v-292q20 1 72.5 3t75.5 3q135 7 207.5 -58t72.5 -159v-22q0 -95 -73 -164.5
t-207 -62.5q-19 1 -96.5 7t-106.5 5z" />
    <glyph glyph-name="afii10060" unicode="&#x40b;" horiz-adv-x="740" 
d="M368 640v-219h1q5 15 14 28.5t25 28.5t43.5 24.5t62.5 9.5q70 0 113 -42.5t43 -118.5v-351h-142v324q0 81 -59 81q-40 0 -64 -30t-30.5 -62.5t-6.5 -68.5v-244h-148v640h-198v100h561v-100h-215z" />
    <glyph glyph-name="afii10061" unicode="&#x40c;" horiz-adv-x="632" 
d="M373 455h3q8 0 21 -2t37 -11t43 -25t33.5 -48t14.5 -75v-130q0 -38 18.5 -51t58.5 -13v-100q-125 -6 -175.5 24.5t-49.5 104.5v91q0 44 -9 71t-31 40t-45.5 16.5t-64.5 3.5h-10v-351h-147v740h147v-285q17 0 19 3l203 282h140v-6zM290 1058l97 -1q10 0 15 -9.5t0 -18.5
l-118 -221l-48 11l12 223q0 16 42 16z" />
    <glyph glyph-name="afii10062" unicode="&#x40e;" horiz-adv-x="604" 
d="M18 76l107 61h10q3 -18 14.5 -26t25.5 -6q10 1 24 17.5t25 35.5q39 71 16 152l-220 422v8h156l166 -352l134 352h103v-6l-181 -442q-76 -165 -122 -222q-35 -44 -85.5 -65.5t-100.5 -11.5q-26 5 -48.5 31t-23.5 52zM303 915q31 0 57 20t34 62h75q-4 -190 -166 -190
t-166 190h75q8 -42 34 -62t57 -20z" />
    <glyph glyph-name="afii10145" unicode="&#x40f;" horiz-adv-x="657" 
d="M587 0h-137q-40 0 -58 -54t-20 -126h-93q-1 37 -3 62t-8.5 55.5t-19.5 46.5t-33 16h-145v740h148v-640h221v640h148v-740z" />
    <glyph glyph-name="afii10017" unicode="&#x410;" horiz-adv-x="599" 
d="M423 0l-50 144h-197l-53 -144h-103v6l269 741h20l270 -739v-8h-156zM277 418l-64 -174h125z" />
    <glyph glyph-name="afii10018" unicode="&#x411;" horiz-adv-x="685" 
d="M70 0v740h503v-100h-356v-192q20 1 72.5 3t75.5 3q135 7 207.5 -58t72.5 -159v-22q0 -95 -73 -164.5t-207 -62.5q-19 1 -96.5 7t-106.5 5h-92zM494 218v16q0 21 -8.5 41t-26.5 39t-53 29t-83 6q-80 -6 -106 -6v-244q26 0 106 -6q47 -4 82.5 7.5t53.5 32.5t26.5 42.5
t8.5 42.5z" />
    <glyph glyph-name="afii10019" unicode="&#x412;" horiz-adv-x="678" 
d="M516 392q61 -22 91.5 -72t30.5 -106v-9q0 -94 -72.5 -159t-207.5 -58q-18 1 -98.5 7t-109.5 5h-75v740h56q29 -1 107 5t97 7q135 7 202.5 -51.5t67.5 -149.5v-7q0 -49 -24 -93.5t-65 -58.5zM328 431q65 -2 95.5 27.5t30.5 80.5v3q0 53 -38.5 82.5t-115.5 22.5
q-60 -6 -78 -6v-210h106zM328 324h-106v-225q26 0 106 -6q47 -4 80.5 6t49.5 29.5t22.5 38.5t6.5 41v3q0 48 -34.5 81.5t-124.5 31.5z" />
    <glyph glyph-name="afii10020" unicode="&#x413;" horiz-adv-x="508" 
d="M221 0h-146v740h418v-100h-272v-640z" />
    <glyph glyph-name="afii10021" unicode="&#x414;" horiz-adv-x="780" 
d="M167 318v422h456v-640h127v-260h-127v160h-466v-160h-127v260h38q99 0 99 218zM294 288q0 -118 -46 -188h227v541h-181v-353z" />
    <glyph glyph-name="afii10022" unicode="&#x415;" horiz-adv-x="576" 
d="M216 343v-243h335v-100h-481v740h458v-100h-312v-197h246v-100h-246z" />
    <glyph glyph-name="afii10024" unicode="&#x416;" horiz-adv-x="875" 
d="M511 740v-285q1 0 3 3l180 282h140v-6l-177 -279h2q8 0 18.5 -2t31 -11t36.5 -25t28 -48t12 -75v-130q0 -38 15.5 -51t54.5 -13v-100q-124 -6 -171.5 24t-46.5 105v91q0 87 -24 109t-101 22h-1v-351h-147v351h-1q-77 0 -101 -22t-24 -109v-91q1 -75 -46.5 -105
t-171.5 -24v100q39 0 54.5 13t15.5 51v130q0 43 12 75t28 48t36.5 25t31 11t18.5 2h2l-177 279v6h140l180 -282l3 -3v285h147z" />
    <glyph glyph-name="afii10025" unicode="&#x417;" horiz-adv-x="634" 
d="M224 324v107h38q69 -2 114.5 29t45.5 79v10q0 20 -10 42t-40.5 41t-76.5 19q-40 0 -82 -24.5t-62 -76.5h-10l-107 61q84 141 256 141q138 0 210.5 -57t72.5 -144v-4q0 -55 -29 -95.5t-79 -59.5q64 -18 96.5 -67t32.5 -105v-14q0 -91 -88.5 -158t-226.5 -60
q-35 0 -61.5 3.5t-66.5 15.5t-77.5 42.5t-68.5 78.5l107 61h10q11 -29 32.5 -50.5t46 -31.5t44 -14t34.5 -4q91 3 127.5 37.5t36.5 81.5v3q0 43 -45 79t-136 34h-38z" />
    <glyph glyph-name="afii10026" unicode="&#x418;" horiz-adv-x="682" 
d="M464 0v511l-246 -511h-148v740h148v-511l246 511h148v-740h-148z" />
    <glyph glyph-name="afii10027" unicode="&#x419;" horiz-adv-x="682" 
d="M464 511v-511h148v740h-148l-246 -511v511h-148v-740h148zM335 863q52 0 83 16t12 43q-17 23 -17 43q0 39 26.5 60t61.5 20q41 -1 65 -33t18 -69q-22 -152 -249 -150q-108 -1 -176.5 35.5t-72.5 114.5q-2 37 21.5 68.5t63.5 33.5q35 2 60.5 -17.5t25.5 -58.5
q0 -24 -17 -47q-19 -27 12 -43t83 -16z" />
    <glyph glyph-name="afii10028" unicode="&#x41a;" horiz-adv-x="632" 
d="M373 455h3q8 0 21 -2t37 -11t43 -25t33.5 -48t14.5 -75v-130q0 -38 18.5 -51t58.5 -13v-100q-125 -6 -175.5 24.5t-49.5 104.5v91q0 44 -9 71t-31 40t-45.5 16.5t-64.5 3.5h-10v-351h-147v740h147v-285q17 0 19 3l203 282h140v-6z" />
    <glyph glyph-name="afii10029" unicode="&#x41b;" horiz-adv-x="596" 
d="M120 318v422h451v-740h-148v641h-176v-353q0 -156 -58.5 -222t-168.5 -66v100q100 0 100 218z" />
    <glyph glyph-name="afii10030" unicode="&#x41c;" horiz-adv-x="871" 
d="M681 404l-231 -404h-20l-231 404l-23 -404h-146l43 740h67l300 -537l300 537h67l43 -740h-146z" />
    <glyph glyph-name="afii10031" unicode="&#x41d;" horiz-adv-x="755" 
d="M537 0v343h-319v-343h-148v740h148v-297h319v297h148v-740h-148z" />
    <glyph glyph-name="afii10032" unicode="&#x41e;" horiz-adv-x="776" 
d="M388 651q-94 0 -145 -73.5t-51 -207.5t51 -207.5t145 -73.5t145 73.5t51 207.5t-51 207.5t-145 73.5zM388 752q86 0 155 -33.5t109.5 -88.5t62 -120t21.5 -133v-13q0 -54 -13 -106.5t-41 -101.5t-67.5 -86t-98 -59.5t-128.5 -22.5t-128.5 22.5t-98 59.5t-67.5 86
t-41 101.5t-13 106.5v13q0 68 21.5 133t62 120t109.5 88.5t155 33.5z" />
    <glyph glyph-name="afii10033" unicode="&#x41f;" horiz-adv-x="682" 
d="M70 740h542v-740h-148v640h-246v-640h-148v740z" />
    <glyph glyph-name="afii10034" unicode="&#x420;" horiz-adv-x="630" 
d="M222 292v-292h-147v740h92q29 -1 106.5 5t96.5 7q134 7 207 -62.5t73 -164.5v-22q0 -94 -72.5 -159t-207.5 -58q-23 1 -75.5 3t-72.5 3zM499 506v16q0 21 -8.5 42.5t-26.5 42.5t-53.5 32.5t-82.5 7.5q-80 -6 -106 -6v-244q26 0 106 -6q48 -4 83 6t53 29t26.5 39t8.5 41z
" />
    <glyph glyph-name="afii10035" unicode="&#x421;" horiz-adv-x="676" 
d="M389 -12q-159 0 -254 106t-95 292v4q0 149 97.5 255.5t255.5 106.5q186 0 282 -155l-109 -61h-10q-26 62 -72 88.5t-93 26.5q-90 0 -144.5 -66t-54.5 -195q0 -139 50 -221t148 -80q116 2 170 123h10l106 -71q-38 -50 -78 -83t-79 -47t-67.5 -18.5t-62.5 -4.5z" />
    <glyph glyph-name="afii10036" unicode="&#x422;" horiz-adv-x="572" 
d="M220 640h-198v100h543v-100h-198v-640h-147v640z" />
    <glyph glyph-name="afii10037" unicode="&#x423;" horiz-adv-x="599" 
d="M18 76l107 61h10q3 -18 14.5 -26t25.5 -6q10 1 24 17.5t25 35.5q39 71 16 152l-220 422v8h156l166 -352l134 352h103v-6l-181 -442q-76 -165 -122 -222q-35 -44 -85.5 -65.5t-100.5 -11.5q-26 5 -48.5 31t-23.5 52z" />
    <glyph glyph-name="afii10038" unicode="&#x424;" horiz-adv-x="857" 
d="M541 154v-154h-146v154q-63 -26 -116 -25q-108 2 -172.5 65.5t-67.5 182.5q-3 108 67.5 178t172.5 70q60 0 116 -25v140h146v-140q56 25 116 25q102 0 172.5 -70t67.5 -178q-3 -119 -67.5 -182.5t-172.5 -65.5q-53 -1 -116 25zM541 492v-229q57 -34 106 -29q44 4 73 38.5
t31 104.5q2 69 -28.5 103.5t-75.5 39.5q-47 5 -106 -28zM395 263v229q-59 33 -106 28q-45 -5 -75.5 -39.5t-28.5 -103.5q2 -70 31 -104.5t73 -38.5q49 -5 106 29z" />
    <glyph glyph-name="afii10039" unicode="&#x425;" horiz-adv-x="633" 
d="M20 0v10l206 367l-191 352v11h156l118 -224l129 224h103v-9l-179 -313l217 -406v-12h-156l-144 274l-156 -274h-103z" />
    <glyph glyph-name="afii10040" unicode="&#x426;" horiz-adv-x="744" 
d="M587 -160v160h-517v740h148v-640h221v640h148v-640h127v-260h-127z" />
    <glyph glyph-name="afii10041" unicode="&#x427;" horiz-adv-x="677" 
d="M459 0v310q-56 -13 -106 -18t-103.5 1.5t-92 28t-63 68t-24.5 114.5v236h148v-236q0 -46 24 -72.5t63.5 -31.5t77 -1.5t76.5 14.5v327h148v-740h-148z" />
    <glyph glyph-name="afii10042" unicode="&#x428;" horiz-adv-x="970" 
d="M900 0h-830v740h148v-640h194v640h146v-640h194v640h148v-740z" />
    <glyph glyph-name="afii10043" unicode="&#x429;" horiz-adv-x="1057" 
d="M900 -160v160h-830v740h148v-640h194v640h146v-640h194v640h148v-640h127v-260h-127z" />
    <glyph glyph-name="afii10044" unicode="&#x42a;" horiz-adv-x="812" 
d="M197 640h-197v100h344v-292q20 1 72.5 3t75.5 3q135 7 207.5 -58t72.5 -159v-22q0 -95 -73 -164.5t-207 -62.5q-19 1 -96.5 7t-106.5 5h-92v640zM621 218v16q0 21 -8.5 41t-26.5 39t-53 29t-83 6q-80 -6 -106 -6v-244q26 0 106 -6q47 -4 82.5 7.5t53.5 32.5t26.5 42.5
t8.5 42.5z" />
    <glyph glyph-name="afii10045" unicode="&#x42b;" horiz-adv-x="919" 
d="M217 740v-292q20 1 72.5 3t75.5 3q135 7 207.5 -58t72.5 -159v-22q0 -95 -73 -164.5t-207 -62.5q-19 1 -96.5 7t-106.5 5h-92v740h147zM494 218v16q0 21 -8.5 41t-26.5 39t-53 29t-83 6q-80 -6 -106 -6v-244q26 0 106 -6q47 -4 82.5 7.5t53.5 32.5t26.5 42.5t8.5 42.5z
M701 738h148v-738h-148v738z" />
    <glyph glyph-name="afii10046" unicode="&#x42c;" horiz-adv-x="685" 
d="M217 740v-292q20 1 72.5 3t75.5 3q135 7 207.5 -58t72.5 -159v-22q0 -95 -73 -164.5t-207 -62.5q-19 1 -96.5 7t-106.5 5h-92v740h147zM494 218v16q0 21 -8.5 41t-26.5 39t-53 29t-83 6q-80 -6 -106 -6v-244q26 0 106 -6q47 -4 82.5 7.5t53.5 32.5t26.5 42.5t8.5 42.5z
" />
    <glyph glyph-name="afii10047" unicode="&#x42d;" horiz-adv-x="695" 
d="M306 -12q-36 -1 -65 3t-68 17.5t-78 47t-76 85.5l106 71h10q57 -121 170 -123q84 -2 134 62t61 176h-270v100h271q-8 111 -60.5 167.5t-134.5 56.5q-48 0 -94.5 -26.5t-72.5 -88.5h-10l-109 61q54 87 135 121t159 34q157 0 249 -106t92 -256v-4q0 -186 -95.5 -292
t-253.5 -106z" />
    <glyph glyph-name="afii10048" unicode="&#x42e;" horiz-adv-x="1102" 
d="M367 334h-149v-334h-148v740h148v-306h152q8 61 33 116.5t66 101.5t104.5 73t140.5 27q86 0 155 -33.5t109.5 -88.5t62 -120t21.5 -133v-13q0 -54 -13 -106.5t-41 -101.5t-67.5 -86t-98 -59.5t-128.5 -22.5q-66 0 -122 20t-95 53.5t-67.5 78.5t-43.5 94t-19 100zM714 651
q-94 0 -145 -73.5t-51 -207.5t51 -207.5t145 -73.5t145 73.5t51 207.5t-51 207.5t-145 73.5z" />
    <glyph glyph-name="afii10049" unicode="&#x42f;" horiz-adv-x="710" 
d="M493 417v224q-26 0 -106 6q-48 4 -83 -5t-53 -26.5t-26.5 -36.5t-8.5 -40v-8q0 -55 40 -84.5t137 -29.5h100zM493 316h-99q-78 0 -119 -34.5t-41 -120.5v-17q0 -76 -51 -113t-174 -31v100q40 0 58.5 13t18.5 51v8q0 43 12 75.5t27.5 49t35 26.5t30.5 12t18 2h3
q-56 14 -90.5 49t-45.5 71.5t-11 80.5v8q0 93 73.5 153t213.5 53q21 -1 94 -7t102 -5h92v-740h-147v316z" />
    <glyph glyph-name="afii10065" unicode="&#x430;" horiz-adv-x="542" 
d="M137 341h-5l-77 102q81 65 187 69q102 4 163.5 -42.5t61.5 -144.5v-143q0 -42 10.5 -57.5t44.5 -15.5v-109h-112q-47 0 -68 13.5t-20 47.5q-22 -33 -53 -51.5t-88 -21.5q-57 -2 -102 32.5t-49 98.5q-6 96 70 152.5t222 46.5v6q0 44 -23.5 65t-60.5 21q-71 0 -101 -69z
M322 207v14q-33 4 -64.5 1t-55 -23t-25.5 -53q-1 -25 15 -39t39 -12q42 4 66.5 36.5t24.5 75.5z" />
    <glyph glyph-name="afii10066" unicode="&#x431;" horiz-adv-x="574" 
d="M287 -12q-116 0 -186.5 79t-70.5 183v31q0 72 11.5 137t37.5 124.5t65 101.5t97.5 65t130.5 19q34 -2 51.5 6.5t29.5 32.5h5l97 -98q-22 -34 -65 -52.5t-94 -11.5q-95 13 -153.5 -22t-76.5 -113q61 42 137 42q115 0 178 -76t63 -181q0 -104 -70.5 -185.5t-186.5 -81.5z
M287 95q47 0 77 40t30 115t-30 115t-77 40t-77 -40t-30 -115t30 -115t77 -40z" />
    <glyph glyph-name="afii10067" unicode="&#x432;" horiz-adv-x="538" 
d="M70 0v500h232q78 0 123.5 -30.5t48.5 -87.5q2 -37 -21 -65t-69 -40q62 -6 93 -44.5t30 -84.5q-2 -69 -53.5 -108.5t-149.5 -39.5h-234zM254 220h-42v-120h63q35 0 57 15t23 39q2 66 -101 66zM212 317h34q82 0 84 43q1 17 -15 29.5t-57 12.5h-46v-85z" />
    <glyph glyph-name="afii10068" unicode="&#x433;" horiz-adv-x="429" 
d="M70 0v500h339v-100h-197v-400h-142z" />
    <glyph glyph-name="afii10069" unicode="&#x434;" horiz-adv-x="620" 
d="M163 500h359v-400h68v-250h-97v150h-366v-150h-97v250h43q70 12 77 140zM257 206q-1 -31 -11.5 -63.5t-22.5 -42.5h157v300h-114z" />
    <glyph glyph-name="afii10070" unicode="&#x435;" horiz-adv-x="551" 
d="M294 90q80 -2 136 78h5l58 -78q-82 -102 -210 -102q-69 0 -120 23t-79 62.5t-41 84t-13 94.5q0 107 71 183.5t196 76.5q101 0 162.5 -67t61.5 -176q0 -15 -4.5 -33.5t-12.5 -18.5h-324q2 -37 16 -64t34 -39.5t35.5 -18t28.5 -5.5zM287 410q-13 0 -25.5 -3t-29.5 -12.5
t-29.5 -31.5t-17.5 -55h165q25 0 25 6q-2 31 -13 52t-27 29.5t-27 11.5t-21 3z" />
    <glyph glyph-name="afii10072" unicode="&#x436;" horiz-adv-x="745" 
d="M443 0h-142v217h-24q-55 0 -68 -18.5t-13 -79.5v-10q0 -62 -40.5 -85.5t-135.5 -23.5v100q22 0 30.5 11t8.5 49v28q0 44 20 72.5t42 38t45 10.5l-133 183v8h154l107 -175l6 -8h1v183h142v-183h1q1 1 7 10l107 173h154v-8l-133 -183q23 -1 45 -10.5t42 -38t20 -72.5v-28
q0 -38 8.5 -49t30.5 -11v-100q-95 0 -135.5 23.5t-40.5 85.5v10q0 61 -13 79.5t-68 18.5h-25v-217z" />
    <glyph glyph-name="afii10073" unicode="&#x437;" horiz-adv-x="467" 
d="M112 348h-5l-73 104q76 60 190 60q75 0 126.5 -34t55.5 -89q2 -38 -21 -70.5t-69 -40.5q64 -9 94 -48t26 -89q-6 -69 -65 -111t-158 -42q-130 0 -206 64l73 104h5q17 -30 49 -48t60 -18q41 0 64.5 16.5t25.5 46.5t-18 48.5t-69 18.5v98q35 0 50 14.5t15 32.5t-18 31.5
t-44 13.5q-64 0 -88 -62z" />
    <glyph glyph-name="afii10074" unicode="&#x438;" horiz-adv-x="584" 
d="M367 308l-150 -308h-147v500h147v-308l150 308h147v-500h-147v308z" />
    <glyph glyph-name="afii10075" unicode="&#x439;" horiz-adv-x="584" 
d="M367 308l-150 -308h-147v500h147v-308l150 308h147v-500h-147v308zM294 607q34 0 55.5 11t10.5 37q-1 3 -6 12t-8 17t-3 15q0 31 22 47.5t53 15.5q38 -1 59 -24t22 -51q1 -67 -55.5 -107.5t-149.5 -40.5t-149 40.5t-55 107.5q1 28 22 51t59 24q31 1 53 -15.5t22 -47.5
q0 -7 -3 -15t-8 -17t-6 -12q-11 -26 10 -37t55 -11z" />
    <glyph glyph-name="afii10076" unicode="&#x43a;" horiz-adv-x="500" 
d="M368 309q23 -1 45 -10.5t42 -38t20 -72.5v-28q0 -38 8.5 -49t30.5 -11v-100q-95 0 -135.5 23.5t-40.5 85.5v10q0 61 -13 79.5t-68 18.5h-45v-217h-142v500h142v-183h4q8 0 15 10l121 173h154v-8z" />
    <glyph glyph-name="afii10077" unicode="&#x43b;" horiz-adv-x="537" 
d="M108 500h359v-500h-142v400h-114l-11 -194q-6 -107 -48 -156.5t-132 -49.5v100q22 4 34.5 12t24.5 39.5t14 88.5z" />
    <glyph glyph-name="afii10078" unicode="&#x43c;" horiz-adv-x="724" 
d="M361 207h2q50 116 107 293h186l38 -500h-149q-6 99 -9 164t-3.5 86t0 47.5t0.5 35.5h-1q-26 -88 -121 -333h-105q-40 102 -64 170t-31 90t-12 43.5t-7 29.5h-1q0 -9 0.5 -35.5t0 -47.5t-3.5 -86t-9 -164h-149l38 500h186q57 -177 107 -293z" />
    <glyph glyph-name="afii10079" unicode="&#x43d;" horiz-adv-x="584" 
d="M372 0v217h-160v-217h-142v500h142v-183h160v183h142v-500h-142z" />
    <glyph glyph-name="afii10080" unicode="&#x43e;" horiz-adv-x="574" 
d="M287 90q46 0 76.5 42.5t30.5 117.5t-30.5 117.5t-76.5 42.5t-76.5 -42.5t-30.5 -117.5t30.5 -117.5t76.5 -42.5zM287 -12q-116 0 -186.5 79t-70.5 183t70.5 183t186.5 79t186.5 -79t70.5 -183t-70.5 -183t-186.5 -79z" />
    <glyph glyph-name="afii10081" unicode="&#x43f;" horiz-adv-x="584" 
d="M372 0v400h-160v-400h-142v500h444v-500h-142z" />
    <glyph glyph-name="afii10082" unicode="&#x440;" horiz-adv-x="603" 
d="M222 500v-54q18 30 54 48t81 18q106 0 161 -75t55 -187q0 -49 -14 -95t-40.5 -83.5t-70.5 -60.5t-99 -23q-86 0 -127 55v-293h-152v750h152zM222 290v-79q0 -41 22.5 -78t68.5 -38q49 -1 74.5 39t26.5 116q-1 76 -26.5 116t-74.5 39q-46 -1 -68.5 -37.5t-22.5 -77.5z" />
    <glyph glyph-name="afii10083" unicode="&#x441;" horiz-adv-x="495" 
d="M180 252q0 -49 14 -84t36 -50.5t41 -21.5t36 -6q68 0 123 78h5l58 -78q-82 -102 -210 -102q-69 0 -120 23t-79 62.5t-41 84t-13 94.5q0 107 72 183.5t198 76.5q103 0 171 -77l-58 -78h-5q-16 21 -38 34.5t-34 16t-18 2.5q-58 5 -97.5 -30.5t-40.5 -127.5z" />
    <glyph glyph-name="afii10084" unicode="&#x442;" horiz-adv-x="472" 
d="M452 500v-100h-145v-400h-142v400h-145v100h432z" />
    <glyph glyph-name="afii10085" unicode="&#x443;" horiz-adv-x="498" 
d="M1 -228l97 114h5q13 -21 40 -17q17 2 33 36.5t23.5 68t5.5 36.5l-190 482v8h149l108 -308l95 308h111v-8l-189 -601q-20 -63 -55.5 -101.5t-76.5 -48t-81 -1.5t-75 32z" />
    <glyph glyph-name="afii10086" unicode="&#x444;" horiz-adv-x="868" 
d="M510 -250h-152v293q-41 -55 -105 -55q-72 0 -124.5 40t-75.5 97.5t-23 124.5q0 114 49.5 188t154.5 74q84 0 124 -66v304h152v-304q40 66 124 66q105 0 154.5 -74t49.5 -188q0 -67 -23 -124.5t-75.5 -97.5t-124.5 -40q-64 0 -105 55v-293zM358 211v79q0 42 -19 78t-61 37
q-44 1 -66 -38.5t-23 -116.5q1 -79 21.5 -117.5t67.5 -37.5q42 1 61 37.5t19 78.5zM510 290v-79q0 -42 19 -78.5t61 -37.5q47 -1 67.5 37.5t21.5 117.5q-1 77 -23 116.5t-66 38.5q-42 -1 -61 -37t-19 -78z" />
    <glyph glyph-name="afii10087" unicode="&#x445;" horiz-adv-x="493" 
d="M232 159l-106 -159h-111v6l164 239l-150 249v6h147l88 -135l86 135h111v-6l-146 -217l163 -271v-6h-152z" />
    <glyph glyph-name="afii10088" unicode="&#x446;" horiz-adv-x="582" 
d="M465 -150v150h-395v500h143v-400h129v400h143v-400h77v-250h-97z" />
    <glyph glyph-name="afii10089" unicode="&#x447;" horiz-adv-x="555" 
d="M212 500v-154q0 -91 131 -63v217h142v-500h-142v181q-274 -35 -274 161v158h143z" />
    <glyph glyph-name="afii10090" unicode="&#x448;" horiz-adv-x="848" 
d="M778 500v-500h-708v500h142v-400h141v400h142v-400h141v400h142z" />
    <glyph glyph-name="afii10091" unicode="&#x449;" horiz-adv-x="875" 
d="M758 -150v150h-688v500h142v-400h141v400h142v-400h141v400h142v-400h77v-250h-97z" />
    <glyph glyph-name="afii10092" unicode="&#x44a;" horiz-adv-x="589" 
d="M0 400v100h264v-150h98q103 0 150 -50t47 -118q0 -72 -59 -127t-155 -55h-223v400h-122zM318 250h-54v-150h54q43 0 66 23t23 52q0 31 -22.5 53t-66.5 22z" />
    <glyph glyph-name="afii10093" unicode="&#x44b;" horiz-adv-x="799" 
d="M587 0v500h142v-500h-142zM266 250h-54v-150h54q43 0 66 23t23 52q0 31 -22.5 53t-66.5 22zM70 500h142v-150h98q103 0 150 -50t47 -118q0 -72 -59 -127t-155 -55h-223v500z" />
    <glyph glyph-name="afii10094" unicode="&#x44c;" horiz-adv-x="537" 
d="M266 250h-54v-150h54q43 0 66 23t23 52q0 31 -22.5 53t-66.5 22zM70 500h142v-150h98q103 0 150 -50t47 -118q0 -72 -59 -127t-155 -55h-223v500z" />
    <glyph glyph-name="afii10095" unicode="&#x44d;" horiz-adv-x="494" 
d="M128 210v94h181q-13 60 -50.5 82.5t-76.5 18.5l-4 -1q-5 0 -9.5 -1t-12 -2.5t-15.5 -5.5t-16.5 -9t-18 -13t-17.5 -18h-5l-58 78q20 27 49 45t59.5 24.5t45 8t27.5 1.5q125 0 191 -76t66 -184q0 -49 -14.5 -94t-44.5 -84t-82.5 -62.5t-121.5 -23.5q-133 0 -200 102l58 78
h5q55 -67 123 -73q19 -2 42 5t49 35t33 75h-183z" />
    <glyph glyph-name="afii10096" unicode="&#x44e;" horiz-adv-x="854" 
d="M316 305q18 87 84.5 147t166.5 60q116 0 186.5 -79t70.5 -183t-70.5 -183t-186.5 -79q-103 0 -170.5 63t-82.5 154h-102v-205h-142v500h142v-195h104zM567 95q47 0 77 40t30 115t-30 115t-77 40t-77 -40t-30 -115t30 -115t77 -40z" />
    <glyph glyph-name="afii10097" unicode="&#x44f;" horiz-adv-x="562" 
d="M492 0h-142v175h-86q-31 -22 -31 -63v-9q0 -57 -38 -80t-128 -23h-47v100q71 -1 73 36q2 41 32 69q-70 43 -70 129q0 70 58.5 118t155.5 48h223v-500zM296 285h54v115h-54q-45 0 -67 -16t-22 -43q0 -56 89 -56z" />
    <glyph glyph-name="afii10071" unicode="&#x451;" horiz-adv-x="544" 
d="M294 90q-13 0 -28.5 5.5t-35.5 18t-34 39.5t-16 64h324q8 0 12.5 18.5t4.5 33.5q0 109 -61.5 176t-162.5 67q-125 0 -196 -76.5t-71 -183.5q0 -50 13 -94.5t41 -84t79 -62.5t120 -23q128 0 210 102l-58 78h-5q-56 -80 -136 -78zM287 410q10 0 21 -3t27 -11.5t27 -29.5
t13 -52q0 -6 -25 -6h-165q5 33 17.5 55t29.5 31.5t29.5 12.5t25.5 3zM58 635q0 33 22.5 56t55.5 23t56 -23t23 -56t-23 -55.5t-56 -22.5t-55.5 22.5t-22.5 55.5zM326 635q0 33 22.5 56t55.5 23t56 -23t23 -56t-23 -55.5t-56 -22.5t-55.5 22.5t-22.5 55.5z" />
    <glyph glyph-name="afii10099" unicode="&#x452;" horiz-adv-x="574" 
d="M211 750v-74h187v-100h-187v-163h1q11 38 51 68.5t111 30.5q69 0 117.5 -54.5t48.5 -147.5q0 -26 -3 -52.5t-7 -48.5t-12 -47t-14 -41.5t-18 -40.5l-17.5 -35t-19 -33t-17 -27.5t-16.5 -25.5l-14 -20h-142l14 23q15 23 20.5 32t20.5 36t23 44t20 46t19 52.5t12.5 53
t7.5 57.5q3 63 -19 92t-54 30q-35 1 -59.5 -17.5t-35 -51t-14 -59t-3.5 -56.5v-221h-142v576h-70v100h70v74h141z" />
    <glyph glyph-name="afii10100" unicode="&#x453;" horiz-adv-x="429" 
d="M70 0v500h339v-100h-197v-400h-142zM209 807l97 -1q10 0 15 -9.5t0 -18.5l-118 -221l-48 11l12 223q0 16 42 16z" />
    <glyph glyph-name="afii10101" unicode="&#x454;" horiz-adv-x="490" 
d="M356 304v-94h-183q7 -47 33 -75t49 -35t42 -5q68 6 123 73h5l58 -78q-67 -102 -200 -102q-69 0 -121.5 23.5t-82.5 62.5t-44.5 84t-14.5 94q0 108 66 184t191 76q13 0 27.5 -1.5t45 -8t59.5 -24.5t49 -45l-58 -78h-5q-8 10 -17.5 18t-18 13t-16.5 9t-15.5 5.5t-12 2.5
t-9.5 1l-4 1q-39 4 -76.5 -18.5t-50.5 -82.5h181z" />
    <glyph glyph-name="afii10102" unicode="&#x455;" horiz-adv-x="439" 
d="M209 -12q-49 0 -102.5 13.5t-86.5 37.5l90 119h5q9 -25 34 -43t43 -21q16 -3 37 0.5t27 19.5q7 18 -7.5 34.5t-41.5 29t-57.5 31t-57 39t-39.5 56t-4 79.5q4 19 16 39t34 41.5t60 35t86 13.5q95 0 162 -53l-90 -119h-5q-11 30 -30.5 46t-38.5 19q-24 4 -39 -4t-19 -20
q-8 -25 15.5 -45.5t61 -39t74.5 -41t58 -62t9 -91.5q-10 -45 -57.5 -79.5t-136.5 -34.5z" />
    <glyph glyph-name="afii10103" unicode="&#x456;" horiz-adv-x="285" 
d="M73 500v-500h142v500h-142zM64 683q0 33 22.5 56t55.5 23t56 -23t23 -56t-23 -55.5t-56 -22.5t-55.5 22.5t-22.5 55.5z" />
    <glyph glyph-name="afii10104" unicode="&#x457;" horiz-adv-x="285" 
d="M73 500v-500h142v500h-142zM-70 635q0 33 22.5 56t55.5 23t56 -23t23 -56t-23 -55.5t-56 -22.5t-55.5 22.5t-22.5 55.5zM198 635q0 33 22.5 56t55.5 23t56 -23t23 -56t-23 -55.5t-56 -22.5t-55.5 22.5t-22.5 55.5z" />
    <glyph glyph-name="afii10105" unicode="&#x458;" horiz-adv-x="285" 
d="M52 -155q-3 0 -9.5 2t-16.5 9.5t-15 20.5h-5l-73 -104q50 -34 125 -34q16 0 34.5 3.5t43.5 16.5t43.5 32.5t30 56.5t8.5 85q-3 42 -3 269v298h-142v-354q0 -27 1 -50.5t4 -47t5 -37.5t6.5 -39t6.5 -35q7 -27 2.5 -45t-9 -27.5t-14.5 -14t-14 -5t-9 -0.5zM64 683
q0 33 22.5 56t55.5 23t56 -23t23 -56t-23 -55.5t-56 -22.5t-55.5 22.5t-22.5 55.5z" />
    <glyph glyph-name="afii10106" unicode="&#x459;" horiz-adv-x="792" 
d="M548 0h-223v400h-124l-6 -194q-2 -106 -43 -156t-132 -50v100q32 5 48.5 31.5t19.5 108.5l10 260h369v-174h98q104 0 150.5 -45t46.5 -111q0 -70 -58.5 -120t-155.5 -50zM521 226h-54v-126h54q44 0 66.5 18t22.5 45q0 63 -89 63z" />
    <glyph glyph-name="afii10107" unicode="&#x45a;" horiz-adv-x="839" 
d="M595 0h-223v226h-160v-226h-142v500h142v-174h160v174h142v-174h98q104 0 150.5 -45t46.5 -111q0 -70 -58.5 -120t-155.5 -50zM568 226h-54v-126h54q44 0 66.5 18t22.5 45q0 63 -89 63z" />
    <glyph glyph-name="afii10108" unicode="&#x45b;" 
d="M372 553h-161v-132h1q12 34 46.5 62.5t99.5 28.5q70 0 113 -42.5t43 -118.5v-351h-142v324q0 81 -59 81q-40 0 -64 -30t-30.5 -62.5t-6.5 -68.5v-244h-142v553h-70v94h70v103h141v-103h161v-94z" />
    <glyph glyph-name="afii10109" unicode="&#x45c;" horiz-adv-x="500" 
d="M368 309q23 -1 45 -10.5t42 -38t20 -72.5v-28q0 -38 8.5 -49t30.5 -11v-100q-95 0 -135.5 23.5t-40.5 85.5v10q0 61 -13 79.5t-68 18.5h-45v-217h-142v500h142v-183h4q8 0 15 10l121 173h154v-8zM225 807l97 -1q10 0 15 -9.5t0 -18.5l-118 -221l-48 11l12 223q0 16 42 16
z" />
    <glyph glyph-name="afii10110" unicode="&#x45e;" horiz-adv-x="465" 
d="M1 -228l97 114h5q13 -21 40 -17q17 2 33 36.5t23.5 68t5.5 36.5l-190 482v8h149l108 -308l95 308h111v-8l-189 -601q-20 -63 -55.5 -101.5t-76.5 -48t-81 -1.5t-75 32zM234 664q31 0 57 20t34 62h75q-4 -190 -166 -190t-166 190h75q8 -42 34 -62t57 -20z" />
    <glyph glyph-name="afii10193" unicode="&#x45f;" horiz-adv-x="555" 
d="M485 0h-415v500h143v-400h129v400h143v-500zM177 0h206q-26 -2 -39 -24.5t-15.5 -49t-3.5 -69.5v-17h-93q-2 96 -11 121q-13 36 -44 39z" />
    <glyph glyph-name="afii10050" unicode="&#x490;" horiz-adv-x="535" 
d="M75 740h303l22 160h115l-22 -260h-272v-640h-146v740z" />
    <glyph glyph-name="afii10098" unicode="&#x491;" horiz-adv-x="445" 
d="M70 500h247l20 150h97l-25 -250h-197v-400h-142v500z" />
    <glyph glyph-name="afii10846" unicode="&#x4d9;" horiz-adv-x="487" 
d="M202 410q-80 2 -136 -78h-5l-58 78q82 102 210 102q69 0 120 -23t79 -62.5t41 -84t13 -94.5q0 -107 -71 -183.5t-196 -76.5q-101 0 -162.5 67t-61.5 176q0 15 4.5 33.5t12.5 18.5h324q-2 37 -16 64t-34 39.5t-35.5 18t-28.5 5.5zM209 90q13 0 25.5 3t29.5 12.5t29.5 31.5
t17.5 55h-165q-25 0 -25 -6q2 -31 13 -52t27 -29.5t27 -11.5t21 -3z" />
    <glyph glyph-name="uni0531" unicode="&#x531;" horiz-adv-x="751" 
d="M70 232v518h147v-492q0 -96 30 -129.5t94 -33.5t94 33.5t30 129.5v492h147v-498q0 -67 -13 -108l141 -36v-125l-211 57q-63 -52 -188 -52q-80 0 -136 21.5t-84 58.5t-39.5 77t-11.5 87z" />
    <glyph glyph-name="uni0532" unicode="&#x532;" horiz-adv-x="682" 
d="M341 655q-64 0 -94 -33.5t-30 -129.5v-189h423v-105h-423v-198h-147v518q0 47 11.5 87t39.5 77t84 58.5t136 21.5t136 -21.5t84 -58.5t39.5 -77t11.5 -87v-133h-147v107q0 96 -30 129.5t-94 33.5z" />
    <glyph glyph-name="uni0533" unicode="&#x533;" horiz-adv-x="764" 
d="M455 239h-124q-79 0 -135.5 24t-84.5 64.5t-39.5 82.5t-11.5 90q0 35 7.5 69t26.5 69.5t48.5 62.5t78.5 44t110 17q79 0 135.5 -26t84.5 -69.5t39.5 -87t11.5 -91.5v-143h162v-106h-162v-239h-147v239zM455 345v117q0 102 -29.5 147.5t-94.5 45.5q-117 0 -118 -150
q-1 -87 31 -123.5t97 -36.5h114z" />
    <glyph glyph-name="uni0534" unicode="&#x534;" horiz-adv-x="774" 
d="M612 518v-173h162v-106h-162v-239h-147v492q0 96 -30 129.5t-94 33.5t-94 -33.5t-30 -129.5v-117h-147v143q0 47 11.5 87t39.5 77t84 58.5t136 21.5t136 -21.5t84 -58.5t39.5 -77t11.5 -87z" />
    <glyph glyph-name="uni0535" unicode="&#x535;" horiz-adv-x="682" 
d="M612 325v-93q0 -47 -11.5 -87t-39.5 -77t-84 -58.5t-136 -21.5t-136 21.5t-84 58.5t-39.5 77t-11.5 87v518h147v-238h423v-105h-423v-149q0 -96 30 -129.5t94 -33.5t94 33.5t30 129.5v67h147z" />
    <glyph glyph-name="uni0536" unicode="&#x536;" horiz-adv-x="739" 
d="M710 0h-148q-8 32 -28.5 53t-55.5 30t-68 12t-84 3h-108v-98h-148v300h148v-91h1q41 0 92 16.5t101 46.5t83.5 83t33.5 117q0 74 -37 131.5t-114 57.5q-81 0 -119.5 -48t-38.5 -148v-9h-150v12q0 56 18 107t54 93.5t97 68t139 25.5q80 0 140.5 -23.5t95.5 -64.5t52.5 -90
t17.5 -104q0 -90 -54.5 -172t-153.5 -115q25 0 49.5 -3.5t57.5 -15.5t58 -32t44.5 -56.5t24.5 -85.5z" />
    <glyph glyph-name="uni0537" unicode="&#x537;" horiz-adv-x="580" 
d="M217 105h135q54 0 83.5 -1.5t71.5 -14t69 -36.5l-76 -108q-18 24 -46 37t-50 15.5t-57 2.5h-277v750h147v-238h348v-105h-348v-302z" />
    <glyph glyph-name="uni0538" unicode="&#x538;" horiz-adv-x="682" 
d="M217 105h423v-105h-570v498q0 48 11.5 90t39.5 83.5t84.5 66t135.5 24.5t135.5 -24.5t84.5 -66t39.5 -83.5t11.5 -90v-123h-147v97q0 101 -29 142t-95 41t-95 -41t-29 -142v-367z" />
    <glyph glyph-name="uni0539" unicode="&#x539;" horiz-adv-x="979" 
d="M818 340v-132q0 -94 -64.5 -157t-179.5 -63q-119 0 -181 62t-62 162v2q0 94 61.5 162.5t188.5 68.5h89q0 216 -227 216q-226 0 -226 -209v-452h-147v468q0 130 101 212t272 82q173 0 274 -79t101 -208v-30h162v-105h-162zM670 340h-76q-7 0 -17.5 -2t-28 -10.5t-31.5 -22
t-24.5 -40.5t-10.5 -62v-2q0 -111 92 -111q43 0 69.5 30t26.5 93v127z" />
    <glyph glyph-name="uni053A" unicode="&#x53a;" horiz-adv-x="773" 
d="M465 512v238h147v-238h162v-106h-162v-154q0 -48 -11.5 -90t-39.5 -83.5t-84.5 -66t-135.5 -24.5q-78 0 -134.5 24.5t-84.5 65.5t-40 83t-12 90q0 37 7 71t25.5 70t48 62t78.5 42.5t112 16.5v-1h124zM465 406h-124q-63 0 -91 -36t-27 -124q1 -82 29.5 -116.5t88.5 -34.5
q66 0 95 41t29 142v128z" />
    <glyph glyph-name="uni053B" unicode="&#x53b;" horiz-adv-x="682" 
d="M217 750v-215q20 21 62.5 37t93.5 16q60 0 104.5 -16t69.5 -40t40.5 -59.5t20 -67.5t4.5 -71v-125h-147v86q0 103 -24.5 144t-89.5 41q-73 0 -103 -42t-31 -143v-295h-147v750h147z" />
    <glyph glyph-name="uni053C" unicode="&#x53c;" horiz-adv-x="588" 
d="M217 750v-645h150q58 0 85.5 -1t72 -13t71.5 -36l-76 -108q-18 24 -46 36.5t-49 14.5t-58 2h-297v750h147z" />
    <glyph glyph-name="uni053D" unicode="&#x53d;" horiz-adv-x="942" 
d="M379 414h-162v-414h-147v750h147v-238h309v-248q0 -101 20.5 -138t80.5 -37q58 0 77 36.5t19 138.5v248h149v-301q0 -223 -245 -223q-248 0 -248 223v203z" />
    <glyph glyph-name="uni053E" unicode="&#x53e;" horiz-adv-x="739" 
d="M337 671h402v-100h-158q52 -36 76 -101.5t24 -138.5v-7q0 -44 -8.5 -87t-30.5 -89t-55.5 -80.5t-89 -57t-126.5 -22.5t-126.5 22.5t-89 57t-55.5 80.5t-30.5 89t-8.5 87v7q0 176 103 240q-20 0 -44 7t-55.5 25t-55 59.5t-29.5 101.5h148q6 -22 15 -38t24 -26t29.5 -16
t40 -9t45.5 -3.5t55 -0.5zM371 87q161 0 161 240v3q0 241 -161 241t-161 -241v-3q0 -240 161 -240z" />
    <glyph glyph-name="uni053F" unicode="&#x53f;" horiz-adv-x="682" 
d="M465 0v213q-20 -21 -62.5 -37t-93.5 -16q-60 0 -104.5 15t-69.5 37.5t-40.5 56.5t-20 65.5t-4.5 69.5v346h147v-307q0 -104 21 -139.5t93 -35.5q69 0 101 39t33 136v69h147v-512h-147z" />
    <glyph glyph-name="uni0540" unicode="&#x540;" horiz-adv-x="700" 
d="M625 614l-2 -10q-34 -1 -67.5 -5.5t-87 -22.5t-99.5 -47.5t-96.5 -86t-87.5 -132.5l485 -182l-31 -145l-610 228q50 172 139 294t197.5 182t231.5 64z" />
    <glyph glyph-name="uni0541" unicode="&#x541;" horiz-adv-x="675" 
d="M590 50l-125 -62l-63 80q-93 -80 -205 -80q-89 0 -140 47.5t-48 128.5q3 73 64.5 124t149.5 51q121 0 198 -83q33 89 28 216q-2 34 -10.5 65t-25 60t-47 46.5t-70.5 17.5q-81 0 -118.5 -47.5t-37.5 -148.5v-9h-150v12q0 56 18 106.5t53 93.5t96 68.5t139 25.5
q79 0 140 -25.5t96 -68t52.5 -91.5t19.5 -102q6 -194 -96 -316zM203 88q71 0 127 56q-54 64 -123 64q-39 0 -59 -21.5t-17 -46.5q3 -28 27 -40t45 -12z" />
    <glyph glyph-name="uni0542" unicode="&#x542;" horiz-adv-x="774" 
d="M612 518v-413h162v-105h-309v492q0 96 -30 129.5t-94 33.5t-94 -33.5t-30 -129.5v-117h-147v143q0 47 11.5 87t39.5 77t84 58.5t136 21.5t136 -21.5t84 -58.5t39.5 -77t11.5 -87z" />
    <glyph glyph-name="uni0543" unicode="&#x543;" horiz-adv-x="755" 
d="M25 494l-4 8l28 121q130 0 233 -19q56 51 117 83t121.5 44.5t96.5 15.5t85 3l28 -121l-2 -8q-48 7 -102 7t-112 -15.5t-94 -43.5q145 -57 205 -167.5t60 -311.5v-90h-615v59q0 86 5.5 144.5t34 142.5t82.5 156q-30 5 -83 3.5t-84 -11.5zM318 480q-99 -145 -101 -380h323
q2 323 -222 380z" />
    <glyph glyph-name="uni0544" unicode="&#x544;" horiz-adv-x="841" 
d="M612 644v-412q0 -47 -11.5 -87t-39.5 -77t-84 -58.5t-136 -21.5t-136 21.5t-84 58.5t-39.5 77t-11.5 87v518h147v-492q0 -96 30 -129.5t94 -33.5t94 33.5t30 129.5v492h309v-106h-162z" />
    <glyph glyph-name="uni0545" unicode="&#x545;" horiz-adv-x="711" 
d="M671 229q0 -98 -81.5 -169.5t-236.5 -71.5q-156 0 -234.5 63.5t-78.5 171.5v11h154v-8q0 -71 48 -104t111 -33q77 0 122 33t43 91q0 14 -2.5 26.5t-14 32t-29.5 33.5t-54 24.5t-84 10.5h-294v105h294q46 0 77.5 11t45.5 30t19 37t4 38q-3 44 -38.5 72t-93.5 28
q-50 0 -90 -24.5t-40 -76.5v-2h-150v3q5 83 81.5 141t193.5 60q122 3 202.5 -47t86.5 -137q1 -21 -2 -42t-12 -45.5t-31 -44.5t-54 -31q61 -16 99.5 -65t38.5 -121z" />
    <glyph glyph-name="uni0546" unicode="&#x546;" horiz-adv-x="774" 
d="M704 375v-143q0 -47 -11.5 -87t-39.5 -77t-84 -58.5t-136 -21.5t-136 21.5t-84 58.5t-39.5 77t-11.5 87v413h-162v106h309v-493q0 -96 30 -129.5t94 -33.5t94 33.5t30 129.5v117h147z" />
    <glyph glyph-name="uni0547" unicode="&#x547;" horiz-adv-x="726" 
d="M427 528q-105 9 -165 -55.5t-62 -158.5q-2 -55 12 -104t50 -85t89 -36q82 0 120 45.5t38 145.5v14h150v-12q0 -56 -18 -107t-54 -93.5t-97 -68t-139 -25.5q-80 0 -141 26t-96.5 71t-52.5 101t-16 120q2 128 80 213t207 98q-57 43 -127.5 31t-140.5 -79h-5l-41 89
q63 69 145 90t166 7q40 -7 73 -24.5t51.5 -37t38.5 -38t37 -30t44 -11t62 18.5h5l41 -89q-42 -43 -120.5 -48.5t-133.5 32.5z" />
    <glyph glyph-name="uni0548" unicode="&#x548;" horiz-adv-x="682" 
d="M612 518v-518h-147v492q0 96 -30 129.5t-94 33.5t-94 -33.5t-30 -129.5v-492h-147v518q0 47 11.5 87t39.5 77t84 58.5t136 21.5t136 -21.5t84 -58.5t39.5 -77t11.5 -87z" />
    <glyph glyph-name="uni0549" unicode="&#x549;" horiz-adv-x="674" 
d="M338 762q156 0 232 -77t74 -201q0 -37 -11 -74t-35.5 -78.5t-74.5 -76.5t-120 -56l209 -72l-29 -139l-537 184l29 140l153 -54q116 3 186.5 67.5t74.5 146.5q4 81 -31 133.5t-120 55.5q-81 3 -119.5 -44t-38.5 -147v-14h-150v12q0 56 18 107t54 93.5t97 68t139 25.5z" />
    <glyph glyph-name="uni054A" unicode="&#x54a;" horiz-adv-x="927" 
d="M536 658v-452h-147v452q-80 -8 -126 -57t-46 -159v-67h-147v83q0 133 101.5 216t291.5 83t292 -83t102 -216v-458h-147v442q0 198 -174 216z" />
    <glyph glyph-name="uni054B" unicode="&#x54b;" horiz-adv-x="737" 
d="M476 193q25 0 49.5 -3.5t57.5 -15.5t58 -32t44.5 -56.5t24.5 -85.5h-148q-3 24 -12.5 41.5t-28.5 27.5t-36 16.5t-49 9t-51.5 3t-58.5 0.5h-108v-98h-148v300h148v-91l31 -2q41 50 46 80.5t-19.5 47t-57 28t-69 33.5t-51.5 53q-43 88 6.5 178.5t135.5 115.5
q91 27 171 11.5t140 -57.5t95 -105t36 -132q2 -184 -206 -267zM361 218q67 21 122.5 83t51.5 148q-4 70 -42.5 120t-87 67.5t-95.5 14t-67 -28.5q-34 -38 -14.5 -91.5t84.5 -75.5q85 -28 99.5 -89.5t-51.5 -147.5z" />
    <glyph glyph-name="uni054C" unicode="&#x54c;" horiz-adv-x="773" 
d="M612 518v-173h162v-106h-162v-239h-147v492q0 96 -30 129.5t-94 33.5t-94 -33.5t-30 -129.5v-492h-147v518q0 47 11.5 87t39.5 77t84 58.5t136 21.5t136 -21.5t84 -58.5t39.5 -77t11.5 -87z" />
    <glyph glyph-name="uni054D" unicode="&#x54d;" horiz-adv-x="682" 
d="M612 750v-518q0 -47 -11.5 -87t-39.5 -77t-84 -58.5t-136 -21.5t-136 21.5t-84 58.5t-39.5 77t-11.5 87v518h147v-492q0 -96 30 -129.5t94 -33.5t94 33.5t30 129.5v492h147z" />
    <glyph glyph-name="uni054E" unicode="&#x54e;" horiz-adv-x="774" 
d="M612 105h162v-105h-309v213q-20 -21 -62.5 -37t-93.5 -16q-60 0 -104.5 15t-69.5 37.5t-40.5 56.5t-20 65.5t-4.5 69.5v135h147v-96q0 -103 22.5 -139t91.5 -36q68 0 100.5 43.5t33.5 141.5v295h147v-643z" />
    <glyph glyph-name="uni054F" unicode="&#x54f;" horiz-adv-x="660" 
d="M437 554v6q0 31 -11.5 52.5t-30 31.5t-35 13.5t-33.5 3.5q-39 0 -71.5 -24.5t-35.5 -57.5q-8 -91 118 -133q57 -19 96 -36.5t82.5 -47.5t65 -72.5t17.5 -95.5q-6 -88 -74.5 -147t-205.5 -59q-112 0 -185.5 56t-73.5 174v14h142v-13q0 -39 14 -66.5t36 -40t40.5 -18
t36.5 -5.5q23 -1 45.5 3.5t48.5 25t31 56.5q7 42 -28.5 74t-110.5 58q-61 21 -102 41.5t-76 51t-49.5 72t-9.5 96.5q7 73 74 134t183 61q110 0 179.5 -55t69.5 -153h-147z" />
    <glyph glyph-name="uni0550" unicode="&#x550;" horiz-adv-x="682" 
d="M612 518v-143h-147v117q0 96 -30 129.5t-94 33.5t-94 -33.5t-30 -129.5v-492h-147v518q0 47 11.5 87t39.5 77t84 58.5t136 21.5t136 -21.5t84 -58.5t39.5 -77t11.5 -87z" />
    <glyph glyph-name="uni0551" unicode="&#x551;" horiz-adv-x="711" 
d="M357 465q36 0 61 10.5t35 28t13.5 31.5t3.5 29q-2 45 -30 71t-83 26t-83 -26t-30 -71q0 -15 3.5 -29t13.5 -31.5t35 -28t61 -10.5zM13 326v106h164q-29 12 -49 32t-28 42.5t-11 40.5t-2 34q5 79 78.5 130t191.5 51t190.5 -51t77.5 -130q6 -103 -88 -149q134 -56 134 -198
q0 -46 -18.5 -88.5t-55.5 -78.5t-99.5 -57.5t-142.5 -21.5q-156 0 -235.5 59.5t-79.5 165.5v11h154v-8q0 -37 15.5 -63.5t41 -39.5t51 -18.5t53.5 -5.5q75 0 118.5 31.5t44.5 84.5q0 122 -163 122z" />
    <glyph glyph-name="uni0552" unicode="&#x552;" horiz-adv-x="655" 
d="M222 476v-476h-147v750h147v-177h83q67 0 111 -16t63.5 -41t29.5 -55.5t16 -61.5t15.5 -56t34.5 -41t68 -16h12v-94h-62q-61 0 -102.5 12t-61 32t-32 45.5t-15.5 52.5t-11.5 52.5t-20 45.5t-41.5 32t-76 12h-11z" />
    <glyph glyph-name="uni0553" unicode="&#x553;" horiz-adv-x="868" 
d="M507 750v-94q152 -1 236.5 -66.5t84.5 -175.5v-41q0 -110 -84.5 -175.5t-236.5 -66.5v-131h-146v131q-152 1 -236.5 66.5t-84.5 175.5v41q0 110 84.5 175.5t236.5 66.5v94h146zM682 380v27q0 138 -175 144v-314q175 3 175 143zM186 407v-27q0 -140 175 -143v314
q-175 -6 -175 -144z" />
    <glyph glyph-name="uni0554" unicode="&#x554;" horiz-adv-x="766" 
d="M162 140h-162v106h162v272q0 45 15.5 86.5t47 78t87 58t127.5 21.5q70 0 123.5 -20.5t83 -54t44 -70.5t14.5 -76q0 -37 -11 -71.5t-37.5 -70.5t-82.5 -58t-135 -22q-70 0 -129 26v-99h427v-106h-427v-140h-147v140zM430 425q59 0 90.5 31t30.5 86t-34.5 84t-86.5 29
t-86.5 -29t-34.5 -84t30.5 -86t90.5 -31z" />
    <glyph glyph-name="uni0555" unicode="&#x555;" horiz-adv-x="785" 
d="M388 661q-94 0 -145 -75.5t-51 -210.5t51 -210.5t145 -75.5t145 75.5t51 210.5t-51 210.5t-145 75.5zM388 762q86 0 155 -33.5t109.5 -88.5t62 -120t21.5 -133v-23q0 -54 -13 -106.5t-41 -101.5t-67.5 -86t-98 -59.5t-128.5 -22.5t-128.5 22.5t-98 59.5t-67.5 86
t-41 101.5t-13 106.5v23q0 68 21.5 133t62 120t109.5 88.5t155 33.5z" />
    <glyph glyph-name="uni0556" unicode="&#x556;" horiz-adv-x="870" 
d="M367 92v293q-70 -1 -121.5 11.5t-80 31.5t-45.5 46.5t-21.5 52t-3.5 51.5q1 20 8 41.5t26 45.5t47 42.5t75 30.5t105 12h154v-262q161 0 240.5 -64t78.5 -173q0 -87 -55.5 -147.5t-144 -88t-203.5 -27.5q-191 0 -288.5 68.5t-97.5 195.5v19h146v-6q0 -93 47.5 -131
t133.5 -42zM510 383v-291q75 2 122.5 45.5t46.5 107.5q0 23 -6 42t-21.5 41.5t-51.5 37t-90 17.5zM367 488v172q-57 0 -92.5 -21.5t-35.5 -58.5q0 -93 128 -92z" />
    <glyph glyph-name="uni0559" unicode="&#x559;" horiz-adv-x="332" 
d="M254 697v-20q0 -28 -13.5 -39t-28.5 -16.5t-18 -16.5q-13 -54 53 -119l-35 -46q-2 -4 -32.5 27.5t-61 89t-28.5 115.5q1 46 31.5 71t67.5 20q31 -4 48 -24.5t17 -41.5z" />
    <glyph glyph-name="uni055A" unicode="&#x55a;" horiz-adv-x="329" 
d="M85 677v20q0 21 17 41.5t48 24.5q37 5 67.5 -20t31.5 -71q1 -36 -12 -71.5t-32 -60t-39.5 -44t-34.5 -29t-15 -8.5l-29 27q26 25 38.5 39t21.5 34t5 37q-3 11 -20 18.5t-32 21t-15 41.5z" />
    <glyph glyph-name="uni055B" unicode="&#x55b;" horiz-adv-x="196" 
d="M73 832h97q10 0 15 -9.5t0 -18.5l-133 -241l-48 11l27 242q1 16 42 16z" />
    <glyph glyph-name="uni055C" unicode="&#x55c;" horiz-adv-x="288" 
d="M137 762q24 6 39 16t19 16.5t9 21.5t7 19l44 -7v-64q0 -46 -21.5 -72t-95.5 -49q-41 -14 -54 -28t-21 -46l-44 7v58q0 26 2 39.5t12.5 32.5t36 32t67.5 24z" />
    <glyph glyph-name="uni055D" unicode="&#x55d;" horiz-adv-x="373" 
d="M45 820l84 39q42 0 42 -16l124 -267l-102 -42l-163 258q-5 9 0 18.5t15 9.5z" />
    <glyph glyph-name="uni055E" unicode="&#x55e;" horiz-adv-x="288" 
d="M141 729q-24 0 -39 -15.5t-20.5 -46t-6.5 -50.5t0 -53h-59q-6 46 -0.5 93.5t18 86t43.5 62.5t76 24q48 0 78 -28.5t30 -73.5q0 -40 -30.5 -71.5t-90.5 -30.5l2 48q31 5 31 27q0 28 -32 28z" />
    <glyph glyph-name="uni055F" unicode="&#x55f;" horiz-adv-x="393" 
d="M371 565h-111q-70 0 -117 10.5t-69 30.5t-30.5 40.5t-8.5 48.5q0 49 53.5 92t170.5 43h6l-1 -78h-10q-41 0 -63 -14.5t-22 -38.5q0 -57 91 -57h111v-77z" />
    <glyph glyph-name="uni0561" unicode="&#x561;" horiz-adv-x="849" 
d="M638 0v79h-1q-11 -33 -48 -62t-99 -29q-102 0 -130 102q-15 -39 -54 -70.5t-100 -31.5q-63 0 -100 41.5t-37 119.5v351h142v-324q0 -81 50 -81q27 0 46.5 16.5t28.5 43t13 51.5t4 50v244h142v-324q0 -81 50 -81q27 0 46.5 16.5t28.5 43t13 51.5t4 50v244h142v-500h-141z
" />
    <glyph glyph-name="uni0562" unicode="&#x562;" 
d="M538 0h-326v-250h-142v750h141v-79h1q12 34 46.5 62.5t99.5 28.5q70 0 113 -42.5t43 -118.5v-180h-142v153q0 81 -59 81q-40 0 -64 -30t-30.5 -62.5t-6.5 -68.5v-144h326v-100z" />
    <glyph glyph-name="uni0563" unicode="&#x563;" horiz-adv-x="642" 
d="M426 441l49 64l58 -5v-400h109v-100h-109v-250h-152v304q-18 -29 -55 -47.5t-82 -18.5q-106 0 -160 75t-54 187q0 103 64 182.5t172 79.5q96 0 160 -71zM381 210v79q0 41 -22.5 78t-68.5 38q-49 1 -74.5 -39t-26.5 -116q1 -76 26.5 -116t74.5 -39q46 1 68.5 37.5
t22.5 77.5z" />
    <glyph glyph-name="uni0564" unicode="&#x564;" horiz-adv-x="622" 
d="M514 0v-250h-142v574q0 81 -59 81q-40 0 -64 -30t-30.5 -62.5t-6.5 -68.5v-244h-142v500h141v-79h1q12 34 46.5 62.5t99.5 28.5q70 0 113 -42.5t43 -118.5v-251h109v-100h-109z" />
    <glyph glyph-name="uni0565" unicode="&#x565;" 
d="M372 0v79h-1q-12 -34 -46.5 -62.5t-99.5 -28.5q-70 0 -113 42.5t-43 118.5v601h142v-250h327v-100h-327v-224q0 -81 59 -81q40 0 64 30t30.5 62.5t6.5 68.5v73h142v-329h-141z" />
    <glyph glyph-name="uni0566" unicode="&#x566;" horiz-adv-x="610" 
d="M381 -250v304q-18 -29 -55 -47.5t-82 -18.5q-106 0 -160 75t-54 187q0 103 64 182.5t172 79.5q96 0 160 -71l49 64l58 -5v-650h109v-100h-261zM381 210v79q0 41 -22.5 78t-68.5 38q-49 1 -74.5 -39t-26.5 -116q1 -76 26.5 -116t74.5 -39q46 1 68.5 37.5t22.5 77.5z" />
    <glyph glyph-name="uni0567" unicode="&#x567;" horiz-adv-x="491" 
d="M346 -168l-94 55q15 8 29 29t15 36q0 15 -5.5 25t-15 14t-21 6t-23 1t-21 -2.5t-15.5 -3.5l-6 -1q-93 -19 -112 -3q-7 5 -7 15v747h142v-250h279v-100h-279v-321q67 31 139.5 8.5t85.5 -88.5q11 -56 -16 -100t-70 -67h-5z" />
    <glyph glyph-name="uni0568" unicode="&#x568;" 
d="M538 -250h-468v750h141v-79h1q12 34 46.5 62.5t99.5 28.5q70 0 113 -42.5t43 -118.5v-351h-142v324q0 81 -59 81q-40 0 -64 -30t-30.5 -62.5t-6.5 -68.5v-394h326v-100z" />
    <glyph glyph-name="uni0569" unicode="&#x569;" horiz-adv-x="757" 
d="M472 84q22 0 42 18t20 56v55h-61q-26 0 -47 -15.5t-21 -48.5q0 -35 22 -50t45 -15zM212 244v-494h-142v750h141v-79h1q17 31 78.5 61t147.5 30q116 0 180 -55.5t64 -145.5v-3h75v-95h-75v-8q0 -62 -19.5 -106.5t-54 -67.5t-73 -33t-84.5 -10q-83 0 -135 45.5t-52 112.5
q0 65 51.5 113.5t133.5 48.5h85v1q0 41 -37.5 68.5t-99.5 27.5q-26 0 -55 -7.5t-59.5 -24t-50.5 -50t-20 -79.5z" />
    <glyph glyph-name="uni056A" unicode="&#x56a;" horiz-adv-x="618" 
d="M367 400h-34q-70 0 -113.5 -42t-43.5 -131q0 -46 12 -77t30.5 -42.5t33.5 -15t28 -2.5q45 5 66 43.5t21 126.5v140zM509 400v-140q0 -120 -68 -196t-184 -76q-104 0 -164.5 69t-62.5 174q-2 111 69.5 190t203.5 79h64v250h142v-250h109v-100h-109z" />
    <glyph glyph-name="uni056B" unicode="&#x56b;" 
d="M211 750v-329h1q12 34 46.5 62.5t99.5 28.5q70 0 113 -42.5t43 -118.5v-351h-142v324q0 81 -59 81q-40 0 -64 -30t-30.5 -62.5t-6.5 -68.5v-494h-142v1000h141z" />
    <glyph glyph-name="uni056C" unicode="&#x56c;" horiz-adv-x="294" 
d="M215 -150h108v-100h-251v750h143v-650z" />
    <glyph glyph-name="uni056D" unicode="&#x56d;" horiz-adv-x="851" 
d="M494 500v-324q0 -81 53 -81q27 0 46.5 16.5t28.5 43t13 51.5t4 50v244h142v-500h-141v79h-1q-11 -33 -48 -62t-99 -29q-64 0 -102 41.5t-38 119.5v251h-140v-650h-142v1000h142v-250h282z" />
    <glyph glyph-name="uni056E" unicode="&#x56e;" horiz-adv-x="555" 
d="M258 762l94 -55q-32 -22 -39.5 -44.5t2 -43t37.5 -53.5l57 -66h145v-100h-87q41 -68 41 -167q0 -118 -73 -182t-164 -63q-103 1 -172 74t-69 182q0 97 59.5 168t154.5 78q-30 35 -51 65q-83 119 60 207h5zM307 400q-59 0 -95.5 -39t-35.5 -123q1 -77 29 -111.5t67 -36.5
q43 -2 68.5 27.5t24.5 81.5q-3 136 -58 201z" />
    <glyph glyph-name="uni056F" unicode="&#x56f;" 
d="M372 -250v329h-1q-12 -34 -46.5 -62.5t-99.5 -28.5q-70 0 -113 42.5t-43 118.5v601h142v-574q0 -81 59 -81q40 0 64 30t30.5 62.5t6.5 68.5v244h142v-750h-141z" />
    <glyph glyph-name="uni0570" unicode="&#x570;" 
d="M211 750v-329h1q12 34 46.5 62.5t99.5 28.5q70 0 113 -42.5t43 -118.5v-351h-142v324q0 81 -59 81q-40 0 -64 -30t-30.5 -62.5t-6.5 -68.5v-244h-142v750h141z" />
    <glyph glyph-name="uni0571" unicode="&#x571;" horiz-adv-x="582" 
d="M178 762l94 -55q-72 -89 92 -93q30 0 78 2q16 1 19 1q21 -1 27.5 -19.5t-7.5 -28.5q-25 -20 -109 -80q1 0 15 -7.5t27.5 -16.5t32 -30.5t32 -48t24 -70.5t10.5 -97v-220h-141v79q-58 -90 -179 -90q-72 0 -117.5 54t-45.5 146q0 131 65.5 215.5t187.5 134.5
q-68 -4 -112.5 19t-56.5 58.5t3 76t56 70.5h5zM372 223v3q0 47 -10 83.5t-23.5 56t-30.5 32t-27.5 16.5t-18.5 4q-96 -69 -83 -219q4 -55 26 -78.5t51 -25.5q47 -3 81.5 34.5t34.5 93.5z" />
    <glyph glyph-name="uni0572" unicode="&#x572;" horiz-adv-x="593" 
d="M372 -250v574q0 81 -59 81q-40 0 -64 -30t-30.5 -62.5t-6.5 -68.5v-244h-142v500h141v-79h1q12 34 46.5 62.5t99.5 28.5q70 0 113 -42.5t43 -118.5v-501h109v-100h-251z" />
    <glyph glyph-name="uni0573" unicode="&#x573;" horiz-adv-x="584" 
d="M514 0h-141v79q-12 -18 -28 -35.5t-58.5 -38t-92.5 -16.5q-73 5 -118 57t-45 143q0 111 32 211h-63v100h103q44 112 125 185t188 77q80 3 134 -29l-62 -105h-4q-16 17 -44 23t-46 5q-40 -2 -81 -42.5t-69 -115.5q125 -5 197.5 -75t72.5 -203v-220zM180 200q-1 -55 23 -80
t54 -25q48 0 82 36.5t34 92.5v3q0 171 -166 171q-25 -89 -27 -198z" />
    <glyph glyph-name="uni0574" unicode="&#x574;" 
d="M513 314v-314h-141v79h-1q-12 -34 -46.5 -62.5t-99.5 -28.5q-70 0 -113 42.5t-43 118.5v351h142v-324q0 -81 59 -81q40 0 64 30t30.5 62.5t6.5 68.5v34q2 64 -10.5 119.5t-34.5 107t-24 58.5q-25 83 15.5 133t116.5 54q88 6 152 -34l-57 -108h-4q-12 25 -34 37.5t-43 7.5
q-8 -2 -15 -8.5t-12 -18t0 -31.5t21 -43q35 -50 53 -103t18 -147z" />
    <glyph glyph-name="uni0575" unicode="&#x575;" horiz-adv-x="285" 
d="M49 -155h4.5t9 1.5t11 5t10.5 9.5t8 16t3.5 25t-2.5 35q-20 122 -20 209v354h142v-567q0 -59 -18.5 -101t-46.5 -60t-51.5 -25.5t-43.5 -7.5q-75 0 -125 34l73 104h5q5 -13 15 -20.5t16.5 -9.5t9.5 -2z" />
    <glyph glyph-name="uni0576" unicode="&#x576;" horiz-adv-x="582" 
d="M110 765l73 -47q-42 -33 -45.5 -67t27.5 -53t80 -12q35 5 47 -20.5t-21 -53.5q-2 -1 -5 -4q-17 -13 -26.5 -25t-19 -51t-9.5 -101v-155q0 -81 59 -81q40 0 64 30t30.5 62.5t6.5 68.5v244h142v-500h-141v79h-1q-12 -34 -46.5 -62.5t-99.5 -28.5q-70 0 -113 42.5t-43 118.5
v156q0 5 -0.5 27.5t0 29.5t2 26t5.5 29.5t10 27t16 31t24 30.5q-62 7 -94 41t-30 75t29.5 82t73.5 61h5z" />
    <glyph glyph-name="uni0577" unicode="&#x577;" horiz-adv-x="443" 
d="M111 303h-5l-73 47q9 62 57 112t128 50q74 0 127 -44.5t58 -125.5q6 -104 -94 -258q-24 -37 -50.5 -76t-41 -61.5t-22.5 -35.5q-20 -34 -1 -48t55 -14h174v-99h-307q-52 0 -74.5 29.5t-15.5 68t33 69.5q109 132 152.5 207.5t50.5 159.5q4 47 -15.5 78.5t-58.5 28.5
q-58 -4 -77 -88z" />
    <glyph glyph-name="uni0578" unicode="&#x578;" 
d="M211 500v-79h1q12 34 46.5 62.5t99.5 28.5q70 0 113 -42.5t43 -118.5v-351h-142v324q0 81 -59 81q-40 0 -64 -30t-30.5 -62.5t-6.5 -68.5v-244h-142v500h141z" />
    <glyph glyph-name="uni0579" unicode="&#x579;" horiz-adv-x="373" 
d="M178 512l48 -65q-35 -35 -48.5 -57t-7.5 -43q7 -24 34.5 -53.5t56 -52t51.5 -51.5t23 -53q0 -13 -20 -43t-64.5 -88.5t-71.5 -97.5q-5 -12 -6.5 -21.5t-1 -15.5t5 -10.5t7.5 -7t11.5 -3.5t10.5 -1h12h10h125v-99h-240q-66 0 -90 52t18 119q18 27 56.5 62.5t67 62
t29.5 39.5q2 22 -18 46.5t-46.5 45t-53 50t-34.5 58.5q-12 44 19.5 103t111.5 124h5z" />
    <glyph glyph-name="uni057A" unicode="&#x57a;" horiz-adv-x="849" 
d="M638 -250v329h-1q-11 -33 -48 -62t-99 -29q-102 0 -130 102q-15 -39 -54 -70.5t-100 -31.5q-63 0 -100 41.5t-37 119.5v351h142v-324q0 -81 50 -81q27 0 46.5 16.5t28.5 43t13 51.5t4 50v244h142v-324q0 -81 50 -81q27 0 46.5 16.5t28.5 43t13 51.5t4 50v244h142v-750
h-141z" />
    <glyph glyph-name="uni057B" unicode="&#x57b;" horiz-adv-x="514" 
d="M165 -14q12 23 15 38t-6.5 29t-19 22t-36 26.5t-43.5 32.5q-39 31 -47 90.5t11.5 119t65 108.5t104.5 61q59 4 113 -16.5t91.5 -60t59 -89.5t17 -110.5t-37.5 -117.5q-19 -33 -49.5 -68t-54 -56t-66.5 -58t-58 -50q-2 -2 -9.5 -8t-9 -8.5t-5.5 -7t-2.5 -6t4.5 -4
t11.5 -3.5t21.5 -1h243v-99h-328q-62 0 -98 16t-29 60q2 13 6 22.5t25 32.5t60 54q43 35 51 51zM204 421q-13 2 -28 -12t-25 -38t-13 -50t9.5 -51t39.5 -39q155 -78 52 -233q65 70 92 144t17 131t-48 97.5t-96 50.5z" />
    <glyph glyph-name="uni057C" unicode="&#x57c;" 
d="M514 351v-48q0 -152 -51 -203h120v-100h-263v100q52 62 52 211v13q0 81 -59 81q-40 0 -64 -30t-30.5 -62.5t-6.5 -68.5v-244h-142v500h141v-79h1q12 34 46.5 62.5t99.5 28.5q70 0 113 -42.5t43 -118.5z" />
    <glyph glyph-name="uni057D" unicode="&#x57d;" 
d="M372 0v79h-1q-12 -34 -46.5 -62.5t-99.5 -28.5q-70 0 -113 42.5t-43 118.5v351h142v-324q0 -81 59 -81q40 0 64 30t30.5 62.5t6.5 68.5v244h142v-500h-141z" />
    <glyph glyph-name="uni057E" unicode="&#x57e;" horiz-adv-x="591" 
d="M514 -150h109v-100h-251v329h-1q-12 -34 -47 -62.5t-100 -28.5q-70 0 -112.5 42.5t-42.5 118.5v351h142v-324q0 -81 58 -81q40 0 64.5 30t31 62.5t6.5 68.5v494h142z" />
    <glyph glyph-name="uni057F" unicode="&#x57f;" horiz-adv-x="871" 
d="M499 0h-142v79h-1q-11 -33 -48 -62t-99 -29q-64 0 -102 41.5t-38 119.5v351h142v-324q0 -81 53 -81q27 0 46.5 16.5t28.5 43t13 51.5t4 50v244h142v-79h1q11 33 47.5 62t98.5 29q64 0 102.5 -41.5t38.5 -119.5v-351h-142v324q0 81 -53 81q-27 0 -46.5 -16.5t-28.5 -43
t-13 -51.5t-4 -50v-244z" />
    <glyph glyph-name="uni0580" unicode="&#x580;" 
d="M211 500v-79h1q12 34 46.5 62.5t99.5 28.5q70 0 113 -42.5t43 -118.5v-351h-142v324q0 81 -59 81q-40 0 -64 -30t-30.5 -62.5t-6.5 -68.5v-494h-142v750h141z" />
    <glyph glyph-name="uni0581" unicode="&#x581;" horiz-adv-x="603" 
d="M533 500v-466q0 -290 -291 -296q-61 -1 -113.5 21.5t-77.5 57.5l76 103h5q41 -74 117 -77q55 -3 93.5 33t38.5 120v58q-18 -29 -55 -47.5t-82 -18.5q-106 0 -160 75t-54 187q0 103 64 182.5t172 79.5q96 0 160 -71l49 64zM381 210v79q0 41 -22.5 78t-68.5 38
q-49 1 -74.5 -39t-26.5 -116q1 -76 26.5 -116t74.5 -39q46 1 68.5 37.5t22.5 77.5z" />
    <glyph glyph-name="uni0582" unicode="&#x582;" horiz-adv-x="331" 
d="M213 100h108v-100h-251v500h143v-400z" />
    <glyph glyph-name="uni0583" unicode="&#x583;" horiz-adv-x="855" 
d="M499 -250h-142v329h-1q-11 -33 -48 -62t-99 -29q-64 0 -102 41.5t-38 119.5v351h142v-324q0 -81 53 -81q27 0 46.5 16.5t28.5 43t13 51.5t4 50v494h142v-329h1q11 33 47.5 62t98.5 29q64 0 102.5 -41.5t38.5 -119.5v-351h-142v324q0 81 -53 81q-27 0 -46.5 -16.5
t-28.5 -43t-13 -51.5t-4 -50v-494z" />
    <glyph glyph-name="uni0584" unicode="&#x584;" horiz-adv-x="603" 
d="M222 500v-54q18 30 54 48t81 18q106 0 161 -75t55 -187q0 -49 -14 -95t-40.5 -83.5t-70.5 -60.5t-99 -23q-86 0 -127 55v-113h358v-92h-358v-88h-152v88h-79v92h79v570h152zM222 290v-79q0 -41 22.5 -78t68.5 -38q49 -1 74.5 39t26.5 116q-1 76 -26.5 116t-74.5 39
q-46 -1 -68.5 -37.5t-22.5 -77.5z" />
    <glyph glyph-name="uni0585" unicode="&#x585;" horiz-adv-x="574" 
d="M287 90q46 0 76.5 42.5t30.5 117.5t-30.5 117.5t-76.5 42.5t-76.5 -42.5t-30.5 -117.5t30.5 -117.5t76.5 -42.5zM287 -12q-116 0 -186.5 79t-70.5 183t70.5 183t186.5 79t186.5 -79t70.5 -183t-70.5 -183t-186.5 -79z" />
    <glyph glyph-name="uni0586" unicode="&#x586;" horiz-adv-x="744" 
d="M426 370v-285q63 0 101.5 34t40.5 91q6 145 -142 160zM286 472v186q-51 5 -84.5 -18.5t-33.5 -73.5q0 -46 32 -70.5t86 -23.5zM116 190h5q29 -57 74 -81.5t91 -23.5v289q-131 2 -193.5 53.5t-60.5 138.5q2 86 62 135t160 49h172v-283q129 -2 211 -66.5t76 -188.5
q-5 -102 -84.5 -162t-201.5 -60l-1 -240h-140v238q-86 -1 -159 27t-98 65z" />
    <glyph glyph-name="uni0587" unicode="&#x587;" horiz-adv-x="621" 
d="M372 0v79h-1q-12 -34 -46.5 -62.5t-99.5 -28.5q-70 0 -113 42.5t-43 118.5v601h142v-574q0 -81 59 -81q40 0 64 30t30.5 62.5t6.5 68.5v244h142v-401h108v-99h-249z" />
    <glyph glyph-name="uni0589" unicode="&#x589;" horiz-adv-x="297" 
d="M70 70q0 33 22.5 56t55.5 23t56 -23t23 -56t-23 -55.5t-56 -22.5t-55.5 22.5t-22.5 55.5zM70 434q0 33 22.5 56t55.5 23t56 -23t23 -56t-23 -55.5t-56 -22.5t-55.5 22.5t-22.5 55.5z" />
    <glyph glyph-name="uni058A" unicode="&#x58a;" horiz-adv-x="431" 
d="M420 246l11 -48q-97 -46 -192 -47q-120 -2 -179 46l56 99q33 -33 89.5 -50t113 -16t101.5 16z" />
    <glyph glyph-name="uni058C" unicode="&#x58c;" horiz-adv-x="723" 
d="M596 470v-89h127v-100h-127v-61h127v-100h-127v-120h-147v120h-102v100h102v61h-102v100h102v77q0 69 -29.5 110.5t-95.5 41.5q-127 0 -127 -152v-77h-147v89q0 103 75.5 173t197.5 70t197.5 -70t75.5 -173z" />
    <glyph glyph-name="uni058D" unicode="&#x58d;" horiz-adv-x="692" 
d="M370 298q107 55 189 12q58 -31 66 -92q10 -72 -60 -124q-5 -3 -9 -6q1 47 -15.5 83t-46 57.5t-61 33.5t-66.5 17q107 -34 139 -116q26 -67 -13 -120q-43 -58 -129 -46l-14 2q45 42 54 94t-6.5 94t-45.5 80q55 -107 12 -189q-31 -58 -92 -67q-71 -10 -123 60q-4 5 -7 10
q89 -3 135.5 53.5t55.5 134.5q-34 -107 -116 -139q-67 -26 -120 13q-58 43 -46 129l2 14q42 -45 94 -54t94 6.5t80 45.5q-107 -55 -189 -12q-58 31 -66 92q-10 72 60 124l9 6q-1 -47 15.5 -83t46 -57.5t61 -33.5t66.5 -17q-107 34 -139 116q-26 67 13 120q43 58 129 46
l14 -2q-45 -42 -54 -94t6.5 -94t45.5 -80q-55 107 -12 189q31 58 92 67q71 10 123 -60q4 -5 7 -10q-89 3 -135.5 -53.5t-55.5 -134.5q34 107 116 139q67 26 120 -13q58 -43 46 -129l-2 -14q-42 45 -94 54t-94 -6.5t-80 -45.5z" />
    <glyph glyph-name="uni058E" unicode="&#x58e;" horiz-adv-x="1015" 
d="M942 506v-149h-83v42h-1q-6 -18 -27 -33.5t-59 -15.5q-41 0 -66.5 23t-25.5 63v180h84v-162q0 -43 35 -43q23 0 37.5 18.5t18 35t3.5 29.5q1 34 -5.5 62.5t-20 57t-14.5 30.5q-16 44 8.5 76.5t67.5 34.5q51 6 91 -19l-33 -56h-3q-13 26 -46 20q-6 -1 -11.5 -8.5
t-4.5 -22.5t14 -30q41 -54 41 -133zM673 214v77h311v-77h-311zM624 614l-2 -10q-34 -1 -67.5 -5.5t-87 -22.5t-99.5 -47.5t-96.5 -86t-87.5 -132.5l485 -182l-31 -145l-610 228q50 172 139 294t197.5 182t231.5 64z" />
    <glyph glyph-name="uni058F" unicode="&#x58f;" horiz-adv-x="576" 
d="M291 -26q-1 0 -5.5 -0.5t-8.5 -0.5q-6 0 -26 13t-32 13q-75 0 -121 42.5t-58 119.5q-1 9 -1 75v67q2 21 9.5 39.5t21.5 31.5t26.5 23t33 18.5t32.5 12.5t33.5 10.5t27.5 8.5q-8 31 -37 56.5t-62 37.5q20 21 47 24t47 -6t31 -22l42 114l39 -114q11 13 31.5 22t48 6
t46.5 -24q-32 -12 -61.5 -38t-37.5 -56q4 -1 27.5 -8t34 -11t32 -12.5t33 -18t25.5 -23.5t21.5 -32t9.5 -39v-67q0 -66 -1 -75q-10 -76 -56 -119t-120 -43q-14 0 -33 -13t-25 -13q-4 0 -8.5 0.5t-5.5 0.5z" />
    <glyph glyph-name="glyph722" unicode="&#x722;" horiz-adv-x="356" 
d="M281 496v-103h-91v103h-166v34l173 239h84v-216h49v-57h-49zM190 553v118l-3 4l-93 -120l1 -2h95z" />
    <glyph glyph-name="glyph723" unicode="&#x723;" horiz-adv-x="362" 
d="M73 490h6q21 -50 81 -50q24 0 42.5 20t18.5 52v2q0 67 -71 64q-6 0 -11.5 -1t-9 -1.5t-8.5 -3l-7 -3.5t-7.5 -5t-7 -5t-7.5 -6.5t-8 -6.5l-34 8l20 211h216v-78l-5 -7q-30 14 -151 14l-6 -3l-15 -69q28 20 66 21q65 3 104 -30t39 -94v-9q0 -51 -41 -92t-115 -43
q-95 -2 -132 71z" />
    <glyph glyph-name="glyph724" unicode="&#x724;" horiz-adv-x="334" 
d="M49 767h238l6 -28q-125 -186 -144 -346h-84v9l1 4q0 5 1 12.5t3.5 18.5t7.5 26t12 32.5t18 39.5t25 46.5t33.5 54t42.5 60.5l-3 3q-116 -2 -157 -10v78z" />
    <glyph glyph-name="glyph725" unicode="&#x725;" horiz-adv-x="398" 
d="M199 572q-58 0 -56 -67q1 -32 17 -46t39 -14t40 14.5t16 45.5q-2 67 -56 67zM199 721q-17 0 -26.5 -10.5t-9.5 -29.5q0 -40 36 -40t36 40q0 19 -9.5 29.5t-26.5 10.5zM199 777q60 0 95.5 -27t35.5 -63q0 -19 -2.5 -31t-16 -26.5t-37.5 -22.5q80 -22 80 -108v-2
q0 -53 -44.5 -85t-110.5 -32t-110.5 32t-44.5 85v2q0 86 80 108q-56 15 -56 80q0 36 35.5 63t95.5 27z" />
    <glyph glyph-name="glyph727" unicode="&#x727;" horiz-adv-x="732" 
d="M366 863q53 0 88.5 16t16.5 43q-17 23 -17 43q0 39 26.5 60t61.5 20q41 -1 65 -33t18 -69q-11 -78 -81.5 -114.5t-177.5 -35.5q-110 -1 -182.5 35.5t-76.5 114.5q-2 37 21.5 68.5t63.5 33.5q35 2 60.5 -17.5t25.5 -58.5q0 -24 -17 -47q-19 -27 16.5 -43t88.5 -16z" />
    <glyph glyph-name="glyph728" unicode="&#x728;" horiz-adv-x="595" 
d="M297 607q34 0 55.5 11t10.5 37q-1 3 -6 12t-8 17t-3 15q0 31 22 47.5t53 15.5q38 -1 59 -24t22 -51q1 -67 -55.5 -107.5t-149.5 -40.5t-149 40.5t-55 107.5q1 28 22 51t59 24q31 1 53 -15.5t22 -47.5q0 -7 -3 -15t-8 -17t-6 -12q-11 -26 10 -37t55 -11z" />
    <glyph glyph-name="Wgrave" unicode="&#x1e80;" horiz-adv-x="940" 
d="M694 324l124 416h103v-6l-244 -743h-20l-189 587l-200 -587h-20l-228 741v8h156l109 -416l134 416h154zM405 1057l97 1q42 0 42 -16l12 -223l-48 -11l-118 221q-5 9 0 18.5t15 9.5z" />
    <glyph glyph-name="wgrave" unicode="&#x1e81;" horiz-adv-x="758" 
d="M546 240l86 260h111v-8l-173 -492h-72l-119 337l-114 -337h-72l-178 492v8h149l78 -260l82 260h148zM314 806l97 1q42 0 42 -16l12 -223l-48 -11l-118 221q-5 9 0 18.5t15 9.5z" />
    <glyph glyph-name="Wacute" unicode="&#x1e82;" horiz-adv-x="940" 
d="M694 324l124 416h103v-6l-244 -743h-20l-189 587l-200 -587h-20l-228 741v8h156l109 -416l134 416h154zM437 1058l97 -1q10 0 15 -9.5t0 -18.5l-118 -221l-48 11l12 223q0 16 42 16z" />
    <glyph glyph-name="wacute" unicode="&#x1e83;" horiz-adv-x="758" 
d="M546 240l86 260h111v-8l-173 -492h-72l-119 337l-114 -337h-72l-178 492v8h149l78 -260l82 260h148zM346 807l97 -1q10 0 15 -9.5t0 -18.5l-118 -221l-48 11l12 223q0 16 42 16z" />
    <glyph glyph-name="Wdieresis" unicode="&#x1e84;" horiz-adv-x="940" 
d="M694 324l124 416h103v-6l-244 -743h-20l-189 587l-200 -587h-20l-228 741v8h156l109 -416l134 416h154zM257 886q0 33 22.5 56t55.5 23t56 -23t23 -56t-23 -55.5t-56 -22.5t-55.5 22.5t-22.5 55.5zM525 886q0 33 22.5 56t55.5 23t56 -23t23 -56t-23 -55.5t-56 -22.5
t-55.5 22.5t-22.5 55.5z" />
    <glyph glyph-name="wdieresis" unicode="&#x1e85;" horiz-adv-x="758" 
d="M546 240l86 260h111v-8l-173 -492h-72l-119 337l-114 -337h-72l-178 492v8h149l78 -260l82 260h148zM167 635q0 33 22.5 56t55.5 23t56 -23t23 -56t-23 -55.5t-56 -22.5t-55.5 22.5t-22.5 55.5zM435 635q0 33 22.5 56t55.5 23t56 -23t23 -56t-23 -55.5t-56 -22.5
t-55.5 22.5t-22.5 55.5z" />
    <glyph glyph-name="Ygrave" unicode="&#x1ef2;" horiz-adv-x="599" 
d="M322 388l154 352h103v-6l-201 -442v-292h-147v290l-211 442v8h156zM235 1057l97 1q42 0 42 -16l12 -223l-48 -11l-118 221q-5 9 0 18.5t15 9.5z" />
    <glyph glyph-name="ygrave" unicode="&#x1ef3;" horiz-adv-x="493" 
d="M98 -114l-97 -114q35 -24 75 -32t81 1.5t76.5 48t55.5 101.5l189 601v8h-111l-95 -308l-108 308h-149v-8l190 -482q2 -3 -5.5 -36.5t-23.5 -68t-33 -36.5q-27 -4 -40 17h-5zM182 806l97 1q42 0 42 -16l12 -223l-48 -11l-118 221q-5 9 0 18.5t15 9.5z" />
    <glyph glyph-name="figuredash" unicode="&#x2012;" horiz-adv-x="514" 
d="M26 292h462v-94h-462v94z" />
    <glyph glyph-name="endash" unicode="&#x2013;" horiz-adv-x="511" 
d="M26 292h455v-94h-455v94z" />
    <glyph glyph-name="emdash" unicode="&#x2014;" horiz-adv-x="1053" 
d="M0 292h1053v-94h-1053v94z" />
    <glyph glyph-name="underscoredbl" unicode="&#x2017;" horiz-adv-x="510" 
d="M0 -250v94h510v-94h-510zM0 -90v94h510v-94h-510z" />
    <glyph glyph-name="quoteleft" unicode="&#x2018;" horiz-adv-x="274" 
d="M204 548v-20q0 -21 -17 -41.5t-48 -24.5q-37 -5 -67 20t-31 71q0 35 12.5 70t31 60t37.5 44.5t32 29.5t14 9l29 -27q-36 -35 -51 -59.5t-9 -50.5q3 -11 20 -18.5t32 -21t15 -41.5z" />
    <glyph glyph-name="quoteright" unicode="&#x2019;" horiz-adv-x="274" 
d="M70 676v20q0 21 17 41.5t48 24.5q37 5 67 -20t31 -71q0 -35 -12.5 -70t-31 -60t-37.5 -44.5t-32 -29.5t-14 -9l-29 27q36 35 51 59.5t9 50.5q-3 11 -20 18.5t-32 21t-15 41.5z" />
    <glyph glyph-name="quotesinglbase" unicode="&#x201a;" horiz-adv-x="305" 
d="M71 61v20q0 21 17 41.5t48 24.5q37 5 67 -20t31 -71q0 -35 -12.5 -70t-31 -60t-37.5 -44.5t-32 -29.5t-14 -9l-29 27q36 35 51 59.5t9 50.5q-3 11 -20 18.5t-32 21t-15 41.5z" />
    <glyph glyph-name="quotedblleft" unicode="&#x201c;" horiz-adv-x="500" 
d="M430 548v-20q0 -21 -17 -41.5t-48 -24.5q-37 -5 -67 20t-31 71q0 35 12.5 70t31 60t37.5 44.5t32 29.5t14 9l29 -27q-36 -35 -51 -59.5t-9 -50.5q3 -11 20 -18.5t32 -21t15 -41.5zM204 548v-20q0 -21 -17 -41.5t-48 -24.5q-37 -5 -67 20t-31 71q0 35 12.5 70t31 60
t37.5 44.5t32 29.5t14 9l29 -27q-36 -35 -51 -59.5t-9 -50.5q3 -11 20 -18.5t32 -21t15 -41.5z" />
    <glyph glyph-name="quotedblright" unicode="&#x201d;" horiz-adv-x="505" 
d="M70 676v20q0 21 17 41.5t48 24.5q37 5 67 -20t31 -71q0 -35 -12.5 -70t-31 -60t-37.5 -44.5t-32 -29.5t-14 -9l-29 27q36 35 51 59.5t9 50.5q-3 11 -20 18.5t-32 21t-15 41.5zM296 676v20q0 21 17 41.5t48 24.5q37 5 67 -20t31 -71q0 -35 -12.5 -70t-31 -60t-37.5 -44.5
t-32 -29.5t-14 -9l-29 27q36 35 51 59.5t9 50.5q-3 11 -20 18.5t-32 21t-15 41.5z" />
    <glyph glyph-name="quotedblbase" unicode="&#x201e;" horiz-adv-x="505" 
d="M71 61v20q0 21 17 41.5t48 24.5q37 5 67 -20t31 -71q0 -35 -12.5 -70t-31 -60t-37.5 -44.5t-32 -29.5t-14 -9l-29 27q36 35 51 59.5t9 50.5q-3 11 -20 18.5t-32 21t-15 41.5zM297 61v20q0 21 17 41.5t48 24.5q37 5 67 -20t31 -71q0 -35 -12.5 -70t-31 -60t-37.5 -44.5
t-32 -29.5t-14 -9l-29 27q36 35 51 59.5t9 50.5q-3 11 -20 18.5t-32 21t-15 41.5z" />
    <glyph glyph-name="dagger" unicode="&#x2020;" horiz-adv-x="511" 
d="M286 -250h-43q-1 181 -23.5 354t-49.5 213q44 36 53 159q-30 -4 -84 -25t-66 -20q-26 1 -41.5 19t-15.5 42t16.5 44.5t41.5 20.5q16 0 57 -13.5t92 -14.5q-1 24 -17.5 83.5t-16.5 77.5q0 31 19.5 49t45.5 18q27 0 46 -18t19 -49q0 -18 -16 -77.5t-17 -83.5q48 1 89 14.5
t59 13.5q25 0 41.5 -20.5t16.5 -44.5q0 -23 -17 -41.5t-40 -19.5q-14 -1 -67.5 20t-81.5 25q9 -123 51 -159q-23 -37 -36 -200.5t-15 -366.5z" />
    <glyph glyph-name="daggerdbl" unicode="&#x2021;" horiz-adv-x="511" 
d="M285 247q0 -27 7.5 -52.5t14 -37t20.5 -33.5q-45 -38 -45 -136q24 4 72 22.5t60 17.5q20 -1 35 -17t15 -36q0 -22 -15 -40t-36 -18q-16 0 -52.5 12t-78.5 13q1 -22 15 -74.5t14 -67.5q0 -27 -16.5 -43.5t-40.5 -16.5q-23 0 -40.5 16.5t-17.5 43.5q0 15 15 67.5t16 74.5
q-46 -1 -82 -13t-50 -12q-24 0 -37.5 17.5t-13.5 40.5q0 20 14 36t36 17q11 1 59 -17.5t74 -22.5q0 99 -47 136l15 22.5t19 30.5t12.5 31t6.5 39t-7 39t-12.5 30t-19.5 31t-14 22q47 38 47 137q-25 -4 -73.5 -22.5t-59.5 -17.5q-22 1 -36 16.5t-14 36.5q0 22 14.5 40
t36.5 18q14 0 50 -12t82 -13q-1 22 -16 74.5t-15 67.5q0 27 17.5 43.5t40.5 16.5q24 0 40.5 -16.5t16.5 -43.5q0 -15 -14 -67.5t-15 -74.5q42 1 78.5 13t52.5 12q21 0 36 -18t15 -40q0 -20 -15 -36t-35 -17q-13 -1 -61 17.5t-71 22.5q0 -98 45 -137q-14 -22 -20.5 -33.5
t-14 -36.5t-7.5 -52z" />
    <glyph glyph-name="bullet" unicode="&#x2022;" horiz-adv-x="521" 
d="M115 242q0 61 42 103.5t103 42.5t103.5 -42.5t42.5 -103.5t-42.5 -103t-103.5 -42t-103 42t-42 103z" />
    <glyph glyph-name="ellipsis" unicode="&#x2026;" horiz-adv-x="951" 
d="M72 70q0 33 22.5 56t55.5 23t56 -23t23 -56t-23 -55.5t-56 -22.5t-55.5 22.5t-22.5 55.5zM381 70q0 33 22.5 56t55.5 23t56 -23t23 -56t-23 -55.5t-56 -22.5t-55.5 22.5t-22.5 55.5zM724 70q0 33 22.5 56t55.5 23t56 -23t23 -56t-23 -55.5t-56 -22.5t-55.5 22.5
t-22.5 55.5z" />
    <glyph glyph-name="perthousand" unicode="&#x2030;" horiz-adv-x="1037" 
d="M176 394q-64 0 -105 45t-41 132v4q0 88 41 136.5t105 48.5t105 -48.5t41 -136.5v-4q0 -87 -41 -132t-105 -45zM176 697q-14 0 -23 -6.5t-17 -35t-8 -80.5v-4q0 -38 4 -63t12 -35t15 -13t17 -3t17 3t15 13t12 35t4 63v4q0 52 -8 80.5t-17 35t-23 6.5zM530 -12
q-64 0 -105 45t-41 132v4q0 88 41 136.5t105 48.5t105 -48.5t41 -136.5v-4q0 -87 -41 -132t-105 -45zM530 291q-14 0 -23 -6.5t-17 -35t-8 -80.5v-4q0 -38 4 -63t12 -35t15 -13t17 -3t17 3t15 13t12 35t4 63v4q0 52 -8 80.5t-17 35t-23 6.5zM98 -30l408 812h101l-410 -812
h-99zM861 -12q-64 0 -105 45t-41 132v4q0 88 41 136.5t105 48.5t105 -48.5t41 -136.5v-4q0 -87 -41 -132t-105 -45zM861 291q-14 0 -23 -6.5t-17 -35t-8 -80.5v-4q0 -38 4 -63t12 -35t15 -13t17 -3t17 3t15 13t12 35t4 63v4q0 52 -8 80.5t-17 35t-23 6.5z" />
    <glyph glyph-name="guilsinglleft" unicode="&#x2039;" horiz-adv-x="339" 
d="M269 423l-83 -181l83 -198h-74l-155 198l155 181h74z" />
    <glyph glyph-name="guilsinglright" unicode="&#x203a;" horiz-adv-x="339" 
d="M153 242l-83 181h74l155 -181l-155 -198h-74z" />
    <glyph glyph-name="fraction" unicode="&#x2044;" horiz-adv-x="506" 
d="M10 -28l383 792h101l-385 -792h-99z" />
    <glyph glyph-name="zerosuperior" unicode="&#x2070;" horiz-adv-x="356" 
d="M176 459q-64 0 -105 47t-41 135v21q0 88 41 136.5t105 48.5t105 -48.5t41 -136.5v-21q0 -88 -41 -135t-105 -47zM176 784q-14 0 -23 -6.5t-17 -35t-8 -80.5v-21q0 -50 8 -78t17 -34.5t23 -6.5t23 6.5t17 34.5t8 78v21q0 52 -8 80.5t-17 35t-23 6.5z" />
    <glyph glyph-name="foursuperior" unicode="&#x2074;" horiz-adv-x="356" 
d="M281 568v-103h-91v103h-166v34l173 239h84v-216h49v-57h-49zM190 625v118l-3 4l-93 -120l1 -2h95z" />
    <glyph glyph-name="fivesuperior" unicode="&#x2075;" horiz-adv-x="362" 
d="M73 568h6q21 -50 81 -50q24 0 42.5 20t18.5 52v2q0 67 -71 64q-6 0 -11.5 -1t-9 -1.5t-8.5 -3l-7 -3.5t-7.5 -5t-7 -5t-7.5 -6.5t-8 -6.5l-34 8l20 211h216v-78l-5 -7q-30 14 -151 14l-6 -3l-15 -69q28 20 66 21q65 3 104 -30t39 -94v-9q0 -51 -41 -92t-115 -43
q-95 -2 -132 71z" />
    <glyph glyph-name="sixsuperior" unicode="&#x2076;" horiz-adv-x="388" 
d="M223 852q32 0 60 -12t42 -31l-29 -69h-2q-24 44 -68 44q-81 -2 -84 -105q32 30 86 30q48 0 83 -36t34 -90q-1 -52 -45 -91t-101 -39q-72 0 -114.5 49.5t-41.5 123.5q0 34 8.5 68.5t27 71t56 60.5t88.5 26zM196 520q22 0 37 16.5t15 42.5q0 32 -16.5 48t-33.5 16
q-8 0 -18 -3t-23 -19t-12 -43q1 -29 16 -43.5t35 -14.5z" />
    <glyph glyph-name="sevensuperior" unicode="&#x2077;" horiz-adv-x="334" 
d="M51 842h233l6 -29q-121 -184 -141 -348h-82v9l1 4q0 5 1 12.5t3.5 18.5t7.5 26t11.5 33t17.5 40.5t24.5 46.5t32.5 54t42 61l-3 3q-113 -2 -154 -10v79z" />
    <glyph glyph-name="eightsuperior" unicode="&#x2078;" horiz-adv-x="398" 
d="M199 646q-58 0 -56 -67q1 -32 17 -46t39 -14t40 14.5t16 45.5q-2 67 -56 67zM199 795q-17 0 -26.5 -10.5t-9.5 -29.5q0 -40 36 -40t36 40q0 19 -9.5 29.5t-26.5 10.5zM199 851q60 0 95.5 -27t35.5 -63q0 -19 -2.5 -31t-16 -26.5t-37.5 -22.5q80 -22 80 -108v-2
q0 -53 -44.5 -85t-110.5 -32t-110.5 32t-44.5 85v2q0 86 80 108q-56 15 -56 80q0 36 35.5 63t95.5 27z" />
    <glyph glyph-name="ninesuperior" unicode="&#x2079;" horiz-adv-x="388" 
d="M165 453q-32 0 -60 12t-42 31l29 69h2q24 -44 68 -44q81 2 84 105q-32 -30 -86 -30q-48 0 -83 36t-34 90q1 52 45 91t101 39q72 0 114.5 -49.5t41.5 -123.5q0 -34 -8.5 -68.5t-27 -71t-56 -60.5t-88.5 -26zM192 785q-22 0 -37 -16.5t-15 -42.5q0 -32 16.5 -48t33.5 -16
q8 0 18 3t23 19t12 43q-1 29 -16 43.5t-35 14.5z" />
    <glyph glyph-name="parenleftsuperior" unicode="&#x207d;" horiz-adv-x="250" 
d="M44 652q0 63 35 114t83 84l51 -19q-69 -85 -69 -179q0 -95 69 -180l-51 -19q-48 33 -83 84.5t-35 114.5z" />
    <glyph glyph-name="parenrightsuperior" unicode="&#x207e;" horiz-adv-x="246" 
d="M208 652q0 -63 -35 -114.5t-83 -84.5l-51 19q69 85 69 180q0 94 -69 179l51 19q48 -33 83 -84t35 -114z" />
    <glyph glyph-name="nsuperior" unicode="&#x207f;" horiz-adv-x="417" 
d="M141 840v-65h1q30 72 111 72q51 0 82.5 -34t31.5 -93v-252h-93v220q0 25 -2 41.5t-13.5 32.5t-32.5 16q-84 2 -84 -169v-141h-92v372h91z" />
    <glyph glyph-name="zeroinferior" unicode="&#x2080;" horiz-adv-x="352" 
d="M176 -6q-64 0 -105 47t-41 135v21q0 88 41 136.5t105 48.5t105 -48.5t41 -136.5v-21q0 -88 -41 -135t-105 -47zM176 319q-14 0 -23 -6.5t-17 -35t-8 -80.5v-21q0 -50 8 -78t17 -34.5t23 -6.5t23 6.5t17 34.5t8 78v21q0 52 -8 80.5t-17 35t-23 6.5z" />
    <glyph glyph-name="oneinferior" unicode="&#x2081;" horiz-adv-x="234" 
d="M179 371v-371h-92v294q-28 -10 -57 -18l-9 34q127 48 145 67z" />
    <glyph glyph-name="twoinferior" unicode="&#x2082;" horiz-adv-x="306" 
d="M136 385q55 2 94 -32.5t39 -90.5v-1q0 -33 -17 -67t-61 -68.5t-109 -51.5l5 -3q157 0 186 14l6 -6v-79h-250l-7 88q76 41 112.5 77.5t36.5 91.5q0 22 -6.5 36.5t-16 20t-15.5 7t-12 1.5t-14 -1.5t-22.5 -12t-20.5 -28.5h-5l-44 39q44 63 121 66z" />
    <glyph glyph-name="threeinferior" unicode="&#x2083;" horiz-adv-x="382" 
d="M128 170l-1 59q92 -6 92 52q0 15 -12 28t-32 13q-48 0 -67 -42h-5l-44 39q41 64 126 66q61 1 97 -27t36 -69q0 -30 -21 -54t-64 -30q54 -2 80.5 -33t25.5 -67q-2 -49 -41.5 -83t-118.5 -34q-36 0 -75 16t-62 55l43 44h6q32 -50 91 -50q22 0 40 14t19 35v1q0 11 -2 18.5
t-10.5 22t-34.5 21.5t-66 5z" />
    <glyph glyph-name="fourinferior" unicode="&#x2084;" horiz-adv-x="356" 
d="M281 103v-103h-91v103h-166v34l173 239h84v-216h49v-57h-49zM190 160v118l-3 4l-93 -120l1 -2h95z" />
    <glyph glyph-name="fiveinferior" unicode="&#x2085;" horiz-adv-x="362" 
d="M69 103h6q21 -50 81 -50q24 0 42.5 20t18.5 52v2q0 67 -71 64q-6 0 -11.5 -1t-9 -1.5t-8.5 -3l-7 -3.5t-7.5 -5t-7 -5t-7.5 -6.5t-8 -6.5l-34 8l20 211h216v-78l-5 -7q-30 14 -151 14l-6 -3l-15 -69q28 20 66 21q65 3 104 -30t39 -94v-9q0 -51 -41 -92t-115 -43
q-95 -2 -132 71z" />
    <glyph glyph-name="sixinferior" unicode="&#x2086;" horiz-adv-x="388" 
d="M223 387q32 0 60 -12t42 -31l-29 -69h-2q-24 44 -68 44q-81 -2 -84 -105q32 30 86 30q48 0 83 -36t34 -90q-1 -52 -45 -91t-101 -39q-72 0 -114.5 49.5t-41.5 123.5q0 34 8.5 68.5t27 71t56 60.5t88.5 26zM196 55q22 0 37 16.5t15 42.5q0 32 -16.5 48t-33.5 16
q-8 0 -18 -3t-23 -19t-12 -43q1 -29 16 -43.5t35 -14.5z" />
    <glyph glyph-name="seveninferior" unicode="&#x2087;" horiz-adv-x="334" 
d="M48 377h240l6 -29q-124 -186 -145 -348h-84v9l1 5q0 4 1 11.5t3.5 18.5t7.5 26t12 33t18 40.5t25 46.5t34 54t43 61l-3 3q-117 -2 -159 -10v79z" />
    <glyph glyph-name="eightinferior" unicode="&#x2088;" horiz-adv-x="398" 
d="M199 179q-58 0 -56 -67q1 -32 17 -46t39 -14t40 14.5t16 45.5q-2 67 -56 67zM199 328q-17 0 -26.5 -10.5t-9.5 -29.5q0 -40 36 -40t36 40q0 19 -9.5 29.5t-26.5 10.5zM199 384q60 0 95.5 -27t35.5 -63q0 -19 -2.5 -31t-16 -26.5t-37.5 -22.5q80 -22 80 -108v-2
q0 -53 -44.5 -85t-110.5 -32t-110.5 32t-44.5 85v2q0 86 80 108q-56 15 -56 80q0 36 35.5 63t95.5 27z" />
    </font>
</defs>
</svg>
